<svg width="20" height="18" viewBox="0 0 20 18" fill="none" xmlns="http://www.w3.org/2000/svg">
<path fill-rule="evenodd" clip-rule="evenodd" d="M15.84 1V4H18.81C19.0726 4 19.3244 4.10536 19.51 4.29289C19.6957 4.48043 19.8 4.73478 19.8 5V15C19.8 15.7956 19.4871 16.5587 18.9301 17.1213C18.3731 17.6839 17.6177 18 16.83 18H2.97C2.18231 18 1.42688 17.6839 0.869893 17.1213C0.31291 16.5587 0 15.7956 0 15V1C0 0.734784 0.104303 0.48043 0.289964 0.292893C0.475625 0.105357 0.727436 0 0.99 0H14.85C15.1126 0 15.3644 0.105357 15.55 0.292893C15.7357 0.48043 15.84 0.734784 15.84 1ZM17.82 15C17.82 15.2652 17.7157 15.5196 17.53 15.7071C17.3444 15.8946 17.0926 16 16.83 16C16.5674 16 16.3156 15.8946 16.13 15.7071C15.9443 15.5196 15.84 15.2652 15.84 15V6H17.82V15ZM3.96 5C3.96 4.73478 4.0643 4.48043 4.24996 4.29289C4.43563 4.10536 4.68744 4 4.95 4H10.89C11.1526 4 11.4044 4.10536 11.59 4.29289C11.7757 4.48043 11.88 4.73478 11.88 5C11.88 5.26522 11.7757 5.51957 11.59 5.70711C11.4044 5.89464 11.1526 6 10.89 6H4.95C4.68744 6 4.43563 5.89464 4.24996 5.70711C4.0643 5.51957 3.96 5.26522 3.96 5ZM5.94 9C5.94 8.73478 6.0443 8.48043 6.22996 8.29289C6.41563 8.10536 6.66744 8 6.93 8H10.89C11.1526 8 11.4044 8.10536 11.59 8.29289C11.7757 8.48043 11.88 8.73478 11.88 9C11.88 9.26522 11.7757 9.51957 11.59 9.70711C11.4044 9.89464 11.1526 10 10.89 10H6.93C6.66744 10 6.41563 9.89464 6.22996 9.70711C6.0443 9.51957 5.94 9.26522 5.94 9Z" fill="#979797"/>
</svg>
