<svg width="20" height="14" viewBox="0 0 20 14" fill="none" xmlns="http://www.w3.org/2000/svg">
<path d="M1.99935 5.66683H17.9993C18.353 5.66683 18.6921 5.80731 18.9422 6.05735C19.1922 6.3074 19.3327 6.64654 19.3327 7.00016C19.3327 7.35378 19.1922 7.69292 18.9422 7.94297C18.6921 8.19302 18.353 8.3335 17.9993 8.3335H1.99935C1.64573 8.3335 1.30659 8.19302 1.05654 7.94297C0.806491 7.69292 0.666016 7.35378 0.666016 7.00016C0.666016 6.64654 0.806491 6.3074 1.05654 6.05735C1.30659 5.80731 1.64573 5.66683 1.99935 5.66683Z" fill="#0D9563"/>
<path d="M17.9993 0.333496H1.99935C1.64573 0.333496 1.30659 0.473972 1.05654 0.724021C0.806491 0.974069 0.666016 1.31321 0.666016 1.66683C0.666016 2.02045 0.806491 2.35959 1.05654 2.60964C1.30659 2.85969 1.64573 3.00016 1.99935 3.00016H17.9993C18.353 3.00016 18.6921 2.85969 18.9422 2.60964C19.1922 2.35959 19.3327 2.02045 19.3327 1.66683C19.3327 1.31321 19.1922 0.974069 18.9422 0.724021C18.6921 0.473972 18.353 0.333496 17.9993 0.333496Z" fill="#0D9563"/>
<path d="M17.9993 11.0002H1.99935C1.64573 11.0002 1.30659 11.1406 1.05654 11.3907C0.806491 11.6407 0.666016 11.9799 0.666016 12.3335C0.666016 12.6871 0.806491 13.0263 1.05654 13.2763C1.30659 13.5264 1.64573 13.6668 1.99935 13.6668H17.9993C18.353 13.6668 18.6921 13.5264 18.9422 13.2763C19.1922 13.0263 19.3327 12.6871 19.3327 12.3335C19.3327 11.9799 19.1922 11.6407 18.9422 11.3907C18.6921 11.1406 18.353 11.0002 17.9993 11.0002Z" fill="#0D9563"/>
</svg>
