<svg width="18" height="18" viewBox="0 0 18 18" fill="none" xmlns="http://www.w3.org/2000/svg">
<path fill-rule="evenodd" clip-rule="evenodd" d="M9 0C4.0293 0 0 4.0293 0 9C0 13.9707 4.0293 18 9 18C13.9707 18 18 13.9707 18 9C18 4.0293 13.9707 0 9 0ZM9 0.9C9 3.04825 8.14661 5.10852 6.62756 6.62756C5.10852 8.14661 3.04825 9 0.9 9C3.04825 9 5.10852 9.85339 6.62756 11.3724C8.14661 12.8915 9 14.9517 9 17.1C9 14.9517 9.85339 12.8915 11.3724 11.3724C12.8915 9.85339 14.9517 9 17.1 9C14.9517 9 12.8915 8.14661 11.3724 6.62756C9.85339 5.10852 9 3.04825 9 0.9Z" fill="#979797"/>
</svg>
