<svg width="20" height="14" viewBox="0 0 20 14" fill="none" xmlns="http://www.w3.org/2000/svg">
<path d="M1.99935 5.66634H17.9993C18.353 5.66634 18.6921 5.80682 18.9422 6.05687C19.1922 6.30691 19.3327 6.64605 19.3327 6.99967C19.3327 7.3533 19.1922 7.69243 18.9422 7.94248C18.6921 8.19253 18.353 8.33301 17.9993 8.33301H1.99935C1.64573 8.33301 1.30659 8.19253 1.05654 7.94248C0.806491 7.69243 0.666016 7.3533 0.666016 6.99967C0.666016 6.64605 0.806491 6.30691 1.05654 6.05687C1.30659 5.80682 1.64573 5.66634 1.99935 5.66634Z" fill="#979797"/>
<path d="M17.9993 0.333008H1.99935C1.64573 0.333008 1.30659 0.473484 1.05654 0.723532C0.806491 0.973581 0.666016 1.31272 0.666016 1.66634C0.666016 2.01996 0.806491 2.3591 1.05654 2.60915C1.30659 2.8592 1.64573 2.99967 1.99935 2.99967H17.9993C18.353 2.99967 18.6921 2.8592 18.9422 2.60915C19.1922 2.3591 19.3327 2.01996 19.3327 1.66634C19.3327 1.31272 19.1922 0.973581 18.9422 0.723532C18.6921 0.473484 18.353 0.333008 17.9993 0.333008Z" fill="#979797"/>
<path d="M17.9993 10.9997H1.99935C1.64573 10.9997 1.30659 11.1402 1.05654 11.3902C0.806491 11.6402 0.666016 11.9794 0.666016 12.333C0.666016 12.6866 0.806491 13.0258 1.05654 13.2758C1.30659 13.5259 1.64573 13.6663 1.99935 13.6663H17.9993C18.353 13.6663 18.6921 13.5259 18.9422 13.2758C19.1922 13.0258 19.3327 12.6866 19.3327 12.333C19.3327 11.9794 19.1922 11.6402 18.9422 11.3902C18.6921 11.1402 18.353 10.9997 17.9993 10.9997Z" fill="#979797"/>
</svg>
