<svg width="24" height="24" viewBox="0 0 24 24" fill="none" xmlns="http://www.w3.org/2000/svg">
<g clip-path="url(#clip0_12575_17201)">
<path d="M18.6666 2.66669H7.99996C7.64634 2.66669 7.3072 2.80716 7.05715 3.05721C6.8071 3.30726 6.66663 3.6464 6.66663 4.00002V8.66669H12.3333L10.08 6.47335C9.97074 6.34582 9.91367 6.18177 9.92015 6.01398C9.92663 5.8462 9.99619 5.68704 10.1149 5.56831C10.2336 5.44958 10.3928 5.38003 10.5606 5.37355C10.7284 5.36707 10.8924 5.42414 11.02 5.53335L14.88 9.39335L11.02 13.2534C10.8924 13.3626 10.7284 13.4196 10.5606 13.4132C10.3928 13.4067 10.2336 13.3371 10.1149 13.2184C9.99619 13.0997 9.92663 12.9405 9.92015 12.7727C9.91367 12.6049 9.97074 12.4409 10.08 12.3134L12.3333 10H6.66663V20C6.66663 20.3536 6.8071 20.6928 7.05715 20.9428C7.3072 21.1929 7.64634 21.3334 7.99996 21.3334H18.6666C19.0202 21.3334 19.3594 21.1929 19.6094 20.9428C19.8595 20.6928 20 20.3536 20 20V4.00002C20 3.6464 19.8595 3.30726 19.6094 3.05721C19.3594 2.80716 19.0202 2.66669 18.6666 2.66669Z" fill="#979797"/>
<path d="M6.66667 8.66669H2.66667C2.48986 8.66669 2.32029 8.73693 2.19526 8.86195C2.07024 8.98697 2 9.15654 2 9.33335C2 9.51016 2.07024 9.67973 2.19526 9.80476C2.32029 9.92978 2.48986 10 2.66667 10H6.66667V8.66669Z" fill="#979797"/>
</g>
<defs>
<clipPath id="clip0_12575_17201">
<rect width="24" height="24" fill="white"/>
</clipPath>
</defs>
</svg>
