<svg width="24" height="24" viewBox="0 0 24 24" fill="none" xmlns="http://www.w3.org/2000/svg">
<g clip-path="url(#clip0_7068_8524)">
<path d="M18.667 2.66675H8.00033C7.6467 2.66675 7.30757 2.80722 7.05752 3.05727C6.80747 3.30732 6.66699 3.64646 6.66699 4.00008V8.66675H12.3337L10.0803 6.47341C9.97111 6.34588 9.91404 6.18183 9.92052 6.01405C9.927 5.84626 9.99655 5.6871 10.1153 5.56837C10.234 5.44964 10.3932 5.38009 10.561 5.37361C10.7287 5.36713 10.8928 5.4242 11.0203 5.53341L14.8803 9.39341L11.0203 13.2534C10.8928 13.3626 10.7287 13.4197 10.561 13.4132C10.3932 13.4067 10.234 13.3372 10.1153 13.2185C9.99655 13.0997 9.927 12.9406 9.92052 12.7728C9.91404 12.605 9.97111 12.4409 10.0803 12.3134L12.3337 10.0001H6.66699V20.0001C6.66699 20.3537 6.80747 20.6928 7.05752 20.9429C7.30757 21.1929 7.6467 21.3334 8.00033 21.3334H18.667C19.0206 21.3334 19.3598 21.1929 19.6098 20.9429C19.8598 20.6928 20.0003 20.3537 20.0003 20.0001V4.00008C20.0003 3.64646 19.8598 3.30732 19.6098 3.05727C19.3598 2.80722 19.0206 2.66675 18.667 2.66675Z" fill="#0D9563"/>
<path d="M6.66667 8.66675H2.66667C2.48986 8.66675 2.32029 8.73699 2.19526 8.86201C2.07024 8.98703 2 9.1566 2 9.33341C2 9.51023 2.07024 9.67979 2.19526 9.80482C2.32029 9.92984 2.48986 10.0001 2.66667 10.0001H6.66667V8.66675Z" fill="#0D9563"/>
</g>
<defs>
<clipPath id="clip0_7068_8524">
<rect width="24" height="24" fill="white"/>
</clipPath>
</defs>
</svg>
