<svg width="24" height="24" viewBox="0 0 24 24" fill="none" xmlns="http://www.w3.org/2000/svg">
<g clip-path="url(#clip0_7068_15619)">
<path d="M18.6666 2.66675H7.99996C7.64634 2.66675 7.3072 2.80722 7.05715 3.05727C6.8071 3.30732 6.66663 3.64646 6.66663 4.00008V8.66675H12.3333L10.08 6.47341C9.97074 6.34588 9.91367 6.18183 9.92015 6.01405C9.92663 5.84626 9.99619 5.6871 10.1149 5.56837C10.2336 5.44964 10.3928 5.38009 10.5606 5.37361C10.7284 5.36713 10.8924 5.4242 11.02 5.53341L14.88 9.39341L11.02 13.2534C10.8924 13.3626 10.7284 13.4197 10.5606 13.4132C10.3928 13.4067 10.2336 13.3372 10.1149 13.2185C9.99619 13.0997 9.92663 12.9406 9.92015 12.7728C9.91367 12.605 9.97074 12.4409 10.08 12.3134L12.3333 10.0001H6.66663V20.0001C6.66663 20.3537 6.8071 20.6928 7.05715 20.9429C7.3072 21.1929 7.64634 21.3334 7.99996 21.3334H18.6666C19.0202 21.3334 19.3594 21.1929 19.6094 20.9429C19.8595 20.6928 20 20.3537 20 20.0001V4.00008C20 3.64646 19.8595 3.30732 19.6094 3.05727C19.3594 2.80722 19.0202 2.66675 18.6666 2.66675Z" fill="#979797"/>
<path d="M6.66667 8.66675H2.66667C2.48986 8.66675 2.32029 8.73699 2.19526 8.86201C2.07024 8.98703 2 9.1566 2 9.33341C2 9.51023 2.07024 9.67979 2.19526 9.80482C2.32029 9.92984 2.48986 10.0001 2.66667 10.0001H6.66667V8.66675Z" fill="#979797"/>
</g>
<defs>
<clipPath id="clip0_7068_15619">
<rect width="24" height="24" fill="white"/>
</clipPath>
</defs>
</svg>
