<svg width="28" height="28" viewBox="0 0 28 28" fill="none" xmlns="http://www.w3.org/2000/svg">
<path d="M3.5 12.8333H12.8333V3.5H3.5V12.8333ZM5.83333 5.83333H10.5V10.5H5.83333V5.83333ZM3.5 24.5H12.8333V15.1667H3.5V24.5ZM5.83333 17.5H10.5V22.1667H5.83333V17.5ZM15.1667 3.5V12.8333H24.5V3.5H15.1667ZM22.1667 10.5H17.5V5.83333H22.1667V10.5ZM15.1783 15.1667H17.5117V17.5H15.1783V15.1667ZM17.5117 17.5H19.845V19.8333H17.5117V17.5ZM15.1783 19.8333H17.5117V22.1667H15.1783V19.8333ZM19.845 19.8333H22.1783V22.1667H19.845V19.8333ZM22.1783 22.1667H24.5117V24.5H22.1783V22.1667ZM17.5117 22.1667H19.845V24.5H17.5117V22.1667ZM19.845 15.1667H22.1783V17.5H19.845V15.1667ZM22.1783 17.5H24.5117V19.8333H22.1783V17.5Z" fill="white"/>
</svg>
