<svg width="28" height="32" viewBox="0 0 28 32" fill="none" xmlns="http://www.w3.org/2000/svg">
<path d="M25.5 12.0311C25.5 13.3021 25.0723 14.866 24.3465 16.5896C23.6242 18.305 22.6239 20.1392 21.517 21.9393C19.3039 25.5387 16.6889 28.9635 15.0909 30.9685C14.5223 31.6771 13.4777 31.6771 12.9091 30.9685C11.3111 28.9635 8.69614 25.5387 6.48296 21.9393C5.37613 20.1392 4.37577 18.305 3.65349 16.5896C2.92775 14.866 2.5 13.3021 2.5 12.0311C2.5 5.66387 7.65236 0.5 14 0.5C20.3476 0.5 25.5 5.66387 25.5 12.0311Z" fill="url(#paint0_linear_13343_29876)" stroke="white"/>
<path d="M14.0056 18.169C13.2201 18.1657 12.5489 17.9586 11.9921 17.5476C11.4353 17.1366 11.0094 16.5384 10.7144 15.7528C10.4194 14.9673 10.2719 14.0211 10.2719 12.9141C10.2719 11.8104 10.4194 10.8674 10.7144 10.0852C11.0127 9.30303 11.4403 8.70644 11.9971 8.29545C12.5572 7.88447 13.2267 7.67898 14.0056 7.67898C14.7845 7.67898 15.4523 7.88613 16.0091 8.30043C16.566 8.71141 16.9919 9.308 17.2868 10.0902C17.5851 10.8691 17.7343 11.8104 17.7343 12.9141C17.7343 14.0244 17.5868 14.9723 17.2918 15.7578C16.9968 16.54 16.5709 17.1383 16.0141 17.5526C15.4573 17.9635 14.7878 18.169 14.0056 18.169ZM14.0056 16.8416C14.695 16.8416 15.2336 16.5052 15.6214 15.8324C16.0125 15.1596 16.208 14.1868 16.208 12.9141C16.208 12.0689 16.1185 11.3546 15.9395 10.7713C15.7639 10.1847 15.5103 9.74053 15.1789 9.43892C14.8508 9.134 14.4597 8.98153 14.0056 8.98153C13.3195 8.98153 12.7809 9.3196 12.3898 9.99574C11.9987 10.6719 11.8015 11.6446 11.7982 12.9141C11.7982 13.7625 11.886 14.4801 12.0617 15.0668C12.2407 15.6501 12.4942 16.0926 12.8224 16.3942C13.1505 16.6925 13.5449 16.8416 14.0056 16.8416Z" fill="white"/>
<defs>
<linearGradient id="paint0_linear_13343_29876" x1="14" y1="0" x2="14" y2="32" gradientUnits="userSpaceOnUse">
<stop stop-color="#FDD924"/>
<stop offset="1" stop-color="#FF6700"/>
</linearGradient>
</defs>
</svg>
