<svg width="24" height="32" viewBox="0 0 24 32" fill="none" xmlns="http://www.w3.org/2000/svg">
<path d="M23.5 12.0311C23.5 13.3021 23.0723 14.866 22.3465 16.5896C21.6242 18.305 20.6239 20.1392 19.517 21.9393C17.3039 25.5387 14.6889 28.9635 13.0909 30.9685C12.5223 31.6771 11.4777 31.6771 10.9091 30.9685C9.31114 28.9635 6.69614 25.5387 4.48296 21.9393C3.37613 20.1392 2.37577 18.305 1.65349 16.5896C0.927748 14.866 0.5 13.3021 0.5 12.0311C0.5 5.66387 5.65236 0.5 12 0.5C18.3476 0.5 23.5 5.66387 23.5 12.0311Z" fill="url(#paint0_linear_3687_11795)" stroke="white"/>
<defs>
<linearGradient id="paint0_linear_3687_11795" x1="12" y1="0" x2="12" y2="32" gradientUnits="userSpaceOnUse">
<stop stop-color="#11998E"/>
<stop offset="1" stop-color="#38EF7D"/>
</linearGradient>
</defs>
</svg>
