<svg width="12" height="12" viewBox="0 0 12 12" fill="none" xmlns="http://www.w3.org/2000/svg">
<path d="M11.0625 3.9375H0.9375C0.788316 3.9375 0.645242 3.87824 0.539752 3.77275C0.434263 3.66726 0.375 3.52418 0.375 3.375C0.375 3.22582 0.434263 3.08274 0.539752 2.97725C0.645242 2.87176 0.788316 2.8125 0.9375 2.8125H11.0625C11.2117 2.8125 11.3548 2.87176 11.4602 2.97725C11.5657 3.08274 11.625 3.22582 11.625 3.375C11.625 3.52418 11.5657 3.66726 11.4602 3.77275C11.3548 3.87824 11.2117 3.9375 11.0625 3.9375ZM9.1875 6.5625H2.8125C2.66332 6.5625 2.52024 6.50324 2.41475 6.39775C2.30926 6.29226 2.25 6.14918 2.25 6C2.25 5.85082 2.30926 5.70774 2.41475 5.60225C2.52024 5.49676 2.66332 5.4375 2.8125 5.4375H9.1875C9.33668 5.4375 9.47976 5.49676 9.58525 5.60225C9.69074 5.70774 9.75 5.85082 9.75 6C9.75 6.14918 9.69074 6.29226 9.58525 6.39775C9.47976 6.50324 9.33668 6.5625 9.1875 6.5625ZM6.9375 9.1875H5.0625C4.91332 9.1875 4.77024 9.12824 4.66475 9.02275C4.55926 8.91726 4.5 8.77418 4.5 8.625C4.5 8.47582 4.55926 8.33274 4.66475 8.22725C4.77024 8.12176 4.91332 8.0625 5.0625 8.0625H6.9375C7.08668 8.0625 7.22976 8.12176 7.33525 8.22725C7.44074 8.33274 7.5 8.47582 7.5 8.625C7.5 8.77418 7.44074 8.91726 7.33525 9.02275C7.22976 9.12824 7.08668 9.1875 6.9375 9.1875Z" fill="url(#paint0_linear_5582_20017)"/>
<path d="M11.0625 3.9375H0.9375C0.788316 3.9375 0.645242 3.87824 0.539752 3.77275C0.434263 3.66726 0.375 3.52418 0.375 3.375C0.375 3.22582 0.434263 3.08274 0.539752 2.97725C0.645242 2.87176 0.788316 2.8125 0.9375 2.8125H11.0625C11.2117 2.8125 11.3548 2.87176 11.4602 2.97725C11.5657 3.08274 11.625 3.22582 11.625 3.375C11.625 3.52418 11.5657 3.66726 11.4602 3.77275C11.3548 3.87824 11.2117 3.9375 11.0625 3.9375ZM9.1875 6.5625H2.8125C2.66332 6.5625 2.52024 6.50324 2.41475 6.39775C2.30926 6.29226 2.25 6.14918 2.25 6C2.25 5.85082 2.30926 5.70774 2.41475 5.60225C2.52024 5.49676 2.66332 5.4375 2.8125 5.4375H9.1875C9.33668 5.4375 9.47976 5.49676 9.58525 5.60225C9.69074 5.70774 9.75 5.85082 9.75 6C9.75 6.14918 9.69074 6.29226 9.58525 6.39775C9.47976 6.50324 9.33668 6.5625 9.1875 6.5625ZM6.9375 9.1875H5.0625C4.91332 9.1875 4.77024 9.12824 4.66475 9.02275C4.55926 8.91726 4.5 8.77418 4.5 8.625C4.5 8.47582 4.55926 8.33274 4.66475 8.22725C4.77024 8.12176 4.91332 8.0625 5.0625 8.0625H6.9375C7.08668 8.0625 7.22976 8.12176 7.33525 8.22725C7.44074 8.33274 7.5 8.47582 7.5 8.625C7.5 8.77418 7.44074 8.91726 7.33525 9.02275C7.22976 9.12824 7.08668 9.1875 6.9375 9.1875Z" fill="white"/>
<defs>
<linearGradient id="paint0_linear_5582_20017" x1="6" y1="2.8125" x2="6" y2="9.1875" gradientUnits="userSpaceOnUse">
<stop stop-color="#43C6AC"/>
<stop offset="1" stop-color="#F8FFAE"/>
</linearGradient>
</defs>
</svg>
