<svg width="28" height="28" viewBox="0 0 28 28" fill="none" xmlns="http://www.w3.org/2000/svg">
<path d="M13.9998 2.33337C14.2856 2.33341 14.5614 2.43832 14.7749 2.62821C14.9885 2.81809 15.1249 3.07975 15.1583 3.36354L15.1665 3.50004V5.03304C17.1451 5.29114 18.9828 6.19613 20.3935 7.60713C21.8043 9.01813 22.709 10.856 22.9668 12.8345L24.4998 12.8334C24.7972 12.8337 25.0832 12.9476 25.2994 13.1517C25.5157 13.3558 25.6458 13.6348 25.6632 13.9317C25.6806 14.2285 25.5841 14.5208 25.3932 14.7488C25.2023 14.9769 24.9316 15.1234 24.6363 15.1585L24.4998 15.1667H22.9668C22.7088 17.1451 21.804 18.9826 20.3932 20.3934C18.9825 21.8042 17.1449 22.709 15.1665 22.967V24.5C15.1662 24.7974 15.0523 25.0834 14.8482 25.2996C14.6441 25.5159 14.3651 25.646 14.0682 25.6634C13.7714 25.6808 13.4791 25.5843 13.251 25.3934C13.023 25.2025 12.8765 24.9318 12.8413 24.6365L12.8332 24.5V22.967C10.855 22.7088 9.01772 21.8038 7.60718 20.3931C6.19665 18.9823 5.292 17.1449 5.03401 15.1667H3.49985C3.20249 15.1664 2.91648 15.0525 2.70025 14.8484C2.48403 14.6443 2.35391 14.3653 2.33648 14.0684C2.31905 13.7716 2.41563 13.4793 2.60649 13.2512C2.79734 13.0232 3.06807 12.8767 3.36335 12.8415L3.49985 12.8334H5.03285C5.29113 10.8552 6.19605 9.01791 7.6068 7.60738C9.01754 6.19684 10.855 5.29219 12.8332 5.03421V3.50004C12.8332 3.19062 12.9561 2.89388 13.1749 2.67508C13.3937 2.45629 13.6904 2.33337 13.9998 2.33337ZM13.9998 7.29171C12.2207 7.29171 10.5144 7.99848 9.25634 9.25653C7.99828 10.5146 7.29151 12.2209 7.29151 14C7.29151 15.7792 7.99828 17.4855 9.25634 18.7436C10.5144 20.0016 12.2207 20.7084 13.9998 20.7084C15.779 20.7084 17.4853 20.0016 18.7434 18.7436C20.0014 17.4855 20.7082 15.7792 20.7082 14C20.7082 12.2209 20.0014 10.5146 18.7434 9.25653C17.4853 7.99848 15.779 7.29171 13.9998 7.29171ZM13.9998 9.33337C15.2375 9.33337 16.4245 9.82504 17.2997 10.7002C18.1748 11.5754 18.6665 12.7624 18.6665 14C18.6665 15.2377 18.1748 16.4247 17.2997 17.2999C16.4245 18.175 15.2375 18.6667 13.9998 18.6667C12.7622 18.6667 11.5752 18.175 10.7 17.2999C9.82485 16.4247 9.33318 15.2377 9.33318 14C9.33318 12.7624 9.82485 11.5754 10.7 10.7002C11.5752 9.82504 12.7622 9.33337 13.9998 9.33337Z" fill="white"/>
</svg>
