<svg width="20" height="20" viewBox="0 0 20 20" fill="none" xmlns="http://www.w3.org/2000/svg">
<path d="M0.357955 19L2.53977 5.90909H6.17045L3.98864 19H0.357955ZM4.73011 4.20454C4.19034 4.20454 3.74432 4.02557 3.39205 3.66761C3.04545 3.30398 2.90341 2.87216 2.96591 2.37216C3.02841 1.8608 3.27273 1.42898 3.69886 1.0767C4.125 0.718749 4.60795 0.539772 5.14773 0.539772C5.6875 0.539772 6.12784 0.718749 6.46875 1.0767C6.80966 1.42898 6.9517 1.8608 6.89489 2.37216C6.83807 2.87216 6.59659 3.30398 6.17045 3.66761C5.75 4.02557 5.26989 4.20454 4.73011 4.20454ZM10.4862 13.767L10.5458 13.4347C10.7163 12.4517 10.9379 11.6676 11.2106 11.0824C11.489 10.4972 11.8242 10.0256 12.2163 9.66761C12.6083 9.30398 13.0629 8.97443 13.5799 8.67898C13.9606 8.4517 14.3129 8.21591 14.6367 7.97159C14.9606 7.72727 15.2277 7.45739 15.4379 7.16193C15.6538 6.8608 15.7902 6.52557 15.847 6.15625C15.9095 5.7642 15.8725 5.42045 15.7362 5.125C15.5998 4.82955 15.3896 4.60227 15.1055 4.44318C14.8214 4.28409 14.4862 4.20454 14.0998 4.20454C13.7305 4.20454 13.3669 4.28693 13.0089 4.4517C12.6509 4.6108 12.3384 4.84943 12.0714 5.16761C11.81 5.48011 11.6367 5.86932 11.5515 6.33523H8.07424C8.28447 5.19886 8.70777 4.26136 9.34413 3.52273C9.98618 2.77841 10.7617 2.22443 11.6708 1.86079C12.5856 1.49148 13.5629 1.30682 14.6027 1.30682C15.722 1.30682 16.685 1.49432 17.4919 1.86932C18.2987 2.23864 18.8896 2.77557 19.2646 3.48011C19.6453 4.18466 19.7532 5.03409 19.5884 6.02841C19.4805 6.69886 19.2759 7.29261 18.9748 7.80966C18.6794 8.32102 18.3015 8.77557 17.8413 9.1733C17.3811 9.56534 16.8583 9.91477 16.2731 10.2216C15.7845 10.4886 15.3725 10.767 15.0373 11.0568C14.7021 11.3409 14.4322 11.6733 14.2277 12.054C14.0231 12.429 13.8725 12.8892 13.7759 13.4347L13.7163 13.767H10.4862ZM11.4322 19.2216C10.8583 19.2216 10.3867 19.0227 10.0174 18.625C9.65379 18.2273 9.48902 17.7443 9.52311 17.1761C9.56288 16.6136 9.79868 16.1392 10.2305 15.7528C10.668 15.3608 11.1708 15.1648 11.739 15.1648C12.2845 15.1648 12.7447 15.3608 13.1197 15.7528C13.4947 16.1449 13.6595 16.6193 13.614 17.1761C13.5856 17.5511 13.4634 17.8949 13.2475 18.2074C13.0373 18.5142 12.7703 18.7614 12.4464 18.9489C12.1225 19.1307 11.7845 19.2216 11.4322 19.2216Z" fill="white"/>
</svg>
