<svg width="28" height="32" viewBox="0 0 28 32" fill="none" xmlns="http://www.w3.org/2000/svg">
<path d="M25.5 12.0311C25.5 13.3021 25.0723 14.866 24.3465 16.5896C23.6242 18.305 22.6239 20.1392 21.517 21.9393C19.3039 25.5387 16.6889 28.9635 15.0909 30.9685C14.5223 31.6771 13.4777 31.6771 12.9091 30.9685C11.3111 28.9635 8.69614 25.5387 6.48296 21.9393C5.37613 20.1392 4.37577 18.305 3.65349 16.5896C2.92775 14.866 2.5 13.3021 2.5 12.0311C2.5 5.66387 7.65236 0.5 14 0.5C20.3476 0.5 25.5 5.66387 25.5 12.0311Z" fill="url(#paint0_linear_7808_41345)" stroke="white"/>
<path d="M15.0337 7.81818V18H13.4925V9.35938H13.4329L10.9968 10.9503V9.47869L13.5373 7.81818H15.0337Z" fill="white"/>
<defs>
<linearGradient id="paint0_linear_7808_41345" x1="14" y1="0" x2="14" y2="32" gradientUnits="userSpaceOnUse">
<stop stop-color="#11998E"/>
<stop offset="1" stop-color="#38EF7D"/>
</linearGradient>
</defs>
</svg>
