<svg width="38" height="38" viewBox="0 0 38 38" fill="none" xmlns="http://www.w3.org/2000/svg">
<path d="M37.05 19C37.5747 19 38.0025 18.5744 37.9763 18.0504C37.8676 15.8797 37.3872 13.7413 36.5537 11.729C35.5989 9.42383 34.1993 7.32928 32.435 5.56497C30.6707 3.80066 28.5762 2.40113 26.271 1.44629C24.2587 0.612771 22.1203 0.132368 19.9496 0.0237446C19.4256 -0.00247775 19 0.425329 19 0.95C19 1.47467 19.4257 1.89725 19.9495 1.92638C21.8706 2.03322 23.7621 2.46364 25.5439 3.20166C27.6186 4.06101 29.5036 5.32059 31.0915 6.90847C32.6794 8.49636 33.939 10.3814 34.7983 12.4561C35.5364 14.2378 35.9668 16.1294 36.0736 18.0505C36.1028 18.5743 36.5253 19 37.05 19Z" fill="#3AE180"/>
<path d="M0.999999 19C0.999999 9.0588 9.05888 1 19 0.999999C28.9412 0.999999 37 9.0588 37 19C37 28.9411 28.9412 37 19 37C9.05888 37 1 28.9411 0.999999 19Z" stroke="white" stroke-opacity="0.3" stroke-width="2" stroke-linecap="round"/>
</svg>
