<svg width="23" height="37" viewBox="0 0 23 37" fill="none" xmlns="http://www.w3.org/2000/svg">
<path d="M7.51349 25.7386V25.2955C7.52486 23.2386 7.71804 21.6023 8.09304 20.3864C8.4794 19.1705 9.02486 18.1932 9.7294 17.4545C10.4339 16.7045 11.2919 16.017 12.3033 15.392C12.9964 14.9602 13.6158 14.4886 14.1612 13.9773C14.718 13.4545 15.1555 12.875 15.4737 12.2386C15.7919 11.5909 15.951 10.8693 15.951 10.0739C15.951 9.17614 15.7408 8.39773 15.3203 7.73864C14.8999 7.07955 14.3317 6.56818 13.6158 6.20455C12.9112 5.84091 12.1214 5.65909 11.2464 5.65909C10.4396 5.65909 9.67259 5.83523 8.94531 6.1875C8.2294 6.52841 7.63281 7.05114 7.15554 7.75568C6.68963 8.44886 6.42827 9.32955 6.37145 10.3977H0.303267C0.360085 8.23864 0.882813 6.43182 1.87145 4.97727C2.87145 3.52273 4.18963 2.43182 5.82599 1.70454C7.47372 0.977271 9.2919 0.613635 11.2805 0.613635C13.451 0.613635 15.3601 0.994317 17.0078 1.75568C18.6669 2.51705 19.9567 3.60227 20.8771 5.01136C21.8089 6.40909 22.2749 8.06818 22.2749 9.98864C22.2749 11.2841 22.0646 12.4432 21.6442 13.4659C21.2351 14.4886 20.6499 15.3977 19.8885 16.1932C19.1271 16.9886 18.2237 17.6989 17.1783 18.3239C16.2578 18.892 15.5021 19.483 14.9112 20.0966C14.3317 20.7102 13.8999 21.4318 13.6158 22.2614C13.343 23.0795 13.201 24.0909 13.1896 25.2955V25.7386H7.51349ZM10.4794 36.375C9.45668 36.375 8.57599 36.0114 7.83736 35.2841C7.09872 34.5568 6.7294 33.6705 6.7294 32.625C6.7294 31.6023 7.09872 30.7273 7.83736 30C8.57599 29.2727 9.45668 28.9091 10.4794 28.9091C11.4908 28.9091 12.3658 29.2727 13.1044 30C13.8544 30.7273 14.2294 31.6023 14.2294 32.625C14.2294 33.3182 14.0533 33.9489 13.701 34.517C13.3601 35.0852 12.9055 35.5398 12.3374 35.8807C11.7805 36.2102 11.1612 36.375 10.4794 36.375Z" fill="#64B5F6"/>
</svg>
