<svg width="83" height="83" viewBox="0 0 83 83" fill="none" xmlns="http://www.w3.org/2000/svg">
<path d="M50.4492 55.3161L55.3393 50.4277L76.1222 71.2106L71.2321 76.0989L50.4492 55.3161Z" fill="#616161"/>
<path d="M34.5837 62.25C49.8635 62.25 62.2503 49.8632 62.2503 34.5834C62.2503 19.3035 49.8635 6.91669 34.5837 6.91669C19.3038 6.91669 6.91699 19.3035 6.91699 34.5834C6.91699 49.8632 19.3038 62.25 34.5837 62.25Z" fill="#616161"/>
<path d="M56.1113 61.1088L60.9997 56.2187L76.0365 71.2555L71.1464 76.1456L56.1113 61.1088Z" fill="#37474F"/>
<path d="M34.5837 57.0625C46.9986 57.0625 57.0628 46.9983 57.0628 34.5834C57.0628 22.1685 46.9986 12.1042 34.5837 12.1042C22.1688 12.1042 12.1045 22.1685 12.1045 34.5834C12.1045 46.9983 22.1688 57.0625 34.5837 57.0625Z" fill="#64B5F6"/>
<path d="M46.5147 24.5541C43.5751 21.0958 39.2522 19.0208 34.5835 19.0208C29.9147 19.0208 25.5918 21.0958 22.6522 24.5541C21.9606 25.2458 22.1335 26.4562 22.8251 26.975C23.5168 27.6666 24.7272 27.4937 25.246 26.8021C27.6668 24.0354 30.9522 22.4791 34.5835 22.4791C38.2147 22.4791 41.5001 24.0354 43.921 26.8021C44.2668 27.1479 44.7856 27.4937 45.3043 27.4937C45.6501 27.4937 46.1689 27.3208 46.3418 27.1479C47.0335 26.4562 47.0335 25.2458 46.5147 24.5541Z" fill="#BBDEFB"/>
</svg>
