<svg width="26" height="24" viewBox="0 0 26 24" fill="none" xmlns="http://www.w3.org/2000/svg">
<path d="M25.0669 20.9425L14.4151 1.16125C13.6601 -0.24125 11.6488 -0.24125 10.8932 1.16125L0.241948 20.9425C0.0780187 21.247 -0.00416808 21.5887 0.00341012 21.9345C0.0109883 22.2802 0.108073 22.618 0.285187 22.915C0.462301 23.212 0.713393 23.458 1.01395 23.629C1.31452 23.8 1.65428 23.8901 2.00007 23.8906H23.3057C23.6518 23.8907 23.9919 23.8009 24.2929 23.6302C24.5939 23.4594 24.8454 23.2134 25.0229 22.9163C25.2004 22.6193 25.2978 22.2812 25.3055 21.9352C25.3132 21.5893 25.231 21.2472 25.0669 20.9425ZM12.6544 20.8281C12.4072 20.8281 12.1655 20.7548 11.96 20.6175C11.7544 20.4801 11.5942 20.2849 11.4996 20.0565C11.405 19.8281 11.3802 19.5767 11.4285 19.3343C11.4767 19.0918 11.5957 18.8691 11.7706 18.6942C11.9454 18.5194 12.1681 18.4004 12.4106 18.3521C12.6531 18.3039 12.9044 18.3287 13.1328 18.4233C13.3612 18.5179 13.5564 18.6781 13.6938 18.8837C13.8311 19.0892 13.9044 19.3309 13.9044 19.5781C13.9044 19.9096 13.7728 20.2276 13.5383 20.462C13.3039 20.6964 12.986 20.8281 12.6544 20.8281ZM14.0119 8.25625L13.6532 15.8813C13.6532 16.1465 13.5478 16.4008 13.3603 16.5884C13.1728 16.7759 12.9184 16.8813 12.6532 16.8813C12.388 16.8813 12.1336 16.7759 11.9461 16.5884C11.7586 16.4008 11.6532 16.1465 11.6532 15.8813L11.2944 8.25937C11.2864 8.07724 11.3151 7.89535 11.3788 7.72454C11.4425 7.55374 11.54 7.39751 11.6654 7.26517C11.7908 7.13284 11.9416 7.0271 12.1087 6.95427C12.2758 6.88144 12.4559 6.843 12.6382 6.84125H12.6513C12.8349 6.84116 13.0165 6.87825 13.1853 6.95029C13.3542 7.02233 13.5066 7.12783 13.6335 7.26042C13.7605 7.393 13.8592 7.54993 13.9238 7.72173C13.9884 7.89353 14.0176 8.07664 14.0094 8.26L14.0119 8.25625Z" fill="#D80034"/>
</svg>
