<svg width="19" height="19" viewBox="0 0 19 19" fill="none" xmlns="http://www.w3.org/2000/svg">
<path d="M9.00008 15.6665C9.33341 15.6665 9.58342 15.6665 9.91675 15.5832C10.0001 16.1665 10.1667 16.7498 10.4167 17.1665C10.0001 17.2498 9.50008 17.3332 9.00008 17.3332C4.41675 17.3332 0.666748 13.5832 0.666748 8.99984C0.666748 4.4165 4.41675 0.666504 9.00008 0.666504C13.5834 0.666504 17.3334 4.4165 17.3334 8.99984C17.3334 9.4165 17.2667 9.80817 17.2001 10.2498L17.1667 10.4165C16.6667 10.1665 16.1667 9.99984 15.5834 9.9165C15.6667 9.58317 15.6667 9.33317 15.6667 8.99984C15.6667 5.33317 12.6667 2.33317 9.00008 2.33317C5.33341 2.33317 2.33341 5.33317 2.33341 8.99984C2.33341 12.6665 5.33341 15.6665 9.00008 15.6665ZM9.41675 9.24984L12.0001 10.7498C11.6667 10.9998 11.3334 11.2498 11.0834 11.5832L8.16675 9.83317V4.83317H9.41675V9.24984ZM13.7834 13.7915L14.8334 11.4998L15.8751 13.7915L18.1667 14.8332L15.8751 15.8832L14.8334 18.1665L13.7834 15.8832L11.5001 14.8332L13.7834 13.7915Z" fill="#00226D"/>
</svg>
