<svg width="12" height="14" viewBox="0 0 12 14" fill="none" xmlns="http://www.w3.org/2000/svg">
<path fill-rule="evenodd" clip-rule="evenodd" d="M2.83 0.333496H9.17C9.94267 0.333496 10.3287 0.333496 10.6407 0.442163C10.9348 0.546421 11.201 0.717105 11.4185 0.940951C11.636 1.1648 11.7989 1.43578 11.8947 1.73283C12 2.05416 12 2.4515 12 3.24683V12.5828C12 13.1548 11.3433 13.4588 10.928 13.0788C10.8115 12.9712 10.6587 12.9114 10.5 12.9114C10.3413 12.9114 10.1885 12.9712 10.072 13.0788L9.75 13.3735C9.54586 13.5623 9.27804 13.6671 9 13.6671C8.72196 13.6671 8.45414 13.5623 8.25 13.3735C8.04586 13.1847 7.77804 13.0799 7.5 13.0799C7.22196 13.0799 6.95414 13.1847 6.75 13.3735C6.54586 13.5623 6.27804 13.6671 6 13.6671C5.72196 13.6671 5.45414 13.5623 5.25 13.3735C5.04586 13.1847 4.77804 13.0799 4.5 13.0799C4.22196 13.0799 3.95414 13.1847 3.75 13.3735C3.54586 13.5623 3.27804 13.6671 3 13.6671C2.72196 13.6671 2.45414 13.5623 2.25 13.3735L1.928 13.0788C1.81148 12.9712 1.65865 12.9114 1.5 12.9114C1.34135 12.9114 1.18852 12.9712 1.072 13.0788C0.656667 13.4588 0 13.1548 0 12.5828V3.24683C0 2.4515 -9.93411e-09 2.0535 0.105333 1.7335C0.305333 1.12483 0.768667 0.647496 1.35933 0.442163C1.67133 0.333496 2.05733 0.333496 2.83 0.333496ZM8.04 4.66683C8.08377 4.6178 8.11746 4.56063 8.13914 4.49859C8.16082 4.43654 8.17007 4.37083 8.16636 4.30521C8.16264 4.23959 8.14604 4.17535 8.1175 4.11614C8.08895 4.05694 8.04903 4.00394 8 3.96016C7.95097 3.91639 7.8938 3.8827 7.83176 3.86102C7.76971 3.83934 7.704 3.83009 7.63838 3.83381C7.57276 3.83752 7.50852 3.85412 7.44931 3.88267C7.39011 3.91121 7.33711 3.95114 7.29333 4.00016L5.286 6.2495L4.706 5.60016C4.61736 5.50221 4.49355 5.44332 4.36163 5.43636C4.22971 5.42939 4.1004 5.47492 4.00193 5.56299C3.90347 5.65106 3.84386 5.77452 3.83613 5.9064C3.8284 6.03828 3.87317 6.16786 3.96067 6.26683L4.91267 7.3335C4.95957 7.38604 5.01704 7.42808 5.08132 7.45686C5.1456 7.48564 5.21524 7.50052 5.28567 7.50052C5.3561 7.50052 5.42573 7.48564 5.49001 7.45686C5.55429 7.42808 5.61176 7.38604 5.65867 7.3335L8.04 4.66683ZM3 8.8335C2.86739 8.8335 2.74021 8.88618 2.64645 8.97994C2.55268 9.07371 2.5 9.20089 2.5 9.3335C2.5 9.4661 2.55268 9.59328 2.64645 9.68705C2.74021 9.78082 2.86739 9.8335 3 9.8335H9C9.13261 9.8335 9.25979 9.78082 9.35355 9.68705C9.44732 9.59328 9.5 9.4661 9.5 9.3335C9.5 9.20089 9.44732 9.07371 9.35355 8.97994C9.25979 8.88618 9.13261 8.8335 9 8.8335H3Z" fill="#E7F0ED"/>
</svg>
