<svg width="14" height="14" viewBox="0 0 14 14" fill="none" xmlns="http://www.w3.org/2000/svg">
<path d="M6.99999 0.166504C5.64849 0.166504 4.32733 0.567272 3.2036 1.31813C2.07986 2.06898 1.20401 3.1362 0.686816 4.38483C0.169617 5.63346 0.0342945 7.00742 0.29796 8.33295C0.561626 9.65849 1.21244 10.8761 2.1681 11.8317C3.12375 12.7874 4.34134 13.4382 5.66688 13.7019C6.99241 13.9655 8.36637 13.8302 9.615 13.313C10.8636 12.7958 11.9308 11.92 12.6817 10.7962C13.4326 9.6725 13.8333 8.35134 13.8333 6.99984C13.8316 5.18807 13.1111 3.45101 11.8299 2.16989C10.5488 0.888774 8.81176 0.168269 6.99999 0.166504ZM7.49999 10.8332V11.3598C7.49999 11.4924 7.44731 11.6196 7.35355 11.7134C7.25978 11.8072 7.1326 11.8598 6.99999 11.8598C6.86738 11.8598 6.74021 11.8072 6.64644 11.7134C6.55267 11.6196 6.49999 11.4924 6.49999 11.3598V10.8332C6.06554 10.7682 5.65857 10.5809 5.32666 10.2932C5.09002 10.0943 4.89512 9.85051 4.75324 9.57588C4.61135 9.30126 4.52528 9.00125 4.49999 8.69317C4.49156 8.59467 4.51251 8.49588 4.5602 8.40928C4.60789 8.32269 4.68019 8.25217 4.76795 8.20665C4.8557 8.16113 4.95499 8.14265 5.05325 8.15354C5.15151 8.16443 5.24433 8.20421 5.31999 8.26784C5.42205 8.35278 5.48669 8.47439 5.49999 8.6065C5.51274 8.78481 5.56122 8.95872 5.64253 9.11792C5.72384 9.27711 5.83634 9.41833 5.97333 9.53317C6.24846 9.76929 6.60479 9.88886 6.96666 9.8665C8.00666 9.8665 8.49999 9.4665 8.49999 8.65317C8.49999 8.11317 8.02666 7.53317 6.99999 7.53317C4.82666 7.53317 4.49999 6.19984 4.49999 5.43317C4.51776 4.95507 4.68207 4.49399 4.97065 4.11239C5.25923 3.7308 5.65814 3.44714 6.11333 3.29984C6.23999 3.2605 6.36866 3.23184 6.49999 3.21317V2.69317C6.49999 2.56056 6.55267 2.43339 6.64644 2.33962C6.74021 2.24585 6.86738 2.19317 6.99999 2.19317C7.1326 2.19317 7.25978 2.24585 7.35355 2.33962C7.44731 2.43339 7.49999 2.56056 7.49999 2.69317V3.23317C8.02337 3.32046 8.50323 3.57827 8.86494 3.96649C9.22664 4.35472 9.4499 4.8516 9.49999 5.37984C9.50547 5.50736 9.46197 5.63216 9.37841 5.72864C9.29484 5.82513 9.17754 5.88601 9.05054 5.89879C8.92353 5.91158 8.79645 5.87531 8.69533 5.79741C8.59421 5.71952 8.52671 5.6059 8.50666 5.47984C8.4696 5.11803 8.29576 4.78404 8.02068 4.54613C7.74559 4.30822 7.39003 4.18435 7.02666 4.19984H6.90666C6.74427 4.19856 6.58256 4.22101 6.42666 4.2665C6.25608 4.32214 6.09848 4.41163 5.96331 4.52962C5.82814 4.64761 5.71817 4.79167 5.63999 4.95317C5.55924 5.11274 5.51377 5.28781 5.50666 5.4665C5.50666 6.01317 5.68666 6.5465 7.00666 6.5465C8.64666 6.5465 9.50666 7.61317 9.50666 8.6665C9.51554 8.941 9.46979 9.21453 9.37208 9.4712C9.27437 9.72787 9.12663 9.96257 8.93746 10.1617C8.74828 10.3608 8.52144 10.5203 8.27009 10.631C8.01875 10.7417 7.74792 10.8013 7.47333 10.8065L7.49999 10.8332Z" fill="#E7F0ED"/>
</svg>
