<svg width="16" height="16" viewBox="0 0 16 16" fill="none" xmlns="http://www.w3.org/2000/svg">
<g clip-path="url(#clip0_7823_35663)">
<path d="M12.0003 3.33339H12.667V4.00006C12.667 4.17687 12.7372 4.34644 12.8623 4.47146C12.9873 4.59648 13.1569 4.66672 13.3337 4.66672C13.5105 4.66672 13.68 4.59648 13.8051 4.47146C13.9301 4.34644 14.0003 4.17687 14.0003 4.00006V3.33339H14.667C14.8438 3.33339 15.0134 3.26315 15.1384 3.13813C15.2634 3.0131 15.3337 2.84353 15.3337 2.66672C15.3337 2.48991 15.2634 2.32034 15.1384 2.19532C15.0134 2.07029 14.8438 2.00006 14.667 2.00006H14.0003V1.33339C14.0003 1.15658 13.9301 0.987009 13.8051 0.861984C13.68 0.73696 13.5105 0.666722 13.3337 0.666722C13.1569 0.666722 12.9873 0.73696 12.8623 0.861984C12.7372 0.987009 12.667 1.15658 12.667 1.33339V2.00006H12.0003C11.8235 2.00006 11.6539 2.07029 11.5289 2.19532C11.4039 2.32034 11.3337 2.48991 11.3337 2.66672C11.3337 2.84353 11.4039 3.0131 11.5289 3.13813C11.6539 3.26315 11.8235 3.33339 12.0003 3.33339ZM14.4003 6.00006C14.3145 6.01755 14.233 6.05178 14.1604 6.10078C14.0879 6.14979 14.0256 6.21261 13.9774 6.28566C13.9291 6.35872 13.8956 6.44057 13.879 6.52654C13.8623 6.61251 13.8628 6.70092 13.8803 6.78672C14.1406 8.05086 13.9863 9.36524 13.4404 10.5347C12.8945 11.7042 11.986 12.6665 10.8498 13.2788C9.71354 13.891 8.4102 14.1205 7.1332 13.9333C5.8562 13.7461 4.6736 13.152 3.76097 12.2394C2.84834 11.3268 2.25432 10.1442 2.06708 8.86718C1.87985 7.59018 2.10938 6.28684 2.72162 5.15063C3.33385 4.01442 4.29614 3.10592 5.46564 2.55998C6.63515 2.01404 7.94952 1.85976 9.21366 2.12006C9.39047 2.15542 9.57409 2.11909 9.72412 2.01907C9.87415 1.91906 9.9783 1.76353 10.0137 1.58672C10.049 1.40991 10.0127 1.22629 9.91268 1.07627C9.81266 0.926236 9.65714 0.822085 9.48033 0.786722C8.99245 0.695823 8.49648 0.655609 8.00033 0.666722C6.54993 0.666722 5.13211 1.09681 3.92615 1.90261C2.72019 2.70841 1.78025 3.85372 1.22521 5.19371C0.67017 6.5337 0.524945 8.00819 0.807903 9.43072C1.09086 10.8532 1.78929 12.1599 2.81488 13.1855C3.84046 14.2111 5.14714 14.9095 6.56967 15.1925C7.99219 15.4754 9.46668 15.3302 10.8067 14.7752C12.1467 14.2201 13.292 13.2802 14.0978 12.0742C14.9036 10.8683 15.3337 9.45045 15.3337 8.00005C15.3351 7.50744 15.2859 7.01597 15.187 6.53339C15.171 6.44639 15.1379 6.36343 15.0896 6.28935C15.0412 6.21528 14.9786 6.15157 14.9054 6.10193C14.8322 6.05229 14.7498 6.01772 14.6631 6.00023C14.5764 5.98274 14.4871 5.98268 14.4003 6.00006Z" fill="#244C66"/>
<path d="M8.0002 3.19995L6.6911 6.69086L3.2002 7.99995L6.6911 9.30904L8.0002 12.8L9.30929 9.30904L12.8002 7.99995L9.30929 6.69086L8.0002 3.19995Z" fill="#244C66"/>
</g>
<defs>
<clipPath id="clip0_7823_35663">
<rect width="16" height="16" fill="white"/>
</clipPath>
</defs>
</svg>
