<svg width="172" height="232" viewBox="0 0 172 232" fill="none" xmlns="http://www.w3.org/2000/svg">
<path d="M215.648 37.6861V37.6556L209.297 33.9954L202.976 30.3351H202.945L190.303 23.0146H190.273L183.921 19.3238L177.6 15.6636H177.57L171.248 12.0033L164.897 8.34306L158.576 4.6828H158.545L152.194 8.37356L152.087 8.44982L145.873 12.0033L139.521 15.6941L133.17 19.3543L126.848 23.0146H126.818L120.497 26.6748L114.145 30.3351V30.3656L107.794 34.0259L101.473 37.6861L95.1211 41.3464L101.473 45.0066L107.794 48.6669H107.824L114.145 52.3271L120.497 48.6669L126.818 45.0066L139.521 37.6861V37.6556L145.873 33.9954L152.194 30.3351L158.545 33.9954L164.897 37.6861L171.248 41.3464L164.927 45.0066H164.897L158.576 48.6669H158.545V48.6974L152.224 52.3576H152.194L145.873 56.0179L139.521 59.6782L133.2 63.3384L133.17 63.3689L126.848 66.9987L126.818 67.0292L120.497 70.6894L114.145 74.3497L107.794 70.6894L101.473 67.0292L101.442 66.9987L95.1211 63.3689V63.3384H95.0906L88.7695 59.6782L82.418 56.0179L76.0969 52.3576H76.0664L69.7453 48.6974L69.7149 48.6669L63.3938 45.0066H63.3633L57.0422 41.3464L69.7453 34.0259L76.0969 30.3351L82.418 26.6748L101.473 15.6941V15.6636L107.794 12.0338V12.0033H107.824L120.466 4.6828H120.497L126.818 1.02254H126.848L133.17 -2.63771V-2.66821L139.521 -6.32847L133.2 -9.98873H133.17L126.848 -13.649H126.818V-13.6795L120.497 -17.3092V-17.3397L114.145 -21L107.794 -17.3397L101.473 -13.6795V-13.649H101.442L95.1211 -9.98873H95.0906L88.7695 -6.32847L82.418 -2.66821L76.0969 0.992043V1.02254H76.0664L69.7453 4.6523V4.6828H69.7149L63.3938 8.34306H63.3633L50.7211 15.6636L44.3695 19.3238V19.3543H44.3391L38.018 23.0146L31.6664 26.6748L25.3453 30.3351H25.3149L18.9938 33.9954L12.6422 37.6556V37.6861L6.29063 41.3464L18.9938 48.6669V48.6974L25.3453 52.3576L31.6664 56.0179L50.7211 66.9987V67.0292L57.0422 70.6589V70.6894L63.3938 74.3497L69.7149 78.0099H69.7453L76.0664 81.6702H76.0969V81.7007L82.418 85.3305V85.361L88.7695 89.0212L95.0906 92.6815H95.1211L101.442 96.3417H101.473L107.794 100.002L114.145 103.662L120.497 100.002L126.818 96.3417H126.848L133.17 92.6815L145.873 85.361V85.3305L152.194 81.7007V81.6702H152.224L158.545 78.0099H158.576L164.897 74.3497L171.248 70.6894V70.6589L177.57 67.0292V66.9987H177.6L183.921 63.3384L196.624 56.0179L202.945 52.3576L209.297 48.6974V48.6669L222 41.3464L215.648 37.6861ZM126.833 30.3656V30.3351H126.864L126.833 30.3656ZM152.209 74.3497V74.3192H152.239L152.209 74.3497ZM177.585 30.3656V30.3351H177.615L177.585 30.3656ZM196.639 48.6974L196.609 48.6669H196.639V48.6974Z" fill="#0D9563"/>
<path d="M171.233 129.391L164.958 133.021H171.233V129.391ZM149.376 141.973L152.209 140.372V140.341H152.179L149.376 141.973ZM215.694 52.3729H215.664L209.312 56.0331L202.991 59.6934H202.961V59.7239L196.639 63.3537L190.288 67.0139V67.0444L183.967 70.7047H183.936L177.615 74.3649H177.585L164.943 81.6855H164.912L158.591 85.3762H158.561L152.239 89.0365H152.209L145.888 92.6967L139.536 96.357L133.215 100.017H133.185V100.048L126.864 103.677L126.833 103.708L120.512 107.368V232L126.833 228.34L133.185 224.679L139.536 220.989L145.888 217.328L152.209 213.668L158.561 210.008L164.882 206.348H164.912V206.317L171.233 202.687L171.264 202.657L177.585 198.997L183.936 195.336L190.257 191.676H190.288L196.609 188.016H196.639V187.985L202.961 184.356V184.325L209.312 180.665L215.633 177.005H215.664L221.939 173.375L221.97 173.344H222V129.33H221.97L215.648 125.7L215.679 125.67H215.603L209.388 122.086L209.495 122.009L215.74 118.425L215.77 118.395L221.985 114.811V48.7279L215.664 52.3881L215.694 52.3729ZM183.936 129.33H183.967L183.936 129.36V129.33ZM126.879 140.341L126.848 140.372V140.341H126.879ZM126.848 199.027V198.997H126.879L126.848 199.027ZM133.2 217.359V217.328H133.23L133.2 217.359ZM196.609 166.024L190.288 169.684L177.585 177.005V177.035L171.264 180.665V180.695H171.233L158.591 188.016H158.561L152.239 191.676H152.209L145.888 195.336V165.993L152.209 162.364V162.333H152.239L158.561 158.673H158.591L159.124 158.353H159.155L164.836 155.043H164.866L164.943 154.967H164.973L169.375 152.405L171.218 151.337H171.248V151.307H171.279L175.711 148.744L177.524 147.707L177.554 147.677H177.585L183.83 144.017H183.86L183.891 143.986H183.921L190.242 140.326H190.273L196.548 136.696V136.666H196.579V166.009H196.548L196.609 166.024ZM196.609 114.689L190.288 118.349H190.257L190.227 118.38L183.952 122.009L183.875 122.04H183.845L177.63 125.67H177.6V125.7H177.57L171.325 129.33H171.294V129.36H171.264V129.391L164.988 133.021H164.912L158.591 136.681L158.515 136.711L152.27 140.341H152.194L149.391 141.973L145.918 144.001V114.689L145.995 114.658L152.239 111.029V110.998H152.27L158.591 107.368L164.912 103.677H164.943L171.294 100.017L177.615 96.357L183.967 92.6967V92.6662H183.997L190.318 89.0365V89.006L196.639 85.3457H196.67V114.689H196.609Z" fill="#0D9563"/>
<path d="M101.503 103.708V103.677H101.473L95.1516 100.017L82.4484 92.6967L76.1273 89.0365L69.7758 85.3762V85.3457H69.7453L63.4242 81.6855L57.0727 78.0252L50.7516 74.3649L44.4 70.7047L38.0484 67.0139L31.6969 63.3537L25.3758 59.6934L12.6727 52.3729L6.3211 48.6821L0 45.0524V169.684L25.3758 184.325V140.341L31.6969 144.001L38.0484 147.662V147.692L50.7516 155.013L57.0727 158.673L69.7758 165.993V166.024L76.1273 169.684L82.4484 173.344V217.328L107.824 231.969V107.338L101.503 103.708ZM50.7668 140.372L50.7363 140.341H50.7668V140.372ZM82.4484 144.001L76.1273 140.341L57.0727 129.36V129.33L50.7516 125.7V125.67L38.0484 118.349L31.7273 114.689H31.6969V114.658L25.3758 111.029V89.0365L31.6969 92.6967L38.0484 96.357L44.3695 100.017H44.4L50.7516 103.708L57.0727 107.368L63.4242 111.029L69.7453 114.689H69.7758L76.0969 118.349H76.1273V118.38L82.4484 122.009V144.001Z" fill="#0D9563"/>
</svg>
