<svg width="18" height="18" viewBox="0 0 18 18" fill="none" xmlns="http://www.w3.org/2000/svg">
<path d="M9.00033 0.666504C13.6028 0.666504 17.3337 4.39734 17.3337 8.99984C17.3337 13.6023 13.6028 17.3332 9.00033 17.3332C4.39783 17.3332 0.666992 13.6023 0.666992 8.99984C0.666992 4.39734 4.39783 0.666504 9.00033 0.666504ZM9.00033 2.33317C7.23222 2.33317 5.53652 3.03555 4.28628 4.28579C3.03604 5.53603 2.33366 7.23173 2.33366 8.99984C2.33366 10.7679 3.03604 12.4636 4.28628 13.7139C5.53652 14.9641 7.23222 15.6665 9.00033 15.6665C10.7684 15.6665 12.4641 14.9641 13.7144 13.7139C14.9646 12.4636 15.667 10.7679 15.667 8.99984C15.667 7.23173 14.9646 5.53603 13.7144 4.28579C12.4641 3.03555 10.7684 2.33317 9.00033 2.33317ZM9.00033 3.99984C9.20444 3.99986 9.40144 4.0748 9.55397 4.21043C9.7065 4.34607 9.80394 4.53296 9.82783 4.73567L9.83366 4.83317V8.65484L12.0895 10.9107C12.2389 11.0606 12.3257 11.2619 12.3322 11.4735C12.3386 11.6851 12.2643 11.8913 12.1243 12.0501C11.9843 12.2089 11.789 12.3084 11.5783 12.3285C11.3675 12.3486 11.157 12.2877 10.9895 12.1582L10.9112 12.089L8.41116 9.589C8.28164 9.45938 8.19846 9.29067 8.17449 9.109L8.16699 8.99984V4.83317C8.16699 4.61216 8.25479 4.4002 8.41107 4.24392C8.56735 4.08763 8.77931 3.99984 9.00033 3.99984Z" fill="#777679"/>
</svg>
