<svg width="200" height="138" viewBox="0 0 200 138" fill="none" xmlns="http://www.w3.org/2000/svg">
<path d="M141.026 58.9752C142.035 59.3502 143.137 59.3752 144.186 59.134C148.579 58.1258 163.687 55.4552 161.062 67.1627C160.491 69.4852 151.642 82.494 164.243 87.2421C165.167 87.5946 166.143 87.7871 167.131 87.8108C171.011 87.8908 178.699 86.9746 181.917 83.6996C185.804 79.7427 181.557 81.6189 181.557 81.6189C181.557 81.6189 166.78 88.0677 161.56 81.2258C160.979 80.4646 160.609 79.359 160.504 78.4071C160.32 76.7571 161.052 74.5764 162.015 72.6777C163.318 70.1083 169.572 58.5502 155.992 55.1833C152.864 54.4383 148.321 53.7696 142.462 56.2358C139.045 57.6746 139.802 58.5202 141.026 58.9752Z" fill="#0D9463"/>
<path d="M144.049 54.6594L140.116 56.1319C138.758 56.64 138.069 58.1525 138.577 59.51L138.772 60.0313C139.281 61.3888 140.793 62.0775 142.151 61.5694L146.084 60.0975C147.442 59.5894 148.131 58.0769 147.622 56.7188L147.427 56.1982C146.919 54.84 145.407 54.1513 144.049 54.6594Z" fill="#0D9563"/>
<path d="M119.906 58.9207L106.935 63.7757C106.256 64.0294 105.911 64.7857 106.166 65.4645L106.217 65.6013C106.471 66.2801 107.227 66.6245 107.906 66.3707L120.878 61.5157C121.557 61.2613 121.901 60.5051 121.647 59.8263L121.596 59.6894C121.342 59.0107 120.586 58.6663 119.906 58.9207Z" fill="#0D9463"/>
<path d="M123.527 68.5935L110.555 73.4479C109.876 73.7023 109.532 74.4585 109.786 75.1373L109.837 75.2742C110.091 75.9529 110.847 76.2973 111.526 76.0429L124.498 71.1886C125.177 70.9342 125.521 70.1779 125.267 69.4992L125.216 69.3623C124.962 68.6836 124.205 68.3392 123.527 68.5935Z" fill="#0D9463"/>
<path d="M135.502 52.3181L124.989 56.2525C123.631 56.7606 122.942 58.2737 123.45 59.6312L127.04 69.2219C127.549 70.5794 129.061 71.2681 130.419 70.76L140.932 66.8256C142.29 66.3175 142.979 64.805 142.47 63.4469L138.881 53.8562C138.373 52.4987 136.86 51.81 135.502 52.3181Z" fill="#C5DFFF"/>
<path d="M126.076 54.8342L115.562 58.7692C114.204 59.2773 113.516 60.7898 114.024 62.148L118.306 73.5899C118.814 74.9474 120.327 75.6361 121.684 75.128L132.198 71.1936C133.556 70.6855 134.244 69.173 133.736 67.8148L129.454 56.373C128.946 55.0148 127.433 54.3261 126.076 54.8342Z" fill="#E1ECFF"/>
<path d="M134.628 69.5428C133.2 70.9714 128.915 72.4 125.7 73.4714C121.415 75.9714 119.271 75.6143 118.2 73.4714C118.043 73.3486 118 72.5227 117.843 72.4C122.486 72.0047 122.052 72.1641 124.441 70.9539C127.249 69.3473 129.881 67.5613 132.31 65.6143L134.628 69.5428Z" fill="#C5DFFF"/>
<path d="M127.722 52.5128L127.639 52.5435C126.734 52.8822 126.275 53.891 126.613 54.796L132.613 70.8253C132.952 71.7303 133.96 72.1897 134.865 71.851L134.947 71.8197C135.853 71.481 136.312 70.4728 135.973 69.5678L129.974 53.5385C129.635 52.6335 128.627 52.1741 127.722 52.5128Z" fill="#C5DFFF"/>
<path d="M20.5192 62.7608C20.5192 62.7608 41.6337 56.827 38.5682 70.4983C38.0359 72.6614 30.3727 83.7989 39.5007 89.1464C41.4607 90.2945 43.7226 90.8033 45.994 90.7914C50.0665 90.7702 56.5227 89.9864 59.4231 87.0345C63.3101 83.0777 59.0636 84.9539 59.0636 84.9539C59.0636 84.9539 46.9372 89.942 40.6987 85.9658C38.5685 84.6083 37.6029 81.9795 38.1814 79.5202C38.4771 78.2989 38.9272 77.1202 39.5212 76.0127C40.8779 73.4714 47.0787 61.8852 33.4987 58.5183C30.3704 57.7733 25.8268 57.1045 19.9682 59.5708C14.1097 62.0377 20.5192 62.7608 20.5192 62.7608Z" fill="#0D9463"/>
<path d="M62.2619 81.8948L58.3287 83.3673C56.9709 83.8754 56.2821 85.3879 56.7903 86.746L56.9853 87.2666C57.4934 88.6248 59.0061 89.3135 60.3639 88.8048L64.2971 87.3329C65.6549 86.8248 66.3436 85.3123 65.8355 83.9541L65.6405 83.4335C65.1324 82.0754 63.6197 81.3866 62.2619 81.8948Z" fill="#C5DFFF"/>
<path d="M68.907 75.4231L63.0777 77.605C61.7199 78.1131 61.0311 79.6256 61.5393 80.9837L64.3502 88.4937C64.8584 89.8518 66.371 90.5406 67.7288 90.0324L73.5581 87.8506C74.9159 87.3425 75.6045 85.83 75.0965 84.4718L72.2856 76.9618C71.7774 75.6037 70.2648 74.915 68.907 75.4231Z" fill="#C5DFFF"/>
<path d="M78.6115 69.6409L69.9185 72.8946C68.5607 73.4027 67.872 74.9152 68.3802 76.2734L72.6625 87.7152C73.1707 89.0734 74.6833 89.7621 76.0408 89.254L84.734 86.0002C86.0921 85.4921 86.7808 83.9796 86.2727 82.6215L81.9902 71.1796C81.4821 69.8215 79.9696 69.1327 78.6115 69.6409Z" fill="#E1ECFF"/>
<path d="M102.652 57.0592C102.339 57.0242 102.052 56.8699 101.85 56.6274C101.65 56.3849 101.55 56.0742 101.574 55.7599L102.222 43.9124C102.261 43.2047 102.859 42.667 103.537 42.7296L104.482 42.8171C105.16 42.8796 105.645 43.5171 105.55 44.2199L103.957 55.9799C103.92 56.293 103.764 56.5799 103.521 56.7811C103.278 56.9824 102.967 57.0817 102.652 57.0592Z" fill="#FEC272"/>
<path d="M97.0509 58.0809C96.9534 58.1096 96.8515 58.119 96.7503 58.1084C96.6497 58.0971 96.5515 58.0665 96.4628 58.0178C96.3734 57.9696 96.2953 57.904 96.2315 57.8246C96.1678 57.7459 96.1203 57.6546 96.0915 57.5578L93.7753 50.1878C93.7078 49.9784 93.7265 49.7503 93.8265 49.5546C93.9272 49.3584 94.1009 49.2103 94.3109 49.1428L94.9103 48.9615C95.0134 48.9315 95.1215 48.9234 95.2278 48.9371C95.334 48.9509 95.4359 48.9865 95.5278 49.0421C95.6197 49.0971 95.699 49.1709 95.7609 49.2584C95.8228 49.3459 95.8659 49.4453 95.8872 49.5503L97.604 57.1015C97.6522 57.304 97.6215 57.5178 97.519 57.6996C97.4165 57.8809 97.2497 58.0171 97.0509 58.0809Z" fill="#FEC272"/>
<path d="M93.9256 62.3302C93.5106 62.8446 92.6756 62.8384 92.0331 62.3165L80.6263 53.0484C79.9444 52.4946 79.7438 51.5784 80.1838 51.0334L80.7975 50.2734C81.2381 49.7277 82.1419 49.7727 82.7869 50.3715L93.5806 60.4002C94.1888 60.9646 94.3406 61.8165 93.9256 62.3302Z" fill="#FEC272"/>
<path d="M99.1983 86.2694C99.4921 86.3832 99.7302 86.6063 99.8627 86.8919C99.9958 87.1775 100.012 87.5038 99.9096 87.8013L96.2565 99.0901C96.0383 99.7644 95.3233 100.131 94.6833 99.8975L93.7915 99.5719C93.1521 99.3382 92.8452 98.5975 93.1165 97.9432L97.6608 86.9801C97.7765 86.6863 98.0002 86.4488 98.2871 86.3163C98.5733 86.1838 98.8996 86.1669 99.1983 86.2694Z" fill="#D2E9FF"/>
<path d="M104.874 86.7132C104.975 86.7101 105.077 86.7276 105.172 86.7639C105.266 86.8001 105.353 86.8545 105.427 86.9245C105.5 86.9939 105.56 87.0776 105.601 87.1701C105.642 87.2626 105.665 87.3626 105.668 87.4645L106.025 95.1814C106.037 95.4014 105.961 95.6164 105.814 95.7801C105.667 95.9445 105.46 96.0432 105.241 96.0551L104.615 96.077C104.507 96.0795 104.401 96.0601 104.302 96.0195C104.202 95.9789 104.113 95.9182 104.038 95.8414C103.964 95.7645 103.905 95.6732 103.868 95.5726C103.831 95.472 103.815 95.3651 103.82 95.2582L104.089 87.5195C104.095 87.3107 104.179 87.112 104.324 86.9626C104.47 86.8132 104.666 86.7245 104.874 86.7132Z" fill="#D2E9FF"/>
<path d="M108.981 83.4007C109.514 83.0095 110.319 83.2288 110.807 83.8976L119.469 95.7713C119.986 96.4807 119.947 97.4176 119.382 97.8326L118.594 98.4107C118.029 98.8257 117.166 98.5513 116.696 97.8076L108.821 85.3551C108.378 84.6545 108.449 83.792 108.981 83.4007Z" fill="#D2E9FF"/>
<path d="M86.4146 85.3864C85.1988 86.3429 81.5517 87.2995 78.8158 88.0169C75.1687 89.6909 73.3447 89.4517 72.4329 88.0169C72.2989 87.9347 72.2629 87.3817 72.1289 87.2995C76.0803 87.0348 75.7111 87.1415 77.744 86.3312C80.1341 85.2555 82.3743 84.0596 84.4412 82.7559L86.4146 85.3864Z" fill="#C5DFFF"/>
<path d="M80.4531 67.2706L80.3706 67.3013C79.4649 67.64 79.0062 68.6488 79.3449 69.5538L85.3437 85.5832C85.6824 86.4882 86.6912 86.9475 87.5962 86.6088L87.6787 86.5775C88.5837 86.2388 89.0431 85.2307 88.7043 84.325L82.7049 68.2963C82.3662 67.3913 81.3581 66.9319 80.4531 67.2706Z" fill="#0D9463"/>
</svg>
