<svg width="160" height="110" viewBox="0 0 160 110" fill="none" xmlns="http://www.w3.org/2000/svg">
<g clip-path="url(#clip0_11884_14893)">
<path d="M66.9555 102.83H43.4414C37.6363 102.83 36.5274 104.198 38.9734 105.209C41.4194 106.219 29.7113 105.73 27.7219 107.523C25.6999 109.316 30.8527 110 36.4296 110H81.24C85.708 110 84.5992 106.741 81.9249 106.317C79.2506 105.893 86.2624 106.48 88.9367 105.535C91.611 104.59 89.6868 102.83 66.9555 102.83Z" fill="#99ADF9"/>
<path d="M101.264 108.794C100.579 109.739 98.2958 109.967 94.4149 109.87C91.4797 109.772 88.4141 109.544 88.4141 108.175C88.4141 106.806 95.8825 106.969 98.4915 107.262C100.742 107.523 101.655 108.24 101.264 108.794Z" fill="#C5D3FF"/>
<path d="M33.6887 104.231C33.2322 104.915 31.6667 105.111 28.9272 105.111C26.8726 105.111 24.7201 105.013 24.6549 104.068C24.5897 103.09 29.8404 103.058 31.6993 103.22C33.2648 103.351 33.9496 103.807 33.6887 104.231Z" fill="#C5D3FF"/>
<path d="M148.52 102.015H136.877C136.437 102.013 136.015 101.837 135.703 101.526C135.391 101.215 135.216 100.793 135.214 100.352V88.3258C135.216 87.8855 135.391 87.4638 135.703 87.1524C136.015 86.8411 136.437 86.6654 136.877 86.6636H148.52C148.961 86.6654 149.383 86.8411 149.694 87.1524C150.006 87.4638 150.181 87.8855 150.183 88.3258V100.352C150.181 100.793 150.006 101.215 149.694 101.526C149.383 101.837 148.961 102.013 148.52 102.015Z" fill="#C5DFFF"/>
<path d="M147.966 101.461H136.78C136.356 101.46 135.95 101.291 135.65 100.992C135.351 100.693 135.182 100.287 135.182 99.8636V88.2606C135.182 87.8373 135.351 87.4315 135.65 87.1321C135.95 86.8327 136.356 86.6643 136.78 86.6636H147.966C148.39 86.6643 148.796 86.8327 149.095 87.1321C149.395 87.4315 149.563 87.8373 149.564 88.2606V99.8636C149.563 100.287 149.395 100.693 149.095 100.992C148.796 101.291 148.39 101.46 147.966 101.461Z" fill="#E1ECFF"/>
<path d="M142.487 98.8857C145.081 98.8857 147.184 96.7844 147.184 94.1924C147.184 91.6003 145.081 89.499 142.487 89.499C139.894 89.499 137.791 91.6003 137.791 94.1924C137.791 96.7844 139.894 98.8857 142.487 98.8857Z" fill="#C5DFFF"/>
<path d="M140.628 96.3109C140.55 96.3109 140.475 96.28 140.42 96.225C140.365 96.17 140.334 96.0954 140.334 96.0176V92.3998C140.334 92.322 140.365 92.2474 140.42 92.1924C140.475 92.1373 140.55 92.1064 140.628 92.1064V92.1064C140.705 92.1064 140.78 92.1373 140.835 92.1924C140.89 92.2474 140.921 92.322 140.921 92.3998V96.0176C140.921 96.0954 140.89 96.17 140.835 96.225C140.78 96.28 140.705 96.3109 140.628 96.3109Z" fill="#1C3177"/>
<path d="M144.019 96.3109C143.941 96.3109 143.867 96.28 143.812 96.225C143.757 96.17 143.726 96.0954 143.726 96.0176V92.3998C143.726 92.322 143.757 92.2474 143.812 92.1924C143.867 92.1373 143.941 92.1064 144.019 92.1064V92.1064C144.097 92.1064 144.172 92.1373 144.227 92.1924C144.282 92.2474 144.313 92.322 144.313 92.3998V96.0176C144.313 96.0954 144.282 96.17 144.227 96.225C144.172 96.28 144.097 96.3109 144.019 96.3109Z" fill="#1C3177"/>
<path d="M114.048 81.6771C113.819 81.6825 113.59 81.6716 113.363 81.6445C108.308 81.286 104.851 79.5586 99.0459 70.726C97.0239 67.6623 95.6541 64.5334 94.317 61.5023C92.0341 56.3201 90.0773 51.8223 85.6419 49.7363C78.8258 46.5423 72.1401 51.8223 72.0748 51.8875C71.936 51.9955 71.7604 52.0448 71.5856 52.0249C71.4108 52.005 71.2508 51.9174 71.1398 51.7809C71.0289 51.6445 70.9759 51.47 70.9921 51.295C71.0084 51.1199 71.0927 50.9582 71.2269 50.8445C71.5204 50.6163 78.6301 44.9778 86.1963 48.5304C91.0883 50.8119 93.2408 55.7334 95.5237 60.9482C96.8282 63.9467 98.198 67.043 100.155 69.9763C105.666 78.32 108.83 79.9497 113.461 80.3082C116.918 80.5689 118.777 78.483 120.571 76.4297C121.17 75.7279 121.813 75.0639 122.495 74.4415C124.069 73.0693 125.984 72.1461 128.039 71.7689C128.125 71.7561 128.212 71.7602 128.296 71.7811C128.38 71.802 128.459 71.8393 128.529 71.8907C128.598 71.9422 128.657 72.0068 128.702 72.081C128.747 72.1552 128.776 72.2374 128.789 72.323C128.802 72.4086 128.798 72.4959 128.777 72.5799C128.756 72.6639 128.719 72.743 128.667 72.8126C128.616 72.8822 128.551 72.941 128.477 72.9856C128.403 73.0302 128.32 73.0598 128.235 73.0726C126.439 73.44 124.766 74.2589 123.375 75.4519C122.737 76.0312 122.138 76.6518 121.582 77.3097C119.755 79.3956 117.733 81.6771 114.048 81.6771Z" fill="#0D9463"/>
<path d="M133.028 69.5199L135.768 67.2058C135.833 67.1502 135.909 67.1085 135.991 67.0832C136.074 67.0579 136.16 67.0496 136.245 67.0588C136.331 67.0679 136.413 67.0943 136.488 67.1364C136.563 67.1785 136.629 67.2354 136.681 67.3036C136.777 67.4302 136.821 67.589 136.802 67.7469C136.784 67.9048 136.706 68.0496 136.583 68.151L133.811 70.5954L133.028 69.5199Z" fill="#0D9463"/>
<path d="M131.332 67.5643L134.072 65.2502C134.137 65.1946 134.213 65.1529 134.295 65.1277C134.377 65.1024 134.464 65.0941 134.549 65.1032C134.635 65.1124 134.717 65.1388 134.792 65.1809C134.867 65.2229 134.933 65.2798 134.985 65.348C135.081 65.4746 135.124 65.6334 135.106 65.7914C135.088 65.9493 135.009 66.094 134.887 66.1954L132.115 68.6399L131.332 67.5643Z" fill="#0D9463"/>
<path d="M134.953 70.7256C134.1 71.697 133.185 72.6116 132.213 73.4633C130.55 74.8974 128.397 74.6367 127.419 73.5285C127.354 73.4633 127.321 73.3982 127.256 73.333C126.802 72.7571 126.59 72.0279 126.663 71.2985C126.735 70.5692 127.088 69.8965 127.647 69.4219C128.984 68.1833 131.202 66.4233 131.202 66.4233L133.876 69.5196L134.953 70.7256Z" fill="#E1ECFF"/>
<path d="M134.953 70.7255C134.1 71.6969 133.185 72.6115 132.213 73.4632C130.55 74.8973 128.397 74.6366 127.419 73.5284C127.354 73.4632 127.321 73.398 127.256 73.3329C128.436 73.3375 129.592 72.9977 130.582 72.3551C131.746 71.5019 132.837 70.5535 133.844 69.5195L134.953 70.7255Z" fill="#C5DFFF"/>
<path d="M85.0554 95.692H84.9249C82.7073 95.6594 76.9347 91.3246 75.4671 89.3038C73.9669 87.2831 72.6298 84.7083 74.4561 83.046C74.8742 82.6951 75.3829 82.4692 75.9237 82.3942C76.9241 82.2379 77.9469 82.4586 78.7937 83.0135C80.3591 84.0238 84.7619 89.1409 86.0012 91.3246C87.2079 93.4757 87.1753 95.6594 85.0554 95.692Z" fill="#339B75"/>
<path d="M85.0555 95.692C85.3816 95.4964 85.6099 95.1705 85.8056 94.5186C86.1317 93.3779 84.9903 91.0964 81.2398 86.729C78.9895 84.089 77.0653 82.9157 75.9238 82.3942C76.9242 82.2379 77.947 82.4586 78.7938 83.0135C80.3592 84.0238 84.762 89.1409 86.0013 91.3246C87.208 93.4757 87.1754 95.6594 85.0555 95.692Z" fill="#384D89"/>
<path d="M74.0322 84.4475C74.3584 83.5349 76.2499 83.6979 77.8806 85.2949C79.5113 86.892 81.9899 90.0534 81.3702 91.4223C80.7506 92.7912 78.4024 91.6831 76.4782 89.7927C74.5541 87.9023 73.5104 85.9142 74.0322 84.4475Z" fill="#096445"/>
<path d="M78.1412 88.5216C78.115 89.1131 77.9591 89.6917 77.6846 90.2164C77.6846 90.2164 68.9117 94.3883 57.9211 86.729C46.7348 78.9394 46.7021 69.2268 46.7021 69.129C52.4421 63.5231 58.8995 69.6831 58.8995 69.6831C59.244 72.1174 59.9704 74.4822 61.0519 76.6905C62.0629 78.7112 63.5305 80.7646 65.6178 82.1334C68.7617 84.1747 72.5349 85.0191 76.2496 84.5127C76.2496 84.5127 77.2933 84.8386 77.9129 86.8268C78.126 87.3647 78.2044 87.9465 78.1412 88.5216Z" fill="#E1ECFF"/>
<path d="M78.1412 88.5216C78.115 89.1131 77.9591 89.6917 77.6846 90.2164C77.6846 90.2164 68.9117 94.3883 57.9211 86.729C46.7348 78.9394 46.7021 69.2268 46.7021 69.129C52.4421 63.5231 58.8995 69.6831 58.8995 69.6831C59.244 72.1174 59.9704 74.4822 61.0519 76.6905C60.1914 77.3617 59.235 77.9 58.2146 78.2875C57.0015 78.6138 55.7528 78.789 54.4967 78.809C54.4967 78.809 60.0083 87.0549 68.1616 88.5542C72.5644 89.3038 75.9561 88.9779 78.1412 88.5216Z" fill="#C5DFFF"/>
<path d="M65.8455 90.183C65.7574 90.1826 65.6717 90.1539 65.6012 90.101C65.5307 90.0482 65.4792 89.9741 65.4541 89.8896C65.4335 89.8362 65.424 89.7792 65.4261 89.722C65.4281 89.6649 65.4418 89.6087 65.4661 89.5569C65.4905 89.5051 65.5251 89.4588 65.5679 89.4208C65.6107 89.3827 65.6607 89.3538 65.715 89.3356C65.7476 89.3356 67.5088 88.6511 68.0306 87.2171C68.3644 86.3742 68.399 85.4423 68.1284 84.5771C68.0877 84.4731 68.0887 84.3574 68.1312 84.2542C68.1738 84.151 68.2545 84.0681 68.3567 84.023C68.4607 83.9823 68.5765 83.9833 68.6798 84.0258C68.7831 84.0683 68.8659 84.149 68.9111 84.2511C69.2528 85.3167 69.2183 86.4672 68.8133 87.5104C68.1284 89.3356 66.0738 90.0852 65.9759 90.1178C65.9632 90.1404 65.9439 90.1587 65.9207 90.1703C65.8974 90.1819 65.8713 90.1863 65.8455 90.183Z" fill="#C5DFFF"/>
<path d="M58.2795 86.8268C58.2258 86.8294 58.1722 86.8213 58.1217 86.803C58.0712 86.7847 58.0249 86.7565 57.9854 86.7201C57.9459 86.6837 57.9141 86.6398 57.8918 86.5909C57.8695 86.5421 57.8572 86.4893 57.8555 86.4357C57.8544 86.3251 57.8934 86.218 57.9654 86.134C58.0374 86.0501 58.1374 85.9952 58.2469 85.9794C58.2795 85.9794 60.5624 85.8164 61.7038 84.3172C62.3857 83.4397 62.7635 82.3643 62.7801 81.2534C62.7714 81.1411 62.8078 81.0299 62.8812 80.9443C62.9546 80.8587 63.059 80.8058 63.1714 80.7972C63.2839 80.7885 63.3952 80.8249 63.4808 80.8982C63.5664 80.9716 63.6194 81.0759 63.628 81.1883C63.6448 82.5109 63.2074 83.7993 62.3887 84.8386C60.9864 86.6312 58.4099 86.7942 58.2795 86.8268Z" fill="#C5DFFF"/>
<path d="M42.8203 80.6659C42.6833 80.9796 42.508 81.2751 42.2985 81.5459C41.9349 82.0172 41.4657 82.3968 40.9287 82.654C40.5598 82.844 40.1638 82.9759 39.7546 83.0451C39.7546 83.0451 35.1562 78.58 31.1448 70.6274C27.1334 62.7074 26.8398 53.5814 26.8398 53.5814C27.1778 53.3981 27.5263 53.2349 27.8835 53.0925C28.9391 52.6741 30.086 52.5393 31.21 52.7014C32.0413 52.8051 32.8414 53.0827 33.5581 53.5162C33.5581 53.5162 33.8191 61.0777 36.4933 67.8896C39.1676 74.734 43.0812 78.7755 43.0812 78.7755C43.1641 79.4176 43.074 80.0702 42.8203 80.6659Z" fill="#E1ECFF"/>
<path d="M42.8208 80.6661C41.3858 79.395 38.6463 76.4943 36.0047 70.8883C32.8412 64.1743 31.5693 55.5372 31.2432 52.7017C32.0745 52.8053 32.8746 53.083 33.5913 53.5165C33.5913 53.5165 33.8522 61.078 36.5265 67.8898C39.2008 74.7343 43.1143 78.7757 43.1143 78.7757C43.1754 79.4205 43.0746 80.0702 42.8208 80.6661Z" fill="#F8FBFF"/>
<path d="M40.9287 82.6543C40.5598 82.8442 40.1638 82.9762 39.7546 83.0454C39.7546 83.0454 35.1562 78.5802 31.1448 70.6276C27.1334 62.7076 26.8398 53.5817 26.8398 53.5817C27.1778 53.3984 27.5263 53.2351 27.8835 53.0928C28.1118 56.0261 29.188 65.6735 33.7538 73.235C36.8847 78.3846 39.3959 81.1876 40.9287 82.6543Z" fill="#C5DFFF"/>
<path d="M50.0276 87.3479C48.9018 87.9575 47.5978 88.1536 46.3423 87.902C44.3529 87.4457 43.6028 86.7938 43.6028 86.7938C43.6028 86.7938 42.9505 85.816 43.4397 85.262L43.505 85.1968C43.9251 84.8491 44.4328 84.6236 44.9726 84.5449C45.5932 85.0302 46.2725 85.4354 46.9946 85.7508C47.8425 86.0442 49.3427 85.7508 49.8971 86.1094C50.0069 86.1895 50.0904 86.3005 50.1368 86.4282C50.1833 86.5559 50.1907 86.6945 50.158 86.8264C50.1561 87.008 50.1114 87.1867 50.0276 87.3479Z" fill="#E1ECFF"/>
<path d="M50.0276 87.3476C48.9018 87.9573 47.5978 88.1534 46.3423 87.9017C44.3529 87.4454 43.6028 86.7936 43.6028 86.7936C43.6028 86.7936 42.9505 85.8158 43.4397 85.2617C44.0268 85.8158 45.4291 87.0217 47.0598 87.2173C48.109 87.3457 49.1737 87.2113 50.158 86.8262C50.1561 87.0078 50.1114 87.1864 50.0276 87.3476Z" fill="#C5DFFF"/>
<path d="M49.4089 86.4354C48.0961 86.6516 46.7488 86.4099 45.5932 85.7509C45.0813 85.4964 44.6434 85.1148 44.3213 84.6428C44.3235 84.4298 44.3678 84.2193 44.4518 84.0235C44.5357 83.8278 44.6577 83.6505 44.8105 83.502C45.0714 83.2739 45.4954 83.1761 46.1476 83.3717C46.1476 83.3717 47.4195 84.4798 49.5394 83.7302C51.6592 82.9806 51.5288 82.5243 51.9854 82.3939C52.3115 82.2961 52.7355 82.785 52.8333 83.3391C52.8945 83.5893 52.8716 83.8528 52.7681 84.0887C52.3999 84.6898 51.9115 85.2085 51.3335 85.6123C50.7555 86.0161 50.1003 86.2963 49.4089 86.4354Z" fill="#E1ECFF"/>
<path d="M49.4089 86.4352C48.0961 86.6514 46.7488 86.4097 45.5932 85.7507C45.0813 85.4962 44.6434 85.1146 44.3213 84.6426C44.3235 84.4296 44.3678 84.2191 44.4518 84.0233C44.5357 83.8275 44.6577 83.6503 44.8105 83.5018C45.5932 84.2841 47.2891 85.6855 49.148 85.327C50.5478 85.0215 51.835 84.3331 52.8659 83.3389C52.9271 83.5891 52.9042 83.8526 52.8007 84.0885C52.4213 84.6866 51.9256 85.2025 51.343 85.6056C50.7603 86.0087 50.1027 86.2908 49.4089 86.4352Z" fill="#C5DFFF"/>
<path d="M49.0494 84.2841C47.8036 84.4961 46.5228 84.2655 45.4293 83.6323C44.9399 83.4004 44.5228 83.0399 44.2227 82.5893C44.2276 82.1752 44.3909 81.7787 44.6792 81.4812C44.9401 81.253 45.3315 81.1553 45.9512 81.3508C45.9512 81.3508 47.1578 82.3938 49.1799 81.6767C51.2019 80.9597 51.0714 80.536 51.4954 80.4056C51.7889 80.3079 52.2129 80.7967 52.3107 81.3182C52.3705 81.5577 52.3475 81.8104 52.2455 82.0353C51.9004 82.6132 51.4375 83.112 50.8868 83.4995C50.3362 83.8869 49.7102 84.1543 49.0494 84.2841Z" fill="#E1ECFF"/>
<path d="M49.0494 84.2843C47.8036 84.4962 46.5228 84.2656 45.4293 83.6324C44.9399 83.4006 44.5228 83.04 44.2227 82.5895C44.2276 82.1754 44.3909 81.7788 44.6792 81.4813C45.3967 82.231 47.0274 83.5672 48.7885 83.2087C50.1118 82.908 51.329 82.2548 52.3107 81.3184C52.3705 81.5579 52.3475 81.8106 52.2455 82.0354C51.9004 82.6133 51.4375 83.1122 50.8868 83.4996C50.3362 83.8871 49.7102 84.1544 49.0494 84.2843Z" fill="#C5DFFF"/>
<path d="M48.8217 82.6541C47.739 83.0197 46.5627 82.9967 45.4952 82.589C45.0337 82.4501 44.6173 82.1914 44.2885 81.8393C44.2625 81.6546 44.2752 81.4666 44.3258 81.2871C44.3763 81.1075 44.4635 80.9405 44.582 80.7964C44.7777 80.5682 45.1364 80.4378 45.7235 80.503C45.7235 80.503 46.9302 81.2527 48.6586 80.3727C50.3871 79.4601 50.2241 79.1015 50.5828 78.906C50.8437 78.7756 51.2677 79.1341 51.4308 79.5904C51.5073 79.7994 51.5187 80.0267 51.4634 80.2423C50.9317 81.3601 49.9836 82.2257 48.8217 82.6541Z" fill="#E1ECFF"/>
<path d="M48.8217 82.654C47.739 83.0196 46.5627 82.9966 45.4952 82.5889C45.0337 82.45 44.6173 82.1913 44.2885 81.8392C44.2625 81.6545 44.2752 81.4665 44.3258 81.287C44.3763 81.1074 44.4635 80.9403 44.582 80.7963C45.3321 81.3503 46.9302 82.3281 48.463 81.774C49.6265 81.3348 50.6434 80.5783 51.3981 79.5903C51.4747 79.7993 51.4861 80.0266 51.4308 80.2422C51.1799 80.7985 50.8196 81.2986 50.3714 81.713C49.9232 82.1273 49.3962 82.4473 48.8217 82.654Z" fill="#C5DFFF"/>
<path d="M47.6801 81.09C47.5952 81.5301 47.4863 81.9654 47.354 82.3937C47.0845 83.3544 46.6664 84.2672 46.1147 85.0989C45.8787 85.4034 45.6168 85.6869 45.332 85.9463C44.8588 86.4106 44.2752 86.7471 43.6361 86.9241C43.6361 86.9241 41.1249 84.5122 40.4074 83.6974C39.9404 83.1807 39.5048 82.6365 39.1029 82.0678C38.9878 81.4429 38.9878 80.8023 39.1029 80.1774C39.1867 79.6236 39.424 79.1042 39.7878 78.6781C39.9779 78.4954 40.1855 78.3317 40.4074 78.1892C41.1378 77.8664 41.9608 77.82 42.7229 78.0589C42.7229 78.0589 45.1363 79.5581 46.2125 80.1448C46.7338 80.4071 47.2258 80.7239 47.6801 81.09Z" fill="#E1ECFF"/>
<path d="M47.68 81.09C47.595 81.5301 47.4862 81.9654 47.3538 82.3937C46.4731 81.8913 45.6236 81.3363 44.81 80.7315C43.3943 79.7973 41.9241 78.9484 40.4072 78.1892C41.1377 77.8664 41.9607 77.82 42.7228 78.0589C42.7228 78.0589 45.1361 79.5581 46.2124 80.1448C46.7337 80.4071 47.2256 80.7239 47.68 81.09Z" fill="#F8FBFF"/>
<path d="M45.332 85.9139C44.8476 86.3634 44.2679 86.6976 43.6361 86.8917C43.6361 86.8917 41.1249 84.4472 40.4074 83.665C39.9404 83.1483 39.5048 82.6041 39.1029 82.0354C38.9878 81.4105 38.9878 80.7699 39.1029 80.145C40.1139 81.2858 42.8208 84.2191 44.7123 85.4576C44.9406 85.6532 45.1689 85.7835 45.332 85.9139Z" fill="#C5DFFF"/>
<path d="M36.0046 77.5699C35.7241 77.5485 35.4488 77.4825 35.1892 77.3743C35.0959 77.3207 35.0269 77.2332 34.9965 77.13C34.9661 77.0268 34.9767 76.9158 35.0262 76.8203C35.0473 76.773 35.0776 76.7303 35.1154 76.6948C35.1531 76.6593 35.1976 76.6316 35.2461 76.6134C35.2947 76.5952 35.3464 76.5869 35.3982 76.5888C35.45 76.5907 35.5009 76.6029 35.548 76.6247C35.5806 76.6573 36.4937 77.081 37.7004 76.2988C38.9071 75.5166 39.1028 74.5388 39.1028 74.5062C39.1065 74.4527 39.122 74.4008 39.1482 74.354C39.1744 74.3072 39.2106 74.2668 39.2542 74.2357C39.2978 74.2045 39.3478 74.1834 39.4006 74.1738C39.4533 74.1642 39.5076 74.1664 39.5594 74.1803C39.6644 74.2075 39.7556 74.2724 39.8158 74.3625C39.8759 74.4527 39.9008 74.5619 39.8855 74.6692C39.8855 74.7343 39.6572 76.0381 38.1244 77.0484C37.485 77.4281 36.7472 77.6096 36.0046 77.5699Z" fill="#C5DFFF"/>
<path d="M32.5147 71.0187C32.1115 70.9762 31.7163 70.8774 31.3406 70.7253C31.2473 70.6717 31.1782 70.5842 31.1478 70.481C31.1175 70.3778 31.1281 70.2668 31.1775 70.1712C31.1961 70.1258 31.2237 70.0845 31.2586 70.0499C31.2935 70.0153 31.335 69.9881 31.3806 69.9699C31.4263 69.9516 31.4751 69.9427 31.5243 69.9437C31.5734 69.9447 31.6219 69.9556 31.6667 69.9757C31.6993 70.0083 32.8408 70.5624 34.341 69.8779C35.8086 69.2261 36.0695 68.2809 36.0695 68.2157C36.0781 68.1654 36.0971 68.1175 36.1253 68.0749C36.1535 68.0324 36.1902 67.9961 36.2332 67.9685C36.2761 67.941 36.3243 67.9226 36.3748 67.9146C36.4252 67.9067 36.4767 67.9093 36.5261 67.9224C36.6276 67.9601 36.7109 68.0349 36.7594 68.1317C36.8078 68.2285 36.8177 68.3401 36.787 68.4438C36.787 68.509 36.4282 69.8127 34.6019 70.6601C33.9507 70.964 33.23 71.0878 32.5147 71.0187Z" fill="#C5DFFF"/>
<path d="M30.0364 63.6855C29.5089 63.6749 28.9972 63.5044 28.5688 63.1966C28.4879 63.1238 28.4366 63.0238 28.4246 62.9157C28.4126 62.8075 28.4407 62.6987 28.5036 62.6099C28.5314 62.5639 28.5695 62.5248 28.6147 62.4956C28.66 62.4665 28.7113 62.4481 28.7648 62.4418C28.8183 62.4355 28.8725 62.4415 28.9233 62.4594C28.9742 62.4772 29.0202 62.5064 29.058 62.5448C29.0906 62.5448 29.8081 63.0988 31.4061 62.7729C33.4282 62.3492 33.9826 61.567 34.0152 61.5344C34.0434 61.4895 34.0808 61.4511 34.1248 61.4215C34.1688 61.392 34.2185 61.3719 34.2707 61.3627C34.3229 61.3535 34.3765 61.3553 34.428 61.368C34.4795 61.3808 34.5277 61.4041 34.5696 61.4366C34.6505 61.5094 34.7018 61.6094 34.7138 61.7176C34.7259 61.8257 34.6977 61.9345 34.6348 62.0233C34.5696 62.1211 33.8521 63.0662 31.5692 63.5877C31.0659 63.6958 30.5494 63.7288 30.0364 63.6855Z" fill="#C5DFFF"/>
<path d="M34.8629 58.2428C33.3792 58.9167 31.7635 59.2508 30.134 59.2205C29.1255 59.2305 28.1259 59.0307 27.1988 58.6339C26.8534 58.4916 26.5339 58.2934 26.253 58.0472C26.253 58.0472 26.2856 57.4605 26.1878 55.5376C25.8617 49.4754 28.6012 48.6931 30.3949 48.6279C30.8265 48.6266 31.2556 48.6926 31.6668 48.8235C32.3448 49.0798 32.954 49.4899 33.4464 50.0215C33.9388 50.5532 34.3009 51.1919 34.5041 51.8872C35.0586 53.8754 34.8629 58.2428 34.8629 58.2428Z" fill="#0D9463"/>
<path d="M30.8519 52.3761C28.7972 53.4842 27.9493 52.7672 27.9493 52.7672C27.9493 52.7672 27.4601 54.4294 27.2318 57.7213C27.1992 58.0472 27.1992 58.3731 27.1666 58.6339C26.8212 58.4916 26.5016 58.2934 26.2208 58.0472C26.2208 58.0472 26.2534 57.4605 26.1556 55.5376C25.8294 49.4754 28.5689 48.6931 30.3627 48.6279C30.7942 48.6266 31.2234 48.6926 31.6346 48.8235C32.1564 49.7035 32.7434 51.3657 30.8519 52.3761Z" fill="#339B75"/>
<path d="M72.4996 62.5448C72.4017 63.0663 72.3039 63.5552 72.1735 64.0441C71.3907 67.0752 70.021 69.5196 68.0968 71.1167C62.5852 75.7122 55.0189 78.1567 45.3002 71.8663C37.5383 66.847 30.396 55.4722 27.8196 51.0722C27.1673 49.9641 26.8086 49.2796 26.8086 49.2796C26.8086 49.2796 31.2766 49.0515 38.321 45.8248C41.7951 44.2013 45.1231 42.2821 48.268 40.0885C54.6276 35.6559 58.3129 31.5167 60.4327 28.29C62.9439 24.5093 63.3027 22.0322 63.3027 22.0322C63.3027 22.0322 63.9223 23.173 64.9986 25.6826C67.1268 30.8645 68.9562 36.1641 70.4776 41.5552C72.8583 49.7685 73.5106 57.0367 72.4996 62.5448Z" fill="#E1ECFF"/>
<path d="M64.999 25.6825C64.0785 27.4881 63.0209 29.2206 61.8355 30.8647C58.413 35.4803 54.1674 39.4249 49.312 42.5002C46.2331 44.5217 42.9935 46.2876 39.6259 47.7802C33.8208 50.3551 29.8094 50.9417 27.7874 51.0395C27.1351 49.9314 26.7764 49.2469 26.7764 49.2469C26.7764 49.2469 31.2444 49.0188 38.2888 45.7921C41.7629 44.1686 45.0908 42.2494 48.2358 40.0558C54.5954 35.6232 58.2806 31.484 60.4005 28.2573C62.9117 24.4765 63.2705 21.9995 63.2705 21.9995C63.9108 23.1961 64.4877 24.4254 64.999 25.6825Z" fill="#339B75"/>
<path d="M72.1735 64.044C71.3907 67.0751 70.021 69.5195 68.0968 71.1166C62.5852 75.7121 55.0189 78.1566 45.3002 71.8662C37.5383 66.8469 30.396 55.4721 27.8196 51.0721C27.1673 49.964 26.8086 49.2795 26.8086 49.2795C26.8086 49.2795 31.2766 49.0514 38.321 45.8247C41.0931 50.1269 47.2244 59.0247 53.2578 64.2721C60.2697 70.3995 68.2599 66.7817 72.1735 64.044Z" fill="#C5DFFF"/>
<path d="M39.6259 47.8129C33.8208 50.3877 29.8094 50.9743 27.7874 51.0721C27.1351 49.964 26.7764 49.2795 26.7764 49.2795C26.7764 49.2795 31.2444 49.0514 38.2888 45.8247C38.6802 46.4114 39.1367 47.0958 39.6259 47.8129Z" fill="#0D9463"/>
<path d="M71.5865 59.3832C70.7712 56.0262 69.6623 51.7892 68.26 47.2914C66.0097 39.9907 63.4658 34.3521 62.0635 31.9077C64.0203 28.9418 64.379 27.7358 64.379 27.7358C64.379 27.7358 64.8682 28.6484 65.7161 30.604C67.3747 34.6589 68.8011 38.8049 69.9885 43.0218C71.88 49.4099 72.4018 55.081 71.5865 59.3832Z" fill="#F8FBFF"/>
<path d="M64.9985 25.6825C64.078 27.4881 63.0204 29.2206 61.835 30.8647C61.3132 29.8543 60.8566 28.9743 60.4326 28.2573C62.9438 24.4765 63.3026 21.9995 63.3026 21.9995C63.3026 21.9995 63.9548 23.2054 64.9985 25.6825Z" fill="#339B75"/>
<path d="M54.7908 62.1213C54.7908 62.1213 51.8557 64.3376 45.8875 66.8146C44.2242 67.499 42.5935 68.0857 41.1259 68.5746L40.7346 68.1835C36.5601 64.1746 32.8096 58.9924 30.2658 55.0813C30.1027 54.8531 29.9722 54.625 29.8418 54.4294C33.2475 53.5139 36.5739 52.3258 39.7888 50.8768C45.3004 48.4324 46.7028 47.3242 46.7028 47.3242L54.7908 62.1213Z" fill="#E1ECFF"/>
<path d="M53.8779 62.0887C53.8779 62.0887 51.2363 64.2072 45.6268 66.4235C43.8983 67.1079 42.1698 67.6946 40.7022 68.1835C36.5277 64.1746 32.7772 58.9924 30.2334 55.0813L30.7552 54.9509C33.8995 54.0868 36.9739 52.9863 39.9521 51.659C45.0398 49.3776 46.4747 48.6279 46.4747 48.6279L53.8779 62.0887Z" fill="#0D9463"/>
<path d="M39.3318 63.3598C39.2256 63.3624 39.1218 63.3278 39.0383 63.2621L35.4509 60.068L35.2226 60.7524C35.2044 60.8067 35.1754 60.8567 35.1373 60.8994C35.0993 60.9422 35.0529 60.9768 35.0011 61.0012C34.9493 61.0255 34.8931 61.0392 34.8359 61.0412C34.7786 61.0433 34.7216 61.0337 34.6682 61.0132C34.6139 60.995 34.5638 60.966 34.521 60.928C34.4783 60.8899 34.4436 60.8436 34.4193 60.7918C34.3949 60.7401 34.3812 60.6839 34.3792 60.6267C34.3771 60.5695 34.3867 60.5125 34.4073 60.4591L34.8638 59.1554C34.8899 59.0889 34.9295 59.0286 34.98 58.9781C35.0305 58.9276 35.0909 58.8881 35.1574 58.8621C35.2309 58.8467 35.3069 58.8475 35.3801 58.8644C35.4533 58.8813 35.5219 58.9139 35.5813 58.9598L38.7448 61.7628L38.5817 60.4917C38.5627 60.397 38.5786 60.2985 38.6266 60.2146C38.6745 60.1307 38.7513 60.0671 38.8426 60.0354L49.6376 55.3746C49.6911 55.3507 49.7488 55.3376 49.8074 55.3361C49.8659 55.3346 49.9242 55.3448 49.9789 55.366C50.0335 55.3872 50.0833 55.4191 50.1255 55.4597C50.1677 55.5004 50.2014 55.549 50.2246 55.6028C50.2486 55.6562 50.2617 55.7139 50.2632 55.7725C50.2647 55.831 50.2545 55.8893 50.2333 55.9439C50.212 55.9984 50.1802 56.0483 50.1395 56.0904C50.0988 56.1326 50.0501 56.1663 49.9963 56.1895L39.4949 60.7198L39.7884 62.8383C39.8029 62.9287 39.7886 63.0213 39.7477 63.1032C39.7067 63.185 39.6411 63.252 39.5601 63.2946C39.4876 63.3272 39.4107 63.3492 39.3318 63.3598Z" fill="#FFCE94"/>
<path d="M63.3024 22.0324C63.3024 22.0324 62.8132 25.5198 59.0627 30.3761C56.9102 33.1791 53.6489 36.4383 48.7569 39.7628C40.7341 45.2383 34.4072 47.5524 30.624 48.5628C29.3666 48.922 28.0781 49.1621 26.7757 49.2798C26.7757 49.2798 18.5898 35.3302 19.9269 22.6843C20.2857 19.3924 21.2967 16.6546 22.8295 14.4058C23.9186 12.7859 25.2881 11.3732 26.8735 10.2339C31.4068 6.97464 37.5054 5.8339 43.441 6.55094C54.2686 7.88724 63.3024 22.0324 63.3024 22.0324Z" fill="#FEC272"/>
<path d="M63.3031 22.0327C63.3031 22.0327 63.0748 23.5972 61.8355 26.0742C61.0579 27.6076 60.1293 29.0598 59.0634 30.409C56.9109 33.212 53.6496 36.4712 48.7576 39.7957C40.1151 45.6623 33.4294 47.9112 29.8094 48.7912C28.813 49.0413 27.7991 49.2156 26.7764 49.3127C26.7764 49.2149 26.809 41.7186 39.0063 32.2016C51.2688 22.5868 63.3031 22.0327 63.3031 22.0327Z" fill="#FCAD4F"/>
<path d="M61.8347 26.0737C61.0571 27.6072 60.1285 29.0593 59.0626 30.4085C56.9101 33.2115 53.6488 36.4708 48.7568 39.7952C40.1143 45.6619 33.4287 47.9108 29.8086 48.7908C31.1783 45.6619 34.1788 41.0337 40.9297 35.7537C47.0372 30.9255 54.2003 27.6086 61.8347 26.0737V26.0737Z" fill="#F99D3A"/>
<path d="M63.3023 22.0324C63.3023 22.0324 62.8131 25.5198 59.0626 30.3761C57.8928 28.3369 56.5738 26.3869 55.1164 24.5421C55.1164 24.5421 50.3223 28.8769 46.4087 25.7806C42.4951 22.6517 45.4303 16.9154 45.4303 16.9154C42.5642 14.1166 38.9719 12.1748 35.0593 11.3095C32.3533 10.73 29.6049 10.3703 26.8408 10.2339C31.374 6.97464 37.4727 5.8339 43.4083 6.55094C54.2685 7.88724 63.3023 22.0324 63.3023 22.0324Z" fill="#FFDBB3"/>
<path d="M30.6563 48.5628C29.3988 48.922 28.1104 49.1621 26.8079 49.2798C26.8079 49.2798 18.622 35.3302 19.9592 22.6843C20.3179 19.3924 21.3289 16.6547 22.8617 14.4058C22.2174 21.7466 23.0151 29.1426 25.2099 36.1776C26.5889 40.4843 28.4143 44.6352 30.6563 48.5628Z" fill="#FFDBB3"/>
<path d="M67.9014 105.339C67.906 105.546 67.8951 105.753 67.8688 105.958C67.7384 107.881 61.8354 108.24 57.7261 108.435C53.6821 108.631 49.4098 107.49 50.8774 106.154L50.9426 106.089C51.9862 105.209 54.0082 104.198 56.2585 103.384C57.5596 102.903 58.8882 102.5 60.2373 102.178C61.9984 101.754 65.5859 100.907 66.76 101.787C67.005 101.981 67.2052 102.225 67.347 102.504C67.7472 103.394 67.9369 104.364 67.9014 105.339Z" fill="#339B75"/>
<path d="M67.9014 105.339C67.906 105.546 67.8951 105.753 67.8688 105.958C67.7384 107.881 61.8354 108.24 57.7261 108.435C53.6821 108.631 49.4098 107.49 50.8774 106.154C51.7579 106.675 53.6821 107.294 57.6935 107.131C63.1725 106.903 66.4991 105.991 67.9014 105.339Z" fill="#384D89"/>
<path d="M67.3141 102.504C66.96 102.816 66.565 103.079 66.14 103.286C64.5746 104.068 59.813 104.915 56.9105 104.427C55.6386 104.198 55.7364 103.807 56.2256 103.384C57.5267 102.903 58.8553 102.5 60.2044 102.178C61.9655 101.754 65.553 100.907 66.727 101.787C66.9721 101.981 67.1723 102.225 67.3141 102.504Z" fill="#096445"/>
<path d="M59.9756 86.8593C61.2801 95.203 66.0417 101.591 66.0417 101.591C65.6619 102.082 65.1981 102.501 64.6719 102.83C64.2333 103.104 63.7623 103.323 63.2696 103.482C62.4414 103.706 61.5784 103.772 60.7257 103.677C60.1753 103.622 59.63 103.524 59.0951 103.384C59.0951 103.384 50.9744 92.9215 49.9634 80.9927C48.9524 69.0638 55.3772 63.0667 55.3772 63.0667C55.4252 63.0406 55.4691 63.0077 55.5076 62.969C56.5557 62.3235 57.7615 61.979 58.9927 61.9732C60.2238 61.9675 61.4327 62.3007 62.4868 62.9364C62.724 63.0628 62.9527 63.2044 63.1717 63.3601C65.8134 65.0875 66.2047 66.8475 66.2047 66.8475C64.9708 67.9869 63.9154 69.3054 63.0739 70.7586C61.7367 73.0401 58.6711 78.5156 59.9756 86.8593Z" fill="#E1ECFF"/>
<path d="M59.9764 86.8591C61.2809 95.2028 66.0424 101.591 66.0424 101.591C65.6627 102.081 65.1989 102.501 64.6727 102.829C62.2919 99.5376 56.5846 89.5643 56.7803 80.0799C56.9434 71.4102 61.444 65.3806 63.2051 63.3599C65.8467 65.0873 66.2381 66.8473 66.2381 66.8473C65.0042 67.9867 63.9488 69.3052 63.1072 70.7584C61.7375 73.0399 58.6719 78.5154 59.9764 86.8591Z" fill="#C5DFFF"/>
<path d="M60.6935 103.645C60.1431 103.59 59.5978 103.492 59.0628 103.351C59.0628 103.351 50.9422 92.8891 49.9312 80.9602C48.9202 69.0313 55.3449 63.0343 55.3449 63.0343C55.3929 63.0082 55.4369 62.9753 55.4754 62.9365C54.2361 65.4787 51.464 72.0624 51.7249 79.4936C52.051 89.0432 56.1929 96.4091 59.0955 101.102C59.6499 102.048 60.2043 102.895 60.6935 103.645Z" fill="#F8FBFF"/>
<path d="M54.4973 95.1706C54.4416 95.1736 54.3859 95.1633 54.3349 95.1406C54.2839 95.118 54.239 95.0836 54.2038 95.0403C54.1213 94.9601 54.0721 94.8518 54.0661 94.737C54.06 94.6222 54.0976 94.5093 54.1712 94.421C54.9893 93.6711 55.9724 93.124 57.0411 92.824C58.9653 92.2373 61.0852 92.8892 61.183 92.9217C61.2939 92.9585 61.3864 93.0367 61.441 93.1399C61.4957 93.2431 61.5084 93.3635 61.4765 93.4758C61.4397 93.5867 61.3615 93.679 61.2582 93.7337C61.1549 93.7883 61.0345 93.801 60.9221 93.7692C60.8895 93.7692 58.9653 93.1825 57.3021 93.6714C55.6388 94.1929 54.8235 95.0077 54.8235 95.0403C54.7837 95.0867 54.7333 95.1229 54.6765 95.1456C54.6197 95.1683 54.5582 95.1769 54.4973 95.1706Z" fill="#C5DFFF"/>
<path d="M51.1369 84.7412C51.0568 84.7438 50.9775 84.7238 50.9083 84.6834C50.8391 84.643 50.7826 84.584 50.7455 84.513C50.7134 84.4622 50.692 84.4054 50.6829 84.346C50.6737 84.2866 50.6768 84.226 50.6921 84.1679C50.7074 84.1098 50.7346 84.0555 50.7718 84.0083C50.809 83.9611 50.8556 83.9221 50.9086 83.8938C52.1965 83.19 53.6195 82.7679 55.083 82.6552C56.5556 82.6169 58.0034 83.0384 59.2249 83.8612C59.2738 83.894 59.3153 83.9366 59.347 83.9862C59.3786 84.0358 59.3997 84.0914 59.4089 84.1495C59.418 84.2076 59.4151 84.267 59.4003 84.3239C59.3855 84.3809 59.3591 84.4341 59.3228 84.4804C59.2899 84.5292 59.2473 84.5708 59.1977 84.6024C59.148 84.634 59.0924 84.6551 59.0342 84.6642C58.9761 84.6734 58.9167 84.6705 58.8597 84.6557C58.8027 84.6409 58.7494 84.6145 58.7031 84.5782C58.6705 84.5782 57.0398 83.4375 55.1157 83.5352C53.7865 83.6352 52.4952 84.0246 51.3325 84.676C51.2999 84.7412 51.2021 84.7412 51.1369 84.7412Z" fill="#C5DFFF"/>
<path d="M60.0741 76.1353C60.0183 76.1382 59.9627 76.1279 59.9117 76.1053C59.8607 76.0826 59.8157 76.0482 59.7805 76.0049C59.7479 75.9723 57.3346 73.7886 54.9212 73.4953C52.573 73.2019 51.1381 74.2123 51.1381 74.2449C51.0418 74.3108 50.924 74.3374 50.8088 74.3192C50.6935 74.301 50.5896 74.2395 50.5184 74.1471C50.4525 74.051 50.4259 73.9332 50.4441 73.8181C50.4623 73.7029 50.5239 73.5991 50.6163 73.5279C50.6815 73.4627 52.3447 72.2568 55.0516 72.6153C57.7259 72.9738 60.2697 75.2553 60.4002 75.3531C60.4448 75.3904 60.4813 75.4366 60.5073 75.4886C60.5333 75.5407 60.5483 75.5975 60.5513 75.6556C60.5544 75.7137 60.5454 75.7718 60.5251 75.8263C60.5047 75.8808 60.4733 75.9305 60.4328 75.9723C60.3317 76.0605 60.207 76.1171 60.0741 76.1353Z" fill="#C5DFFF"/>
<path d="M88.5448 66.8801C88.0766 68.2594 87.1724 69.449 85.9684 70.2697C84.0116 71.5409 82.9028 71.6712 82.9028 71.6712C82.9028 71.6712 81.6309 71.4757 81.6309 70.6609V70.5631C81.7107 69.9589 81.9468 69.386 82.3157 68.9009C83.1997 68.7471 84.0638 68.4957 84.8922 68.1512C85.8053 67.6949 86.7837 66.2283 87.5012 66.0653C87.6492 66.0384 87.8019 66.0549 87.9408 66.1127C88.0796 66.1705 88.1988 66.2673 88.2839 66.3912C88.4041 66.5342 88.4929 66.7008 88.5448 66.8801Z" fill="#E1ECFF"/>
<path d="M88.5448 66.8799C88.0766 68.2591 87.1724 69.4488 85.9684 70.2695C84.0116 71.5406 82.9028 71.671 82.9028 71.671C82.9028 71.671 81.6309 71.4754 81.6309 70.6606C82.5114 70.5954 84.5987 70.3347 86.0662 69.1614C87.0156 68.4142 87.7754 67.4539 88.2839 66.3584C88.4016 66.5151 88.4899 66.6918 88.5448 66.8799Z" fill="#C5DFFF"/>
<path d="M87.3375 66.7172C86.4414 67.9514 85.1724 68.8654 83.7174 69.3246C83.1274 69.5582 82.4874 69.6367 81.8584 69.5528C81.6932 69.3932 81.564 69.2001 81.4796 68.9865C81.3953 68.7728 81.3576 68.5436 81.3692 68.3143C81.4019 67.9231 81.6628 67.4994 82.3476 67.1083C82.3476 67.1083 84.2066 66.8802 85.3807 64.5987C86.5547 62.3172 86.0655 62.0891 86.3591 61.6328C86.5547 61.3068 87.2722 61.3394 87.7614 61.6328C88 61.7664 88.1759 61.9891 88.2506 62.252C88.5441 63.0668 88.5115 65.1202 87.3375 66.7172Z" fill="#E1ECFF"/>
<path d="M87.3375 66.7173C86.4414 67.9515 85.1724 68.8655 83.7174 69.3247C83.1274 69.5582 82.4874 69.6368 81.8584 69.5528C81.6932 69.3932 81.564 69.2001 81.4796 68.9865C81.3953 68.7729 81.3576 68.5437 81.3692 68.3143C82.5759 68.2491 85.0545 67.9232 86.2612 66.1306C87.1628 64.7963 87.6817 63.2408 87.7614 61.6328C88 61.7665 88.1759 61.9891 88.2506 62.2521C88.5441 63.0669 88.5115 65.1202 87.3375 66.7173Z" fill="#C5DFFF"/>
<path d="M85.1531 65.7067C84.2998 66.885 83.0866 67.7543 81.6961 68.1837C81.1355 68.3986 80.5291 68.4659 79.935 68.3793C79.7785 68.2283 79.6567 68.0452 79.5779 67.8427C79.499 67.6401 79.4651 67.4229 79.4784 67.2059C79.511 66.8474 79.7719 66.4237 80.4242 66.0652C80.4242 66.0652 82.1853 65.8696 83.2941 63.6859C84.403 61.5348 83.9464 61.3067 84.2073 60.8504C84.403 60.557 85.0552 60.557 85.5444 60.8504C85.7728 60.9808 85.9465 61.1891 86.0336 61.437C86.2945 62.2519 86.2619 64.2074 85.1531 65.7067Z" fill="#E1ECFF"/>
<path d="M85.1531 65.7065C84.2998 66.8848 83.0866 67.7541 81.6961 68.1836C81.1355 68.3984 80.5291 68.4657 79.935 68.3791C79.7785 68.2281 79.6567 68.0451 79.5779 67.8425C79.499 67.6399 79.4651 67.4227 79.4784 67.2058C80.6199 67.1406 82.968 66.8473 84.1421 65.1524C84.9854 63.8789 85.4801 62.4069 85.5771 60.8828C85.8054 61.0132 85.9791 61.2215 86.0663 61.4695C86.2096 62.2007 86.2026 62.9534 86.0456 63.6818C85.8886 64.4102 85.5849 65.0991 85.1531 65.7065Z" fill="#C5DFFF"/>
<path d="M84.2733 68.6076C84.2999 69.4036 84.1437 70.1952 83.8167 70.9216C83.627 71.3383 83.374 71.723 83.0666 72.0624C83.0666 72.0624 74.8155 74.9631 66.1404 67.7276C61.6724 64.012 58.085 59.1557 55.6716 55.3424C54.37 53.3024 53.1832 51.1914 52.1168 49.0194C52.1168 49.0194 51.4319 46.9009 52.7038 45.0757C53.181 44.3848 53.834 43.8335 54.5954 43.4787C56.1282 42.6965 57.4001 42.6313 58.4111 42.892C59.4482 43.165 60.3726 43.7581 61.0527 44.5868C61.0527 44.5868 62.3247 47.3898 64.2162 50.8446C66.4339 54.8535 69.4995 59.7424 72.4347 62.0239C77.8811 66.2609 82.4143 64.6313 82.4143 64.6313C82.7784 65.0127 83.106 65.4274 83.3927 65.8698C83.7515 66.5542 84.2407 67.532 84.2733 68.6076Z" fill="#E1ECFF"/>
<path d="M64.1177 50.7795C63.0587 52.4419 61.4749 53.7036 59.6171 54.3647C58.3299 54.8626 56.98 55.1807 55.6057 55.3098C54.3042 53.2698 53.1174 51.1589 52.0509 48.9869C52.0509 48.9869 50.8768 45.3039 54.4969 43.4136C58.5735 41.295 60.9543 44.5217 60.9543 44.5217C60.9543 44.5217 62.2262 47.3573 64.1177 50.7795Z" fill="#C5DFFF"/>
<path d="M83.7835 70.8894C83.5938 71.306 83.3408 71.6908 83.0334 72.0301C83.0334 72.0301 74.7823 74.9309 66.1072 67.6953C61.6392 63.9798 58.0518 59.1235 55.6384 55.3101C54.3368 53.2701 53.15 51.1592 52.0836 48.9872C52.0836 48.9872 51.3987 46.8686 52.6706 45.0435C53.7468 47.4879 58.3453 57.4612 64.183 63.1975C70.8687 69.7486 74.4888 70.5635 80.9136 70.8242C81.9572 70.8568 82.9356 70.8894 83.7835 70.8894Z" fill="#C5DFFF"/>
<path d="M83.2947 65.8372C81.6315 66.326 79.3159 66.6846 76.9026 65.9349C72.402 64.5334 68.7167 61.6979 65.0966 56.2549C62.1288 51.7572 59.2589 45.1083 58.3457 42.8594C59.3828 43.1324 60.3072 43.7255 60.9874 44.5542C60.9874 44.5542 62.2593 47.3572 64.1508 50.812C66.3685 54.8209 69.4342 59.7097 72.3693 61.9912C77.8157 66.2283 82.349 64.5986 82.349 64.5986C82.7058 64.978 83.0228 65.393 83.2947 65.8372Z" fill="#F8FBFF"/>
<path d="M60.6926 60.7201C60.229 60.7217 59.7675 60.6558 59.3229 60.5245C59.2122 60.4801 59.1235 60.3939 59.0759 60.2845C59.0282 60.1752 59.0255 60.0516 59.0684 59.9403C59.1112 59.8291 59.1961 59.7391 59.3047 59.6898C59.4134 59.6406 59.537 59.636 59.649 59.6771C59.7142 59.7097 61.247 60.2312 63.3017 59.1231C64.527 58.4379 65.4389 57.3047 65.8455 55.9616C65.8583 55.9059 65.882 55.8534 65.9152 55.8069C65.9484 55.7604 65.9904 55.7209 66.0389 55.6906C66.0873 55.6603 66.1413 55.6399 66.1976 55.6305C66.254 55.6211 66.3116 55.6228 66.3673 55.6356C66.423 55.6485 66.4756 55.6722 66.5221 55.7053C66.5686 55.7385 66.6082 55.7805 66.6384 55.8289C66.6687 55.8773 66.6892 55.9312 66.6986 55.9875C66.708 56.0439 66.7063 56.1015 66.6934 56.1571C66.4695 56.9506 66.0886 57.6912 65.5732 58.335C65.0579 58.9788 64.4185 59.5128 63.693 59.9053C62.7814 60.4344 61.7468 60.7153 60.6926 60.7201Z" fill="#C5DFFF"/>
<path d="M66.9214 68.0209C66.8003 68.0209 66.6842 67.9728 66.5986 67.8872C66.5129 67.8016 66.4648 67.6856 66.4648 67.5646C66.4648 67.4435 66.5129 67.3275 66.5986 67.2419C66.6842 67.1563 66.8003 67.1083 66.9214 67.1083C66.954 67.1083 68.9761 67.0757 70.1175 65.6742C71.2916 64.2401 71.0633 62.2194 71.0633 62.1868C71.0568 62.129 71.0618 62.0705 71.078 62.0146C71.0941 61.9588 71.1212 61.9066 71.1575 61.8612C71.1939 61.8158 71.2388 61.778 71.2898 61.75C71.3408 61.722 71.3968 61.7043 71.4547 61.6979C71.5704 61.6898 71.685 61.7256 71.7756 61.7981C71.8662 61.8705 71.9263 61.9744 71.9438 62.089C71.9438 62.1868 72.2048 64.5009 70.8024 66.2283C69.4 68.0209 67.0193 68.0209 66.9214 68.0209Z" fill="#C5DFFF"/>
<path d="M74.0962 71.8341C74.0039 71.8346 73.9137 71.8068 73.8378 71.7543C73.762 71.7018 73.7041 71.6273 73.6722 71.5408C73.6296 71.4283 73.6331 71.3037 73.6819 71.1938C73.7308 71.084 73.821 70.9978 73.9331 70.9541C74.5049 70.7029 75.0128 70.3264 75.4192 69.8525C75.8257 69.3786 76.1203 68.8194 76.2812 68.2163C76.7704 66.1956 76.0856 65.0222 76.0529 64.9896C75.9923 64.8891 75.972 64.7693 75.9962 64.6544C76.0204 64.5394 76.0873 64.438 76.1834 64.3704C76.284 64.3097 76.4039 64.2895 76.5189 64.3137C76.6339 64.3379 76.7354 64.4047 76.803 64.5008C76.8357 64.5659 77.7488 66.0326 77.1292 68.4119C76.9301 69.154 76.5656 69.8415 76.0629 70.4229C75.5603 71.0043 74.9325 71.4644 74.2266 71.7689C74.194 71.8341 74.1614 71.8341 74.0962 71.8341Z" fill="#C5DFFF"/>
<path d="M64.3772 46.8682C64.31 47.2025 64.2117 47.5299 64.0837 47.846C63.6271 48.9541 62.5509 50.7793 60.1049 52.3764C56.3218 54.8208 52.9626 53.7778 52.9626 53.7778C51.3947 51.5426 50.3982 48.9577 50.06 46.249C49.7665 43.7393 51.4298 41.7838 53.5823 40.8386C55.1803 40.1541 57.0392 40.0238 58.5394 40.6756C62.0943 42.2727 64.3772 46.8682 64.3772 46.8682Z" fill="#0D9463"/>
<path d="M64.3787 46.8682C64.3115 47.2025 64.2132 47.5299 64.0852 47.846C64.0852 47.8134 64.0526 47.8134 64.0526 47.7808C61.0196 43.7719 58.6388 42.9571 58.6388 42.9571C58.6388 42.9571 57.7582 45.043 54.8557 43.8371C52.8337 43.0223 53.1924 41.5882 53.6164 40.8386C55.2144 40.1541 57.0734 40.0238 58.5736 40.6756C62.0958 42.2727 64.3787 46.8682 64.3787 46.8682Z" fill="#339B75"/>
<path d="M24.7533 29.6269C24.4604 29.5772 24.1595 29.6404 23.9114 29.8038C23.6633 29.9671 23.4863 30.2183 23.4162 30.5069C23.0179 32.1523 22.7022 33.8166 22.4704 35.4935C22.3074 36.8624 22.2421 38.0032 22.2095 38.7854C22.2011 39.0616 22.2918 39.3317 22.4653 39.5468C22.6387 39.762 22.8835 39.9081 23.1553 39.9587C23.308 39.983 23.4641 39.9757 23.6139 39.9373C23.7637 39.8989 23.9041 39.8303 24.0263 39.7356C24.1486 39.6409 24.2501 39.5222 24.3246 39.3868C24.3992 39.2514 24.4452 39.1022 24.4598 38.9483C24.5597 37.5028 24.7558 36.0656 25.0469 34.6461C25.373 32.9839 25.6013 31.8106 25.7644 31.0283C25.806 30.71 25.7246 30.3878 25.5367 30.1274C25.3489 29.867 25.0687 29.688 24.7533 29.6269Z" fill="#0D9463"/>
<path d="M19.1116 33.1142C19.1455 32.9609 19.2135 32.8173 19.3105 32.694C19.4076 32.5706 19.5313 32.4708 19.6724 32.4019C19.8134 32.333 19.9682 32.2967 20.1253 32.2959C20.2823 32.2951 20.4374 32.3297 20.5792 32.3971C21.5576 32.8208 22.9926 33.4401 24.3623 33.929C25.7647 34.4179 27.0692 34.9067 27.8846 35.2327C28.1518 35.3325 28.3728 35.5274 28.5052 35.78C28.6376 36.0326 28.6721 36.3251 28.6021 36.6016C28.5638 36.7507 28.4959 36.8905 28.4023 37.0128C28.3088 37.1351 28.1916 37.2374 28.0576 37.3134C27.9237 37.3894 27.7759 37.4377 27.6228 37.4554C27.4698 37.4731 27.3148 37.4598 27.1671 37.4164C25.614 36.9775 24.0892 36.4442 22.6012 35.8193C21.5459 35.3784 20.5217 34.8667 19.5356 34.2875C19.3586 34.1542 19.2242 33.9722 19.1489 33.7639C19.0736 33.5555 19.0607 33.3297 19.1116 33.1142Z" fill="#0D9463"/>
<path d="M38.7761 21.6742C38.3933 21.6178 38.0033 21.7071 37.6832 21.9244C37.3631 22.1417 37.1363 22.4711 37.0476 22.8475C36.6889 24.4772 36.167 27.2149 35.9387 29.366C35.7757 31.1586 35.6778 32.6253 35.6778 33.6357C35.664 33.9906 35.7834 34.3379 36.0128 34.6093C36.2421 34.8807 36.5647 35.0566 36.9171 35.1023C37.1155 35.1328 37.3181 35.1216 37.5119 35.0696C37.7058 35.0176 37.8867 34.9258 38.0431 34.8001C38.1996 34.6744 38.3281 34.5176 38.4206 34.3396C38.5131 34.1615 38.5675 33.9662 38.5804 33.766C38.6456 32.4623 38.8413 30.4742 39.2001 28.1927C39.5588 26.009 39.8523 24.4772 40.0154 23.4668C40.0595 23.2671 40.0619 23.0605 40.0225 22.8599C39.9831 22.6593 39.9028 22.4689 39.7865 22.3007C39.6702 22.1325 39.5205 21.99 39.3466 21.8822C39.1728 21.7744 38.9785 21.7036 38.7761 21.6742Z" fill="#0D9463"/>
<path d="M31.5363 26.3676C31.582 26.1704 31.67 25.9855 31.7942 25.8256C31.9185 25.6658 32.076 25.5348 32.2559 25.4418C32.4358 25.3488 32.6338 25.296 32.8362 25.287C33.0385 25.278 33.2404 25.3131 33.4279 25.3899C34.6998 25.9113 36.5587 26.661 38.3524 27.2802C40.1788 27.8995 41.8746 28.4861 42.9509 28.8773C43.3001 28.9994 43.591 29.2478 43.766 29.5736C43.9411 29.8993 43.9877 30.2788 43.8967 30.6373C43.8494 30.8331 43.7634 31.0176 43.6439 31.1798C43.5243 31.3421 43.3735 31.4788 43.2004 31.582C43.0272 31.6852 42.8352 31.7528 42.6355 31.7809C42.4359 31.809 42.2326 31.7969 42.0377 31.7454C40.0196 31.2204 38.037 30.5672 36.1021 29.7899C34.7251 29.2595 33.3943 28.6163 32.1233 27.8669C31.8943 27.6974 31.7178 27.4669 31.614 27.2017C31.5101 26.9365 31.4832 26.6474 31.5363 26.3676Z" fill="#0D9463"/>
<path d="M149.173 83.9587C150.277 84.3298 151.266 84.9812 152.043 85.8491C153.249 87.2832 153.413 89.5972 153.413 89.5972L160 86.5335C160 86.5335 156.674 87.8046 155.565 85.5883C154.456 83.3721 158.141 79.8521 158.141 79.8521C158.141 79.8521 154.065 83.1765 152.467 82.6876C150.869 82.1987 150.608 80.2106 150.608 80.2106L149.173 83.9587Z" fill="#FEC272"/>
<path d="M142.943 83.2088L144.117 83.2414L145.944 69.8784L141.802 69.0962L142.943 83.2088Z" fill="#D2E9FF"/>
<path d="M145.813 83.2739L148.553 70.7583L152.499 72.6813L146.531 83.5998L145.813 83.2739Z" fill="#D2E9FF"/>
<path d="M15.296 20.1096L14.6111 21.6088L0.293945 17.2088L2.21812 11.5703L15.296 20.1096Z" fill="#FEC272"/>
<path d="M17.448 15.1556L16.1761 16.9807L0 4.66074L4.468 0L17.448 15.1556Z" fill="#FEC272"/>
</g>
<defs>
<clipPath id="clip0_11884_14893">
<rect width="160" height="110" fill="white"/>
</clipPath>
</defs>
</svg>
