<svg width="80" height="80" viewBox="0 0 80 80" fill="none" xmlns="http://www.w3.org/2000/svg">
<path d="M72.5121 73.6877C72.4558 73.1439 72.2371 72.5439 71.8621 71.8564C71.1991 70.6209 70.4295 69.4456 69.5621 68.3439C64.4621 61.8689 55.4996 59.2189 47.5746 60.8252C44.9683 61.3564 42.5121 62.3127 39.9746 63.0814C36.6746 64.0814 33.5558 65.0252 30.4558 65.4377C25.1433 66.1502 20.7683 65.4502 18.2933 63.0627C12.7996 57.7627 18.7621 50.5064 25.6433 49.4002C31.2996 48.4939 33.4996 48.9439 39.4621 50.1064C42.8808 50.7689 47.1371 51.6002 52.7308 52.1939C70.9996 54.1439 77.9746 47.7814 79.6996 34.4439C80.3621 29.2752 79.2058 24.8752 76.3558 21.7127C73.2371 18.2627 68.4308 16.5939 62.0621 16.7564C61.3558 16.7752 47.5746 16.9064 47.5746 16.9064V24.3377C47.5746 24.3377 61.5933 23.9189 62.2496 23.9002C65.1246 23.8252 68.9871 24.2189 71.0496 26.5002C72.8308 28.4752 72.8808 31.4127 72.6121 33.5252C71.0246 46.0439 61.7933 45.9564 53.4996 45.0752C48.2121 44.5127 44.2996 43.7502 40.8371 43.0814C34.3996 41.8314 29.7433 40.9252 22.6621 42.6377C13.6496 44.8189 7.49957 52.4002 8.35582 60.2752C8.72457 63.6502 10.4183 66.6064 13.2496 68.8189C17.5683 72.2002 24.0183 73.5189 31.4183 72.5252C35.0871 72.0314 38.6246 70.9627 42.0496 69.9189C44.9371 69.0439 47.8308 67.6877 50.8808 67.5252C54.2746 67.3439 57.7433 68.0439 60.5496 69.8314C63.2871 71.5752 65.2558 74.6314 66.3933 76.5439C67.1121 77.7502 69.7058 77.4439 70.9433 76.5502C72.5058 75.4252 72.5621 74.1627 72.5121 73.6877Z" fill="#F79329"/>
<mask id="mask0_10389_13631" style="mask-type:luminance" maskUnits="userSpaceOnUse" x="8" y="16" width="72" height="62">
<path d="M72.5121 73.6877C72.4558 73.1439 72.2371 72.5439 71.8621 71.8564C71.1991 70.6209 70.4295 69.4456 69.5621 68.3439C64.4621 61.8689 55.4996 59.2189 47.5746 60.8252C44.9683 61.3564 42.5121 62.3127 39.9746 63.0814C36.6746 64.0814 33.5558 65.0252 30.4558 65.4377C25.1433 66.1502 20.7683 65.4502 18.2933 63.0627C12.7996 57.7627 18.7621 50.5064 25.6433 49.4002C31.2996 48.4939 33.4996 48.9439 39.4621 50.1064C42.8808 50.7689 47.1371 51.6002 52.7308 52.1939C70.9996 54.1439 77.9746 47.7814 79.6996 34.4439C80.3621 29.2752 79.2058 24.8752 76.3558 21.7127C73.2371 18.2627 68.4308 16.5939 62.0621 16.7564C61.3558 16.7752 47.5746 16.9064 47.5746 16.9064V24.3377C47.5746 24.3377 61.5933 23.9189 62.2496 23.9002C65.1246 23.8252 68.9871 24.2189 71.0496 26.5002C72.8308 28.4752 72.8808 31.4127 72.6121 33.5252C71.0246 46.0439 61.7933 45.9564 53.4996 45.0752C48.2121 44.5127 44.2996 43.7502 40.8371 43.0814C34.3996 41.8314 29.7433 40.9252 22.6621 42.6377C13.6496 44.8189 7.49957 52.4002 8.35582 60.2752C8.72457 63.6502 10.4183 66.6064 13.2496 68.8189C17.5683 72.2002 24.0183 73.5189 31.4183 72.5252C35.0871 72.0314 38.6246 70.9627 42.0496 69.9189C44.9371 69.0439 47.8308 67.6877 50.8808 67.5252C54.2746 67.3439 57.7433 68.0439 60.5496 69.8314C63.2871 71.5752 65.2558 74.6314 66.3933 76.5439C67.1121 77.7502 69.7058 77.4439 70.9433 76.5502C72.5058 75.4252 72.5621 74.1627 72.5121 73.6877Z" fill="white"/>
</mask>
<g mask="url(#mask0_10389_13631)">
<path d="M27.0248 2.6626C27.0248 2.6626 28.1873 5.36885 27.6373 7.54385C27.2998 8.88135 27.2248 10.2626 27.1373 11.6376C26.7686 17.4063 26.6311 23.3188 26.8248 29.0939C26.9123 31.7376 25.8311 35.8189 25.8311 35.8189L27.0248 38.3251C27.0248 38.3251 34.3873 38.2439 35.6248 38.1564C42.8186 37.6439 47.7123 35.7938 50.5123 28.5251C50.5998 28.4063 50.6998 28.2938 50.8561 28.2001C52.3248 27.2689 55.2061 28.1813 56.5936 27.0126C58.1561 25.7001 58.0873 22.6126 58.1686 21.5251C58.3061 19.6563 58.0873 17.5688 57.2686 15.8126C56.9436 15.1126 56.3811 14.2313 55.6123 13.9938C54.4373 13.6251 53.6436 13.8313 52.4373 13.6126C52.0123 13.5376 51.5998 13.4001 51.2873 13.0688C51.0248 12.7938 50.0998 11.1126 49.8311 10.5063C49.0186 8.7001 47.6498 6.3876 43.9561 4.93135C38.9186 2.9501 27.0248 2.6626 27.0248 2.6626Z" fill="#ED6C30"/>
</g>
<path d="M22.8559 2.6626C22.8559 2.6626 24.0184 5.36885 23.4684 7.54385C23.1309 8.88135 23.0496 10.2626 22.9684 11.6376C22.5996 17.4063 22.4621 23.3188 22.6559 29.0939C22.7434 31.7376 21.6621 35.8189 21.6621 35.8189L22.8559 38.3251C22.8559 38.3251 30.2246 38.2439 31.4496 38.1564C38.6434 37.6439 43.5434 35.7938 46.3434 28.5251C46.4309 28.4063 46.5371 28.2938 46.6871 28.2001C48.1559 27.2689 51.0371 28.1813 52.4246 27.0126C53.9871 25.7001 53.9184 22.6126 53.9996 21.5251C54.1434 19.6563 53.9184 17.5688 53.0996 15.8126C52.7746 15.1126 52.2121 14.2313 51.4496 13.9938C50.2746 13.6251 49.4746 13.8313 48.2746 13.6126C47.8434 13.5376 47.4309 13.4001 47.1184 13.0688C46.8559 12.7938 45.9309 11.1126 45.6621 10.5063C44.8559 8.7001 43.4809 6.3876 39.7871 4.93135C34.7496 2.9501 22.8559 2.6626 22.8559 2.6626Z" fill="#FCC21B"/>
<path d="M22.8561 2.6626H15.5811C13.0811 2.6626 11.0498 4.69385 11.0498 7.19385V33.7938C11.0498 36.2938 13.0811 38.3251 15.5811 38.3251H22.8561C25.3561 38.3251 27.3873 36.2938 27.3873 33.7938V7.19385C27.3873 4.69385 25.3561 2.6626 22.8561 2.6626Z" fill="#FCC21B"/>
<path d="M24.8879 33.7939C24.8879 34.9064 23.9754 35.8189 22.8566 35.8189H15.5816C14.4691 35.8189 13.5566 34.9064 13.5566 33.7939V7.19395C13.5566 6.08145 14.4691 5.16895 15.5816 5.16895H22.8566C23.9691 5.16895 24.8879 6.08145 24.8879 7.19395V33.7939Z" fill="white"/>
<path d="M1.3248 10.8125C0.656055 10.8125 0.112305 11.3625 0.112305 12.0313V13.7125C0.112305 14.3813 0.662305 14.925 1.3248 14.925H22.5123V10.8125H1.3248Z" fill="#78A3AD"/>
<path d="M1.3248 25.625C0.656055 25.625 0.112305 26.175 0.112305 26.8438V28.525C0.112305 29.1937 0.662305 29.7375 1.3248 29.7375H22.5123V25.625H1.3248Z" fill="#78A3AD"/>
</svg>
