<svg width="16" height="16" viewBox="0 0 16 16" fill="none" xmlns="http://www.w3.org/2000/svg">
<path fill-rule="evenodd" clip-rule="evenodd" d="M4.83 1.3335H11.17C11.9427 1.3335 12.3287 1.3335 12.6407 1.44216C12.9348 1.54642 13.201 1.71711 13.4185 1.94095C13.636 2.1648 13.7989 2.43578 13.8947 2.73283C14 3.05416 14 3.4515 14 4.24683V13.5828C14 14.1548 13.3433 14.4588 12.928 14.0788C12.8115 13.9712 12.6587 13.9114 12.5 13.9114C12.3413 13.9114 12.1885 13.9712 12.072 14.0788L11.75 14.3735C11.5459 14.5623 11.278 14.6671 11 14.6671C10.722 14.6671 10.4541 14.5623 10.25 14.3735C10.0459 14.1847 9.77804 14.0799 9.5 14.0799C9.22196 14.0799 8.95414 14.1847 8.75 14.3735C8.54586 14.5623 8.27804 14.6671 8 14.6671C7.72196 14.6671 7.45414 14.5623 7.25 14.3735C7.04586 14.1847 6.77804 14.0799 6.5 14.0799C6.22196 14.0799 5.95414 14.1847 5.75 14.3735C5.54586 14.5623 5.27804 14.6671 5 14.6671C4.72196 14.6671 4.45414 14.5623 4.25 14.3735L3.928 14.0788C3.81148 13.9712 3.65865 13.9114 3.5 13.9114C3.34135 13.9114 3.18852 13.9712 3.072 14.0788C2.65667 14.4588 2 14.1548 2 13.5828V4.24683C2 3.4515 2 3.0535 2.10533 2.7335C2.30533 2.12483 2.76867 1.6475 3.35933 1.44216C3.67133 1.3335 4.05733 1.3335 4.83 1.3335ZM10.04 5.66683C10.0838 5.6178 10.1175 5.56063 10.1391 5.49859C10.1608 5.43654 10.1701 5.37083 10.1664 5.30521C10.1626 5.23959 10.146 5.17535 10.1175 5.11614C10.089 5.05694 10.049 5.00394 10 4.96016C9.95097 4.91639 9.8938 4.8827 9.83176 4.86102C9.76971 4.83934 9.704 4.83009 9.63838 4.83381C9.57276 4.83752 9.50852 4.85412 9.44931 4.88267C9.39011 4.91121 9.33711 4.95114 9.29333 5.00016L7.286 7.2495L6.706 6.60016C6.61736 6.50221 6.49355 6.44332 6.36163 6.43636C6.22971 6.42939 6.1004 6.47492 6.00193 6.56299C5.90347 6.65106 5.84386 6.77452 5.83613 6.9064C5.8284 7.03828 5.87317 7.16786 5.96067 7.26683L6.91267 8.3335C6.95957 8.38604 7.01704 8.42808 7.08132 8.45686C7.1456 8.48564 7.21524 8.50052 7.28567 8.50052C7.3561 8.50052 7.42573 8.48564 7.49001 8.45686C7.55429 8.42808 7.61176 8.38604 7.65867 8.3335L10.04 5.66683ZM5 9.8335C4.86739 9.8335 4.74021 9.88618 4.64645 9.97994C4.55268 10.0737 4.5 10.2009 4.5 10.3335C4.5 10.4661 4.55268 10.5933 4.64645 10.687C4.74021 10.7808 4.86739 10.8335 5 10.8335H11C11.1326 10.8335 11.2598 10.7808 11.3536 10.687C11.4473 10.5933 11.5 10.4661 11.5 10.3335C11.5 10.2009 11.4473 10.0737 11.3536 9.97994C11.2598 9.88618 11.1326 9.8335 11 9.8335H5Z" fill="#E7F0ED"/>
</svg>
