<svg width="12" height="12" viewBox="0 0 12 12" fill="none" xmlns="http://www.w3.org/2000/svg">
<g clip-path="url(#clip0_7823_34247)">
<path d="M1.89023 2.63625C2.0349 2.29875 2.2755 2.01116 2.58215 1.80917C2.88881 1.60718 3.24802 1.49967 3.61523 1.5H8.38673C9.13673 1.5 9.81473 1.947 10.1102 2.63625L10.7042 4.02225C10.7605 4.1535 10.8617 4.2615 10.9892 4.32525C11.3642 4.51275 11.6305 4.8615 11.713 5.27175L11.9642 6.531C11.989 6.65175 12.001 6.77475 12.001 6.8985V7.20825C12.001 7.81875 11.7085 8.3655 11.251 8.706V10.125C11.251 10.2245 11.2115 10.3198 11.1411 10.3902C11.0708 10.4605 10.9754 10.5 10.876 10.5H9.37598C9.27652 10.5 9.18114 10.4605 9.11081 10.3902C9.04049 10.3198 9.00098 10.2245 9.00098 10.125V9.1215C8.03198 9.1575 6.94223 9.1875 6.00098 9.1875C5.05973 9.1875 3.96998 9.1575 3.00098 9.1215V10.125C3.00098 10.2245 2.96147 10.3198 2.89114 10.3902C2.82082 10.4605 2.72543 10.5 2.62598 10.5H1.12598C1.02652 10.5 0.931138 10.4605 0.860811 10.3902C0.790485 10.3198 0.750977 10.2245 0.750977 10.125V8.706C0.293477 8.3655 0.000976562 7.81875 0.000976562 7.20825V6.8985C0.00110244 6.77509 0.0134121 6.65199 0.0377266 6.531L0.288977 5.271C0.371477 4.8615 0.637726 4.512 1.01198 4.32525C1.14007 4.26123 1.24132 4.15387 1.29773 4.02225L1.89173 2.63625H1.89023ZM6.95273 3.01875C6.92535 3.00277 6.89335 2.99659 6.862 3.00123C6.83065 3.00586 6.80181 3.02104 6.78023 3.04425L4.53773 5.4345C4.51907 5.45457 4.50666 5.47965 4.50203 5.50666C4.49739 5.53367 4.50073 5.56144 4.51163 5.58659C4.52253 5.61173 4.54052 5.63315 4.56341 5.64823C4.58629 5.66331 4.61307 5.6714 4.64048 5.6715H5.57123L5.06648 7.31775C5.05706 7.3482 5.05824 7.38094 5.06982 7.41063C5.08139 7.44032 5.10269 7.46521 5.13023 7.48125C5.18648 7.5135 5.25773 7.50375 5.30273 7.45575L7.46273 5.0655C7.48139 5.04543 7.49379 5.02035 7.49843 4.99334C7.50306 4.96633 7.49972 4.93856 7.48882 4.91341C7.47792 4.88827 7.45993 4.86685 7.43705 4.85177C7.41416 4.83669 7.38738 4.8286 7.35998 4.8285H6.42923L7.01573 3.18225C7.02514 3.1518 7.02396 3.11907 7.01239 3.08937C7.00081 3.05968 6.97952 3.03479 6.95198 3.01875H6.95273Z" fill="#212427"/>
<path d="M1.89023 2.63625C2.0349 2.29875 2.2755 2.01116 2.58215 1.80917C2.88881 1.60718 3.24802 1.49967 3.61523 1.5H8.38673C9.13673 1.5 9.81473 1.947 10.1102 2.63625L10.7042 4.02225C10.7605 4.1535 10.8617 4.2615 10.9892 4.32525C11.3642 4.51275 11.6305 4.8615 11.713 5.27175L11.9642 6.531C11.989 6.65175 12.001 6.77475 12.001 6.8985V7.20825C12.001 7.81875 11.7085 8.3655 11.251 8.706V10.125C11.251 10.2245 11.2115 10.3198 11.1411 10.3902C11.0708 10.4605 10.9754 10.5 10.876 10.5H9.37598C9.27652 10.5 9.18114 10.4605 9.11081 10.3902C9.04049 10.3198 9.00098 10.2245 9.00098 10.125V9.1215C8.03198 9.1575 6.94223 9.1875 6.00098 9.1875C5.05973 9.1875 3.96998 9.1575 3.00098 9.1215V10.125C3.00098 10.2245 2.96147 10.3198 2.89114 10.3902C2.82082 10.4605 2.72543 10.5 2.62598 10.5H1.12598C1.02652 10.5 0.931138 10.4605 0.860811 10.3902C0.790485 10.3198 0.750977 10.2245 0.750977 10.125V8.706C0.293477 8.3655 0.000976562 7.81875 0.000976562 7.20825V6.8985C0.00110244 6.77509 0.0134121 6.65199 0.0377266 6.531L0.288977 5.271C0.371477 4.8615 0.637726 4.512 1.01198 4.32525C1.14007 4.26123 1.24132 4.15387 1.29773 4.02225L1.89173 2.63625H1.89023ZM6.95273 3.01875C6.92535 3.00277 6.89335 2.99659 6.862 3.00123C6.83065 3.00586 6.80181 3.02104 6.78023 3.04425L4.53773 5.4345C4.51907 5.45457 4.50666 5.47965 4.50203 5.50666C4.49739 5.53367 4.50073 5.56144 4.51163 5.58659C4.52253 5.61173 4.54052 5.63315 4.56341 5.64823C4.58629 5.66331 4.61307 5.6714 4.64048 5.6715H5.57123L5.06648 7.31775C5.05706 7.3482 5.05824 7.38094 5.06982 7.41063C5.08139 7.44032 5.10269 7.46521 5.13023 7.48125C5.18648 7.5135 5.25773 7.50375 5.30273 7.45575L7.46273 5.0655C7.48139 5.04543 7.49379 5.02035 7.49843 4.99334C7.50306 4.96633 7.49972 4.93856 7.48882 4.91341C7.47792 4.88827 7.45993 4.86685 7.43705 4.85177C7.41416 4.83669 7.38738 4.8286 7.35998 4.8285H6.42923L7.01573 3.18225C7.02514 3.1518 7.02396 3.11907 7.01239 3.08937C7.00081 3.05968 6.97952 3.03479 6.95198 3.01875H6.95273Z" fill="#E7F0ED"/>
</g>
<defs>
<clipPath id="clip0_7823_34247">
<rect width="12" height="12" fill="white"/>
</clipPath>
</defs>
</svg>
