<svg width="49" height="56" viewBox="0 0 49 56" fill="none" xmlns="http://www.w3.org/2000/svg">
<path opacity="0.5" d="M3.83214 4.16624L3.83274 4.16563C5.17725 2.81998 6.96887 2.09099 9.76263 1.71524C12.5851 1.33562 16.2771 1.3335 21.3333 1.3335H26.6667C31.7229 1.3335 35.4149 1.33562 38.2374 1.71524C41.0311 2.09099 42.8228 2.81998 44.1673 4.16563L44.1679 4.16624C45.5135 5.51074 46.2425 7.30236 46.6183 10.0961C46.9979 12.9186 47 16.6105 47 21.6668V32.3335C47 37.3898 46.9979 41.0817 46.6183 43.9042C46.2425 46.698 45.5135 48.4896 44.1679 49.8341L44.1673 49.8347C42.8228 51.1803 41.0311 51.9093 38.2374 52.2851C35.4149 52.6647 31.7229 52.6668 26.6667 52.6668H21.3333C16.2771 52.6668 12.5851 52.6647 9.76263 52.2851C6.96887 51.9093 5.17725 51.1803 3.83274 49.8347L3.83214 49.8341C2.48649 48.4896 1.75749 46.698 1.38174 43.9042C1.00213 41.0817 1 37.3898 1 32.3335V21.6668C1 16.6105 1.00213 12.9186 1.38174 10.0961C1.75749 7.30236 2.48649 5.51074 3.83214 4.16624Z" fill="#EEFFFB" stroke="#1F9F80" stroke-width="2"/>
<path fill-rule="evenodd" clip-rule="evenodd" d="M8 14C8 13.4696 8.21071 12.9609 8.58579 12.5858C8.96086 12.2107 9.46957 12 10 12H31.3333C31.8638 12 32.3725 12.2107 32.7475 12.5858C33.1226 12.9609 33.3333 13.4696 33.3333 14C33.3333 14.5304 33.1226 15.0391 32.7475 15.4142C32.3725 15.7893 31.8638 16 31.3333 16H10C9.46957 16 8.96086 15.7893 8.58579 15.4142C8.21071 15.0391 8 14.5304 8 14ZM8 24.6667C8 24.1362 8.21071 23.6275 8.58579 23.2525C8.96086 22.8774 9.46957 22.6667 10 22.6667H23.3333C23.8638 22.6667 24.3725 22.8774 24.7475 23.2525C25.1226 23.6275 25.3333 24.1362 25.3333 24.6667C25.3333 25.1971 25.1226 25.7058 24.7475 26.0809C24.3725 26.456 23.8638 26.6667 23.3333 26.6667H10C9.46957 26.6667 8.96086 26.456 8.58579 26.0809C8.21071 25.7058 8 25.1971 8 24.6667Z" fill="#1F9F80"/>
<path fill-rule="evenodd" clip-rule="evenodd" d="M49 48C49 52.4183 45.4183 56 41 56C36.5817 56 33 52.4183 33 48C33 43.5817 36.5817 40 41 40C45.4183 40 49 43.5817 49 48ZM44.2243 45.5757C44.4586 45.8101 44.4586 46.1899 44.2243 46.4243L40.2243 50.4243C39.9899 50.6586 39.6101 50.6586 39.3757 50.4243L37.7757 48.8243C37.5414 48.5899 37.5414 48.2101 37.7757 47.9757C38.0101 47.7414 38.3899 47.7414 38.6243 47.9757L39.8 49.1515L41.5879 47.3636L43.3757 45.5757C43.6101 45.3414 43.9899 45.3414 44.2243 45.5757Z" fill="url(#paint0_linear_12700_15096)"/>
<defs>
<linearGradient id="paint0_linear_12700_15096" x1="41" y1="40" x2="41" y2="56" gradientUnits="userSpaceOnUse">
<stop stop-color="#0D9563"/>
<stop offset="1" stop-color="#00A9AB"/>
</linearGradient>
</defs>
</svg>
