<svg width="20" height="20" viewBox="0 0 20 20" fill="none" xmlns="http://www.w3.org/2000/svg">
<path d="M3.775 17.5L3.775 17.5003C3.77511 17.7189 3.83372 17.9335 3.94475 18.1218C4.05578 18.3102 4.21519 18.4653 4.40642 18.5713C4.59767 18.6772 4.81377 18.73 5.0323 18.7243C5.25085 18.7185 5.46386 18.6544 5.64925 18.5385L10 15.8193L14.3516 18.5385L14.3523 18.539C14.5376 18.6544 14.7505 18.7182 14.9688 18.7238C15.1871 18.7294 15.4029 18.6765 15.5939 18.5706C15.7849 18.4647 15.9442 18.3097 16.0551 18.1216C16.1661 17.9335 16.2247 17.7191 16.225 17.5008V17.5V3.75C16.225 3.25935 16.0301 2.78879 15.6831 2.44185C15.3362 2.09491 14.8657 1.9 14.375 1.9H5.625C5.13435 1.9 4.66379 2.09491 4.31685 2.44185C3.96991 2.78879 3.775 3.25935 3.775 3.75L3.775 17.5Z" stroke="#244C66" stroke-width="1.2"/>
</svg>
