<svg width="21" height="21" viewBox="0 0 21 21" fill="none" xmlns="http://www.w3.org/2000/svg">
<path d="M17.8063 13.2787L14.1258 11.6295L14.1156 11.6248C13.9246 11.5431 13.7161 11.5103 13.5092 11.5294C13.3023 11.5485 13.1034 11.6189 12.9305 11.7342C12.9101 11.7476 12.8906 11.7622 12.8719 11.7779L10.9703 13.399C9.76563 12.8139 8.52188 11.5795 7.93673 10.3904L9.56016 8.45995C9.57579 8.44042 9.59063 8.42089 9.60469 8.39979C9.71753 8.22737 9.78599 8.02973 9.80398 7.82446C9.82197 7.61919 9.78894 7.41265 9.70782 7.22323V7.21386L8.05391 3.52714C7.94668 3.27969 7.76229 3.07355 7.52828 2.93951C7.29426 2.80547 7.02317 2.7507 6.75548 2.78339C5.69686 2.92269 4.72515 3.44258 4.02183 4.24596C3.31851 5.04934 2.93169 6.08127 2.9336 7.14901C2.9336 13.3521 7.98048 18.399 14.1836 18.399C15.2513 18.4009 16.2833 18.0141 17.0867 17.3108C17.89 16.6075 18.4099 15.6358 18.5492 14.5771C18.582 14.3095 18.5273 14.0385 18.3934 13.8045C18.2595 13.5705 18.0536 13.3861 17.8063 13.2787ZM14.1836 17.149C11.5323 17.1461 8.99047 16.0916 7.11573 14.2169C5.24099 12.3421 4.1865 9.80029 4.1836 7.14901C4.18066 6.38611 4.45552 5.64823 4.95683 5.07316C5.45815 4.49809 6.15165 4.12516 6.90782 4.02401C6.90751 4.02713 6.90751 4.03027 6.90782 4.03339L8.54844 7.70526L6.9336 9.63807C6.91721 9.65693 6.90232 9.67705 6.88907 9.69823C6.7715 9.87863 6.70253 10.0864 6.68885 10.3012C6.67516 10.5161 6.71722 10.7309 6.81094 10.9248C7.51876 12.3724 8.97735 13.8201 10.4406 14.5271C10.6359 14.62 10.8519 14.6606 11.0676 14.645C11.2833 14.6294 11.4912 14.5581 11.6711 14.4381C11.6912 14.4246 11.7105 14.41 11.7289 14.3943L13.6281 12.774L17.3 14.4185C17.3 14.4185 17.3063 14.4185 17.3086 14.4185C17.2087 15.1758 16.8363 15.8707 16.2611 16.3732C15.686 16.8758 14.9474 17.1516 14.1836 17.149Z" fill="#244C66"/>
</svg>
