<svg width="20" height="20" viewBox="0 0 20 20" fill="none" xmlns="http://www.w3.org/2000/svg">
<path d="M6.66797 5.83341C6.67797 4.02091 6.7588 3.03925 7.3988 2.39925C8.1313 1.66675 9.30964 1.66675 11.6663 1.66675H12.4996C14.8571 1.66675 16.0355 1.66675 16.768 2.39925C17.4996 3.13091 17.4996 4.31008 17.4996 6.66675V13.3334C17.4996 15.6901 17.4996 16.8692 16.768 17.6009C16.0346 18.3334 14.8571 18.3334 12.4996 18.3334H11.6663C9.30964 18.3334 8.1313 18.3334 7.3988 17.6009C6.7588 16.9609 6.67797 15.9792 6.66797 14.1667" stroke="#244C66" stroke-width="1.5" stroke-linecap="round"/>
<path d="M6.66667 16.25C4.7025 16.25 3.72 16.25 3.11 15.64C2.5 15.0292 2.5 14.0475 2.5 12.0833V7.91667C2.5 5.9525 2.5 4.97 3.11 4.36C3.72 3.75 4.7025 3.75 6.66667 3.75" stroke="#244C66" stroke-width="1.5"/>
<path d="M12.5 10.0002H5M5 10.0002L6.66667 11.6668M5 10.0002L6.66667 8.3335" stroke="#244C66" stroke-width="1.5" stroke-linecap="round" stroke-linejoin="round"/>
</svg>
