<svg width="14" height="14" viewBox="0 0 14 14" fill="none" xmlns="http://www.w3.org/2000/svg">
<path d="M6.99967 0.333496C3.33301 0.333496 0.333008 3.3335 0.333008 7.00016C0.333008 10.6668 3.33301 13.6668 6.99967 13.6668C10.6663 13.6668 13.6663 10.6668 13.6663 7.00016C13.6663 3.3335 10.6663 0.333496 6.99967 0.333496ZM9.33301 8.3335C9.13301 8.66683 8.73301 8.7335 8.39967 8.60016L6.66634 7.60016C6.46634 7.46683 6.33301 7.26683 6.33301 7.00016V3.66683C6.33301 3.26683 6.59967 3.00016 6.99967 3.00016C7.39967 3.00016 7.66634 3.26683 7.66634 3.66683V6.60016L9.06634 7.40016C9.39967 7.60016 9.46634 8.00016 9.33301 8.3335Z" fill="#0D9563"/>
</svg>
