<svg width="14" height="15" viewBox="0 0 14 15" fill="none" xmlns="http://www.w3.org/2000/svg">
<path fill-rule="evenodd" clip-rule="evenodd" d="M6.66667 0.728638C2.98467 0.728638 0 3.7133 0 7.3953C0 11.0773 2.98467 14.062 6.66667 14.062C10.3487 14.062 13.3333 11.0773 13.3333 7.3953C13.3333 3.7133 10.3487 0.728638 6.66667 0.728638ZM6.66667 1.3953C6.66667 2.9866 6.03453 4.51273 4.90931 5.63794C3.78409 6.76316 2.25797 7.3953 0.666667 7.3953C2.25797 7.3953 3.78409 8.02744 4.90931 9.15266C6.03453 10.2779 6.66667 11.804 6.66667 13.3953C6.66667 11.804 7.29881 10.2779 8.42403 9.15266C9.54924 8.02744 11.0754 7.3953 12.6667 7.3953C11.0754 7.3953 9.54924 6.76316 8.42403 5.63794C7.29881 4.51273 6.66667 2.9866 6.66667 1.3953Z" fill="#00226D"/>
</svg>
