<svg width="14" height="14" viewBox="0 0 14 14" fill="none" xmlns="http://www.w3.org/2000/svg">
<path d="M13.6562 6.14875L10.8375 8.60875L11.6818 12.2712C11.7265 12.4627 11.7138 12.6631 11.6452 12.8474C11.5766 13.0316 11.4552 13.1916 11.2962 13.3072C11.1372 13.4229 10.9477 13.4891 10.7512 13.4976C10.5548 13.5061 10.3602 13.4565 10.1918 13.355L6.99747 11.4175L3.80996 13.355C3.64157 13.4565 3.447 13.5061 3.25057 13.4976C3.05415 13.4891 2.86459 13.4229 2.70559 13.3072C2.54659 13.1916 2.42521 13.0316 2.35662 12.8474C2.28803 12.6631 2.27528 12.4627 2.31996 12.2712L3.16309 8.6125L0.343715 6.14875C0.194595 6.02014 0.0867665 5.85036 0.03375 5.66071C-0.0192664 5.47107 -0.0151101 5.26999 0.0456975 5.08269C0.106505 4.89539 0.221257 4.73022 0.375564 4.60788C0.529871 4.48554 0.716862 4.41149 0.91309 4.395L4.62934 4.07312L6.07997 0.613122C6.15572 0.43157 6.2835 0.27649 6.44721 0.167408C6.61092 0.0583271 6.80324 0.00012207 6.99997 0.00012207C7.19669 0.00012207 7.38901 0.0583271 7.55272 0.167408C7.71643 0.27649 7.84421 0.43157 7.91997 0.613122L9.37496 4.07312L13.09 4.395C13.2862 4.41149 13.4732 4.48554 13.6275 4.60788C13.7818 4.73022 13.8966 4.89539 13.9574 5.08269C14.0182 5.26999 14.0223 5.47107 13.9693 5.66071C13.9163 5.85036 13.8085 6.02014 13.6593 6.14875H13.6562Z" fill="#FDD924"/>
</svg>
