<svg width="78" height="78" viewBox="0 0 78 78" fill="none" xmlns="http://www.w3.org/2000/svg">
<path d="M40.7672 9.26985L20.882 42.2492C20.7789 42.4209 20.7232 42.6169 20.7206 42.8171C20.718 43.0174 20.7686 43.2147 20.8672 43.389C20.9659 43.5633 21.1091 43.7082 21.2821 43.809C21.4552 43.9099 21.6519 43.9629 21.8522 43.9628H31.9117C32.66 43.9628 33.2694 44.5722 33.2694 45.3205V66.3756H32.0726V72.0793H33.9056C34.0294 72.0888 34.1534 72.0632 34.2634 72.0055C34.3733 71.9477 34.4647 71.8601 34.5272 71.7527L56.6426 35.5193C56.7052 35.4164 56.7393 35.2988 56.7415 35.1784C56.7438 35.058 56.714 34.9391 56.6552 34.834C56.5965 34.7289 56.5109 34.6413 56.4071 34.5801C56.3034 34.5189 56.1853 34.4864 56.0649 34.4858H44.5867C44.2868 34.4858 43.9991 34.3666 43.787 34.1545C43.5749 33.9424 43.4557 33.6547 43.4557 33.3548V7.2516C43.4572 7.07809 43.3916 6.91072 43.2726 6.78445C43.1536 6.65817 42.9904 6.58277 42.8171 6.57397L40.7672 6.57153V9.26985Z" fill="url(#paint0_linear_6036_10733)"/>
<g filter="url(#filter0_i_6036_10733)">
<path d="M40.2016 6.90061L18.8906 42.2468C18.7869 42.4183 18.7307 42.6143 18.7277 42.8147C18.7246 43.0151 18.7749 43.2128 18.8734 43.3873C18.9718 43.5619 19.1149 43.7072 19.288 43.8083C19.461 43.9094 19.6578 43.9627 19.8583 43.9628H29.9178C30.6686 43.9628 31.2755 44.5722 31.2755 45.3205V71.4017C31.2755 72.0842 32.1774 72.3377 32.5333 71.7527L54.6511 35.5193C54.7138 35.4162 54.748 35.2984 54.7501 35.1778C54.7522 35.0572 54.7222 34.9382 54.6632 34.833C54.6041 34.7278 54.5182 34.6402 54.4141 34.5792C54.3101 34.5182 54.1916 34.4859 54.071 34.4858H42.5928C42.2929 34.4858 42.0052 34.3666 41.7931 34.1545C41.581 33.9424 41.4618 33.6548 41.4618 33.3548V7.25161C41.4618 6.56423 40.5575 6.31317 40.2016 6.90061Z" fill="url(#paint1_linear_6036_10733)"/>
</g>
<path d="M40.2016 6.90061L18.8906 42.2468C18.7869 42.4183 18.7307 42.6143 18.7277 42.8147C18.7246 43.0151 18.7749 43.2128 18.8734 43.3873C18.9718 43.5619 19.1149 43.7072 19.288 43.8083C19.461 43.9094 19.6578 43.9627 19.8583 43.9628H29.9178C30.6686 43.9628 31.2755 44.5722 31.2755 45.3205V71.4017C31.2755 72.0842 32.1774 72.3377 32.5333 71.7527L54.6511 35.5193C54.7138 35.4162 54.748 35.2984 54.7501 35.1778C54.7522 35.0572 54.7222 34.9382 54.6632 34.833C54.6041 34.7278 54.5182 34.6402 54.4141 34.5792C54.3101 34.5182 54.1916 34.4859 54.071 34.4858H42.5928C42.2929 34.4858 42.0052 34.3666 41.7931 34.1545C41.581 33.9424 41.4618 33.6548 41.4618 33.3548V7.25161C41.4618 6.56423 40.5575 6.31317 40.2016 6.90061Z" fill="url(#paint2_linear_6036_10733)"/>
<path d="M40.2016 6.90061L18.8906 42.2468C18.7869 42.4183 18.7307 42.6143 18.7277 42.8147C18.7246 43.0151 18.7749 43.2128 18.8734 43.3873C18.9718 43.5619 19.1149 43.7072 19.288 43.8083C19.461 43.9094 19.6578 43.9627 19.8583 43.9628H29.9178C30.6686 43.9628 31.2755 44.5722 31.2755 45.3205V71.4017C31.2755 72.0842 32.1774 72.3377 32.5333 71.7527L54.6511 35.5193C54.7138 35.4162 54.748 35.2984 54.7501 35.1778C54.7522 35.0572 54.7222 34.9382 54.6632 34.833C54.6041 34.7278 54.5182 34.6402 54.4141 34.5792C54.3101 34.5182 54.1916 34.4859 54.071 34.4858H42.5928C42.2929 34.4858 42.0052 34.3666 41.7931 34.1545C41.581 33.9424 41.4618 33.6548 41.4618 33.3548V7.25161C41.4618 6.56423 40.5575 6.31317 40.2016 6.90061Z" fill="url(#paint3_radial_6036_10733)"/>
<path d="M40.2016 6.90061L18.8906 42.2468C18.7869 42.4183 18.7307 42.6143 18.7277 42.8147C18.7246 43.0151 18.7749 43.2128 18.8734 43.3873C18.9718 43.5619 19.1149 43.7072 19.288 43.8083C19.461 43.9094 19.6578 43.9627 19.8583 43.9628H29.9178C30.6686 43.9628 31.2755 44.5722 31.2755 45.3205V71.4017C31.2755 72.0842 32.1774 72.3377 32.5333 71.7527L54.6511 35.5193C54.7138 35.4162 54.748 35.2984 54.7501 35.1778C54.7522 35.0572 54.7222 34.9382 54.6632 34.833C54.6041 34.7278 54.5182 34.6402 54.4141 34.5792C54.3101 34.5182 54.1916 34.4859 54.071 34.4858H42.5928C42.2929 34.4858 42.0052 34.3666 41.7931 34.1545C41.581 33.9424 41.4618 33.6548 41.4618 33.3548V7.25161C41.4618 6.56423 40.5575 6.31317 40.2016 6.90061Z" fill="url(#paint4_linear_6036_10733)"/>
<path d="M40.2016 6.90061L18.8906 42.2468C18.7869 42.4183 18.7307 42.6143 18.7277 42.8147C18.7246 43.0151 18.7749 43.2128 18.8734 43.3873C18.9718 43.5619 19.1149 43.7072 19.288 43.8083C19.461 43.9094 19.6578 43.9627 19.8583 43.9628H29.9178C30.6686 43.9628 31.2755 44.5722 31.2755 45.3205V71.4017C31.2755 72.0842 32.1774 72.3377 32.5333 71.7527L54.6511 35.5193C54.7138 35.4162 54.748 35.2984 54.7501 35.1778C54.7522 35.0572 54.7222 34.9382 54.6632 34.833C54.6041 34.7278 54.5182 34.6402 54.4141 34.5792C54.3101 34.5182 54.1916 34.4859 54.071 34.4858H42.5928C42.2929 34.4858 42.0052 34.3666 41.7931 34.1545C41.581 33.9424 41.4618 33.6548 41.4618 33.3548V7.25161C41.4618 6.56423 40.5575 6.31317 40.2016 6.90061Z" fill="url(#paint5_radial_6036_10733)"/>
<defs>
<filter id="filter0_i_6036_10733" x="18.7275" y="6.57202" width="36.0227" height="65.5068" filterUnits="userSpaceOnUse" color-interpolation-filters="sRGB">
<feFlood flood-opacity="0" result="BackgroundImageFix"/>
<feBlend mode="normal" in="SourceGraphic" in2="BackgroundImageFix" result="shape"/>
<feColorMatrix in="SourceAlpha" type="matrix" values="0 0 0 0 0 0 0 0 0 0 0 0 0 0 0 0 0 0 127 0" result="hardAlpha"/>
<feOffset/>
<feGaussianBlur stdDeviation="0.25"/>
<feComposite in2="hardAlpha" operator="arithmetic" k2="-1" k3="1"/>
<feColorMatrix type="matrix" values="0 0 0 0 0.968627 0 0 0 0 0.431373 0 0 0 0 0.337255 0 0 0 1 0"/>
<feBlend mode="normal" in2="shape" result="effect1_innerShadow_6036_10733"/>
</filter>
<linearGradient id="paint0_linear_6036_10733" x1="44.867" y1="19.4172" x2="44.867" y2="57.798" gradientUnits="userSpaceOnUse">
<stop stop-color="#FFBD61"/>
<stop offset="1" stop-color="#EB5C74"/>
</linearGradient>
<linearGradient id="paint1_linear_6036_10733" x1="36.738" y1="26.9344" x2="36.738" y2="64.8034" gradientUnits="userSpaceOnUse">
<stop stop-color="#FFA547"/>
<stop offset="1" stop-color="#F14B49"/>
</linearGradient>
<linearGradient id="paint2_linear_6036_10733" x1="36.738" y1="6.57154" x2="36.738" y2="33.5425" gradientUnits="userSpaceOnUse">
<stop stop-color="#DF9844"/>
<stop offset="1" stop-color="#DF9844" stop-opacity="0"/>
</linearGradient>
<radialGradient id="paint3_radial_6036_10733" cx="0" cy="0" r="1" gradientUnits="userSpaceOnUse" gradientTransform="translate(41.6812 19.3148) rotate(90) scale(15.7364 3.43339)">
<stop stop-color="#FE9052"/>
<stop offset="1" stop-color="#FE9052" stop-opacity="0"/>
</radialGradient>
<linearGradient id="paint4_linear_6036_10733" x1="31.841" y1="20.4068" x2="32.8891" y2="21.0357" gradientUnits="userSpaceOnUse">
<stop stop-color="#C76C38"/>
<stop offset="1" stop-color="#C76C38" stop-opacity="0"/>
</linearGradient>
<radialGradient id="paint5_radial_6036_10733" cx="0" cy="0" r="1" gradientUnits="userSpaceOnUse" gradientTransform="translate(41.8201 18.8078) rotate(90) scale(16.3008 5.94141)">
<stop stop-color="#FFB54B"/>
<stop offset="1" stop-color="#FFB54B" stop-opacity="0"/>
</radialGradient>
</defs>
</svg>
