<svg width="24" height="24" viewBox="0 0 24 24" fill="none" xmlns="http://www.w3.org/2000/svg">
<path d="M22.1446 10.963L20.1606 9.11983L18.4006 5.59983C18.2495 5.35405 18.0376 5.15134 17.7854 5.01122C17.5332 4.8711 17.2491 4.7983 16.9606 4.79983H7.04059C6.75207 4.7983 6.46802 4.8711 6.2158 5.01122C5.96359 5.15134 5.75171 5.35405 5.60059 5.59983L3.84059 9.11983L1.85659 10.963C1.77576 11.038 1.7113 11.1288 1.66725 11.2299C1.62319 11.3309 1.6005 11.44 1.60059 11.5502V18.3998C1.60059 18.612 1.68487 18.8155 1.8349 18.9655C1.98493 19.1155 2.18841 19.1998 2.40059 19.1998H5.60059C5.92059 19.1998 6.40059 18.8798 6.40059 18.5598V17.5998H17.6006V18.3998C17.6006 18.7198 17.9206 19.1998 18.2406 19.1998H21.6006C21.8128 19.1998 22.0162 19.1155 22.1663 18.9655C22.3163 18.8155 22.4006 18.612 22.4006 18.3998V11.5502C22.4007 11.44 22.378 11.3309 22.3339 11.2299C22.2899 11.1288 22.2254 11.038 22.1446 10.963ZM7.20059 6.39983H16.8006L18.4006 9.59983H5.60059L7.20059 6.39983ZM8.00059 13.7598C8.00059 14.0798 7.52059 14.3998 7.20059 14.3998H3.84059C3.52059 14.3998 3.20059 13.9198 3.20059 13.5998V11.8398C3.36059 11.3598 3.68059 11.0398 4.16059 11.1998L7.36059 11.8398C7.68059 11.8398 8.00059 12.3198 8.00059 12.6398V13.7598ZM20.8006 13.5998C20.8006 13.9198 20.4806 14.3998 20.1606 14.3998H16.8006C16.4806 14.3998 16.0006 14.0798 16.0006 13.7598V12.6398C16.0006 12.3198 16.3206 11.8398 16.6406 11.8398L19.8406 11.1998C20.3206 11.0398 20.6406 11.3598 20.8006 11.8398V13.5998Z" fill="#1D1B20" fill-opacity="0.8"/>
</svg>
