<svg width="14" height="14" viewBox="0 0 14 14" fill="none" xmlns="http://www.w3.org/2000/svg">
<path d="M13.6565 6.14887L10.8377 8.60887L11.6821 12.2714C11.7268 12.4628 11.714 12.6632 11.6454 12.8475C11.5768 13.0317 11.4555 13.1917 11.2965 13.3073C11.1375 13.423 10.9479 13.4892 10.7515 13.4977C10.555 13.5062 10.3605 13.4566 10.1921 13.3551L6.99771 11.4176L3.81021 13.3551C3.64182 13.4566 3.44724 13.5062 3.25082 13.4977C3.05439 13.4892 2.86483 13.423 2.70583 13.3073C2.54683 13.1917 2.42545 13.0317 2.35686 12.8475C2.28828 12.6632 2.27553 12.4628 2.32021 12.2714L3.16333 8.61262L0.343959 6.14887C0.19484 6.02026 0.0870106 5.85048 0.0339942 5.66084C-0.0190223 5.47119 -0.014866 5.27011 0.0459417 5.08281C0.106749 4.89552 0.221502 4.73034 0.375808 4.608C0.530115 4.48567 0.717106 4.41161 0.913334 4.39512L4.62958 4.07324L6.08021 0.613244C6.15596 0.431692 6.28374 0.276612 6.44745 0.16753C6.61116 0.0584492 6.80349 0.000244141 7.00021 0.000244141C7.19693 0.000244141 7.38926 0.0584492 7.55297 0.16753C7.71668 0.276612 7.84446 0.431692 7.92021 0.613244L9.37521 4.07324L13.0902 4.39512C13.2864 4.41161 13.4734 4.48567 13.6277 4.608C13.782 4.73034 13.8968 4.89552 13.9576 5.08281C14.0184 5.27011 14.0226 5.47119 13.9695 5.66084C13.9165 5.85048 13.8087 6.02026 13.6596 6.14887H13.6565Z" fill="url(#paint0_linear_7255_16381)"/>
<defs>
<linearGradient id="paint0_linear_7255_16381" x1="7.00177" y1="0.000244141" x2="7.00177" y2="13.4986" gradientUnits="userSpaceOnUse">
<stop stop-color="#FDD924"/>
<stop offset="1" stop-color="#FF8F43"/>
</linearGradient>
</defs>
</svg>
