<svg width="32" height="32" viewBox="0 0 32 32" fill="none" xmlns="http://www.w3.org/2000/svg">
<path fill-rule="evenodd" clip-rule="evenodd" d="M9.66699 29.3332C9.66699 29.068 9.77235 28.8136 9.95988 28.6261C10.1474 28.4385 10.4018 28.3332 10.667 28.3332H21.3337C21.5989 28.3332 21.8532 28.4385 22.0408 28.6261C22.2283 28.8136 22.3337 29.068 22.3337 29.3332C22.3337 29.5984 22.2283 29.8527 22.0408 30.0403C21.8532 30.2278 21.5989 30.3332 21.3337 30.3332H10.667C10.4018 30.3332 10.1474 30.2278 9.95988 30.0403C9.77235 29.8527 9.66699 29.5984 9.66699 29.3332ZM16.0003 1.6665C16.2655 1.6665 16.5199 1.77186 16.7074 1.9594C16.895 2.14693 17.0003 2.40129 17.0003 2.6665V3.99984C17.0003 4.26505 16.895 4.51941 16.7074 4.70694C16.5199 4.89448 16.2655 4.99984 16.0003 4.99984C15.7351 4.99984 15.4808 4.89448 15.2932 4.70694C15.1057 4.51941 15.0003 4.26505 15.0003 3.99984V2.6665C15.0003 2.40129 15.1057 2.14693 15.2932 1.9594C15.4808 1.77186 15.7351 1.6665 16.0003 1.6665ZM1.66699 15.9998C1.66699 15.7346 1.77235 15.4803 1.95989 15.2927C2.14742 15.1052 2.40178 14.9998 2.66699 14.9998H4.00033C4.26554 14.9998 4.5199 15.1052 4.70743 15.2927C4.89497 15.4803 5.00033 15.7346 5.00033 15.9998C5.00033 16.2651 4.89497 16.5194 4.70743 16.7069C4.5199 16.8945 4.26554 16.9998 4.00033 16.9998H2.66699C2.40178 16.9998 2.14742 16.8945 1.95989 16.7069C1.77235 16.5194 1.66699 16.2651 1.66699 15.9998ZM27.0003 15.9998C27.0003 15.7346 27.1057 15.4803 27.2932 15.2927C27.4808 15.1052 27.7351 14.9998 28.0003 14.9998H29.3337C29.5989 14.9998 29.8532 15.1052 30.0408 15.2927C30.2283 15.4803 30.3337 15.7346 30.3337 15.9998C30.3337 16.2651 30.2283 16.5194 30.0408 16.7069C29.8532 16.8945 29.5989 16.9998 29.3337 16.9998H28.0003C27.7351 16.9998 27.4808 16.8945 27.2932 16.7069C27.1057 16.5194 27.0003 16.2651 27.0003 15.9998ZM8.11099 20.3332H2.66699C2.40178 20.3332 2.14742 20.4385 1.95989 20.6261C1.77235 20.8136 1.66699 21.068 1.66699 21.3332C1.66699 21.5984 1.77235 21.8527 1.95989 22.0403C2.14742 22.2278 2.40178 22.3332 2.66699 22.3332H29.3337C29.5989 22.3332 29.8532 22.2278 30.0408 22.0403C30.2283 21.8527 30.3337 21.5984 30.3337 21.3332C30.3337 21.068 30.2283 20.8136 30.0408 20.6261C29.8532 20.4385 29.5989 20.3332 29.3337 20.3332H23.8897H8.11099Z" fill="#0D9563"/>
<path opacity="0.5" d="M5.66641 25.3333C5.66641 25.068 5.77177 24.8137 5.9593 24.6261C6.14684 24.4386 6.40119 24.3333 6.66641 24.3333H25.3331C25.5983 24.3333 25.8526 24.4386 26.0402 24.6261C26.2277 24.8137 26.3331 25.068 26.3331 25.3333C26.3331 25.5985 26.2277 25.8528 26.0402 26.0404C25.8526 26.2279 25.5983 26.3333 25.3331 26.3333H6.66641C6.40119 26.3333 6.14684 26.2279 5.9593 26.0404C5.77177 25.8528 5.66641 25.5985 5.66641 25.3333ZM5.86374 5.86392C5.95661 5.77099 6.06688 5.69728 6.18824 5.64698C6.30961 5.59669 6.4397 5.5708 6.57108 5.5708C6.70245 5.5708 6.83254 5.59669 6.95391 5.64698C7.07527 5.69728 7.18554 5.77099 7.27841 5.86392L7.80241 6.38792C7.97905 6.57749 8.07521 6.82822 8.07064 7.08728C8.06607 7.34635 7.96112 7.59353 7.77791 7.77675C7.59469 7.95997 7.34751 8.06492 7.08844 8.06949C6.82937 8.07406 6.57864 7.97789 6.38908 7.80125L5.86374 7.27859C5.67647 7.09109 5.57129 6.83692 5.57129 6.57192C5.57129 6.30692 5.67647 6.05275 5.86374 5.86525M26.1331 5.86525C26.3203 6.05275 26.4255 6.30692 26.4255 6.57192C26.4255 6.83692 26.3203 7.09109 26.1331 7.27859L25.6104 7.80259C25.4208 7.97923 25.1701 8.07539 24.911 8.07082C24.652 8.06625 24.4048 7.9613 24.2216 7.77808C24.0384 7.59487 23.9334 7.34769 23.9288 7.08862C23.9243 6.82955 24.0204 6.57882 24.1971 6.38925L24.7197 5.86525C24.9072 5.67799 25.1614 5.5728 25.4264 5.5728C25.6914 5.5728 25.9456 5.67799 26.1331 5.86525ZM6.99974 15.9999C6.99974 17.5706 7.40241 19.0479 8.11041 20.3333H23.8891C24.5494 19.1304 24.926 17.7924 24.99 16.4217C25.0539 15.051 24.8036 13.6838 24.2582 12.4247C23.7127 11.1655 22.8866 10.0478 21.8429 9.15688C20.7992 8.26599 19.5656 7.62555 18.2364 7.28452C16.9073 6.9435 15.5177 6.91092 14.1741 7.18927C12.8304 7.46763 11.5681 8.04955 10.4838 8.89055C9.39956 9.73155 8.52193 10.8093 7.91806 12.0415C7.31419 13.2737 7.00008 14.6277 6.99974 15.9999Z" fill="#0D9563"/>
</svg>
