<svg width="16" height="16" viewBox="0 0 16 16" fill="none" xmlns="http://www.w3.org/2000/svg">
<path fill-rule="evenodd" clip-rule="evenodd" d="M10.7333 8.90615L11.0373 8.60415C11.4573 8.18682 12.1113 8.10082 12.6486 8.39282L13.9219 9.08548C14.7399 9.53015 14.9206 10.6201 14.2813 11.2555L13.3346 12.1968C13.0933 12.4368 12.7946 12.6115 12.4506 12.6435C11.6559 12.7175 10.0206 12.6775 8.09125 11.5482L10.7333 8.90615ZM6.79325 4.98882L6.98459 4.79815C7.45592 4.33015 7.50059 3.57815 7.08925 3.02882L6.24925 1.90682C5.73992 1.22682 4.75659 1.13682 4.17325 1.71682L3.12659 2.75682C2.83792 3.04482 2.64459 3.41682 2.66792 3.83015C2.71125 4.59015 2.96992 5.97682 4.10059 7.68082L6.79325 4.98882Z" fill="white"/>
<path opacity="0.6" d="M8.04192 7.66446C6.07792 5.71179 6.78859 4.99246 6.79325 4.98779L4.10059 7.68113C4.54525 8.35046 5.12392 9.06846 5.87659 9.81713C6.63659 10.5731 7.38325 11.1338 8.09125 11.5478L10.7333 8.90646C10.7333 8.90646 10.0119 9.62379 8.04192 7.66513" fill="white"/>
</svg>
