<svg width="12" height="10" viewBox="0 0 12 10" fill="none" xmlns="http://www.w3.org/2000/svg">
<path d="M1.88998 1.63625C2.03466 1.29875 2.27525 1.01116 2.58191 0.809169C2.88856 0.607177 3.24778 0.499674 3.61498 0.500001H8.38648C9.13648 0.500001 9.81448 0.947001 10.11 1.63625L10.704 3.02225C10.7602 3.1535 10.8615 3.2615 10.989 3.32525C11.364 3.51275 11.6302 3.8615 11.7127 4.27175L11.964 5.531C11.9887 5.65175 12.0007 5.77475 12.0007 5.8985V6.20825C12.0007 6.81875 11.7082 7.3655 11.2507 7.706V9.125C11.2507 9.22446 11.2112 9.31984 11.1409 9.39017C11.0706 9.46049 10.9752 9.5 10.8757 9.5H9.37573C9.27628 9.5 9.18089 9.46049 9.11057 9.39017C9.04024 9.31984 9.00073 9.22446 9.00073 9.125V8.1215C8.03173 8.1575 6.94198 8.1875 6.00073 8.1875C5.05948 8.1875 3.96973 8.1575 3.00073 8.1215V9.125C3.00073 9.22446 2.96122 9.31984 2.8909 9.39017C2.82057 9.46049 2.72519 9.5 2.62573 9.5H1.12573C1.02628 9.5 0.930893 9.46049 0.860567 9.39017C0.790241 9.31984 0.750732 9.22446 0.750732 9.125V7.706C0.293232 7.3655 0.000732422 6.81875 0.000732422 6.20825V5.8985C0.000858295 5.77509 0.013168 5.65199 0.0374824 5.531L0.288732 4.271C0.371232 3.8615 0.637482 3.512 1.01173 3.32525C1.13983 3.26123 1.24108 3.15387 1.29748 3.02225L1.89148 1.63625H1.88998ZM6.95248 2.01875C6.92511 2.00277 6.89311 1.99659 6.86176 2.00123C6.8304 2.00586 6.80156 2.02104 6.77998 2.04425L4.53748 4.4345C4.51882 4.45457 4.50642 4.47965 4.50178 4.50666C4.49715 4.53367 4.50049 4.56144 4.51139 4.58659C4.52229 4.61173 4.54028 4.63315 4.56316 4.64823C4.58605 4.66331 4.61283 4.6714 4.64023 4.6715H5.57098L5.06623 6.31775C5.05682 6.3482 5.05799 6.38094 5.06957 6.41063C5.08115 6.44032 5.10244 6.46521 5.12998 6.48125C5.18623 6.5135 5.25748 6.50375 5.30248 6.45575L7.46248 4.0655C7.48114 4.04543 7.49355 4.02035 7.49818 3.99334C7.50282 3.96633 7.49948 3.93856 7.48858 3.91341C7.47768 3.88827 7.45968 3.86685 7.4368 3.85177C7.41392 3.83669 7.38714 3.8286 7.35973 3.8285H6.42898L7.01548 2.18225C7.0249 2.1518 7.02372 2.11907 7.01214 2.08937C7.00057 2.05968 6.97927 2.03479 6.95173 2.01875H6.95248Z" fill="#212427"/>
<path d="M1.88998 1.63625C2.03466 1.29875 2.27525 1.01116 2.58191 0.809169C2.88856 0.607177 3.24778 0.499674 3.61498 0.500001H8.38648C9.13648 0.500001 9.81448 0.947001 10.11 1.63625L10.704 3.02225C10.7602 3.1535 10.8615 3.2615 10.989 3.32525C11.364 3.51275 11.6302 3.8615 11.7127 4.27175L11.964 5.531C11.9887 5.65175 12.0007 5.77475 12.0007 5.8985V6.20825C12.0007 6.81875 11.7082 7.3655 11.2507 7.706V9.125C11.2507 9.22446 11.2112 9.31984 11.1409 9.39017C11.0706 9.46049 10.9752 9.5 10.8757 9.5H9.37573C9.27628 9.5 9.18089 9.46049 9.11057 9.39017C9.04024 9.31984 9.00073 9.22446 9.00073 9.125V8.1215C8.03173 8.1575 6.94198 8.1875 6.00073 8.1875C5.05948 8.1875 3.96973 8.1575 3.00073 8.1215V9.125C3.00073 9.22446 2.96122 9.31984 2.8909 9.39017C2.82057 9.46049 2.72519 9.5 2.62573 9.5H1.12573C1.02628 9.5 0.930893 9.46049 0.860567 9.39017C0.790241 9.31984 0.750732 9.22446 0.750732 9.125V7.706C0.293232 7.3655 0.000732422 6.81875 0.000732422 6.20825V5.8985C0.000858295 5.77509 0.013168 5.65199 0.0374824 5.531L0.288732 4.271C0.371232 3.8615 0.637482 3.512 1.01173 3.32525C1.13983 3.26123 1.24108 3.15387 1.29748 3.02225L1.89148 1.63625H1.88998ZM6.95248 2.01875C6.92511 2.00277 6.89311 1.99659 6.86176 2.00123C6.8304 2.00586 6.80156 2.02104 6.77998 2.04425L4.53748 4.4345C4.51882 4.45457 4.50642 4.47965 4.50178 4.50666C4.49715 4.53367 4.50049 4.56144 4.51139 4.58659C4.52229 4.61173 4.54028 4.63315 4.56316 4.64823C4.58605 4.66331 4.61283 4.6714 4.64023 4.6715H5.57098L5.06623 6.31775C5.05682 6.3482 5.05799 6.38094 5.06957 6.41063C5.08115 6.44032 5.10244 6.46521 5.12998 6.48125C5.18623 6.5135 5.25748 6.50375 5.30248 6.45575L7.46248 4.0655C7.48114 4.04543 7.49355 4.02035 7.49818 3.99334C7.50282 3.96633 7.49948 3.93856 7.48858 3.91341C7.47768 3.88827 7.45968 3.86685 7.4368 3.85177C7.41392 3.83669 7.38714 3.8286 7.35973 3.8285H6.42898L7.01548 2.18225C7.0249 2.1518 7.02372 2.11907 7.01214 2.08937C7.00057 2.05968 6.97927 2.03479 6.95173 2.01875H6.95248Z" fill="#E7F0ED"/>
</svg>
