<svg width="20" height="20" viewBox="0 0 20 20" fill="none" xmlns="http://www.w3.org/2000/svg">
<path d="M3.27385 4.10742L4.45218 5.28576C3.83221 5.90415 3.34056 6.63897 3.00548 7.44799C2.67041 8.257 2.49851 9.12426 2.49968 9.99992C2.49968 11.8416 3.24552 13.5083 4.45218 14.7141L3.27468 15.8916C2.49976 15.1189 1.88514 14.2007 1.46612 13.1898C1.0471 12.1788 0.831949 11.0951 0.833016 10.0008C0.83151 8.90606 1.04637 7.82187 1.46526 6.81048C1.88414 5.7991 2.49878 4.88048 3.27385 4.10742ZM16.7255 4.10742C17.5005 4.88036 18.1151 5.79884 18.534 6.81007C18.9529 7.82131 19.1678 8.90536 19.1663 9.99992C19.1678 11.0945 18.9529 12.1785 18.534 13.1898C18.1151 14.201 17.5005 15.1195 16.7255 15.8924L15.5472 14.7141C16.1672 14.0957 16.6588 13.3609 16.9939 12.5519C17.329 11.7428 17.5009 10.8756 17.4997 9.99992C17.5009 9.12446 17.329 8.25739 16.9941 7.44853C16.6592 6.63967 16.1677 5.90495 15.548 5.28659L16.7255 4.10742ZM10.833 4.16659V9.16659H13.333L9.16635 15.8333V10.8333H6.66635L10.833 4.16659ZM5.63052 6.46409L6.80968 7.64326C6.49965 7.95236 6.25377 8.31968 6.08616 8.72412C5.91855 9.12856 5.83252 9.56213 5.83302 9.99992C5.83302 10.9208 6.20635 11.7541 6.80968 12.3574L5.63052 13.5358C5.16554 13.0719 4.79682 12.5208 4.54555 11.914C4.29427 11.3072 4.16541 10.6567 4.16635 9.99992C4.16635 8.61909 4.72635 7.36909 5.63052 6.46409ZM14.3697 6.46492C14.8344 6.92872 15.2029 7.47978 15.454 8.08642C15.7052 8.69307 15.834 9.34335 15.833 9.99992C15.834 10.6567 15.7051 11.3072 15.4538 11.914C15.2025 12.5208 14.8338 13.0719 14.3688 13.5358L13.1897 12.3574C13.4998 12.0482 13.7458 11.6808 13.9134 11.2762C14.081 10.8716 14.167 10.4379 14.1663 9.99992C14.167 9.56239 14.0811 9.12904 13.9138 8.72476C13.7465 8.32048 13.501 7.95323 13.1913 7.64409L14.3697 6.46492Z" fill="#0D9563"/>
</svg>
