<svg width="18" height="18" viewBox="0 0 18 18" fill="none" xmlns="http://www.w3.org/2000/svg">
<path fill-rule="evenodd" clip-rule="evenodd" d="M6.99345 1.66671C6.86239 1.78531 6.72466 1.89632 6.58095 1.99921C6.33262 2.16588 6.05345 2.28088 5.76012 2.33921C5.63262 2.36421 5.49928 2.37505 5.23345 2.39588C4.56595 2.44921 4.23178 2.47588 3.95345 2.57421C3.6352 2.68658 3.34614 2.86877 3.10749 3.10742C2.86884 3.34607 2.68665 3.63513 2.57428 3.95338C2.47595 4.23171 2.44928 4.56588 2.39595 5.23338C2.38686 5.40985 2.36794 5.58568 2.33928 5.76005C2.28095 6.05338 2.16595 6.33255 1.99928 6.58088C1.92678 6.68921 1.84012 6.79088 1.66678 6.99338C1.23262 7.50338 1.01512 7.75838 0.887617 8.02505C0.593451 8.64171 0.593451 9.35838 0.887617 9.97505C1.01512 10.2417 1.23262 10.4967 1.66678 11.0067C1.84012 11.2092 1.92678 11.3109 1.99928 11.4192C2.16595 11.6675 2.28095 11.9467 2.33928 12.24C2.36428 12.3675 2.37512 12.5009 2.39595 12.7667C2.44928 13.4342 2.47595 13.7684 2.57428 14.0467C2.68665 14.365 2.86884 14.654 3.10749 14.8927C3.34614 15.1313 3.6352 15.3135 3.95345 15.4259C4.23178 15.5242 4.56595 15.5509 5.23345 15.6042C5.49928 15.625 5.63262 15.6359 5.76012 15.6609C6.05345 15.7192 6.33262 15.835 6.58095 16.0009C6.68928 16.0734 6.79095 16.16 6.99345 16.3334C7.50345 16.7675 7.75845 16.985 8.02512 17.1125C8.64178 17.4067 9.35845 17.4067 9.97512 17.1125C10.2418 16.985 10.4968 16.7675 11.0068 16.3334C11.2093 16.16 11.311 16.0734 11.4193 16.0009C11.6676 15.8342 11.9468 15.7192 12.2401 15.6609C12.3676 15.6359 12.501 15.625 12.7668 15.6042C13.4343 15.5509 13.7684 15.5242 14.0468 15.4259C14.365 15.3135 14.6541 15.1313 14.8927 14.8927C15.1314 14.654 15.3136 14.365 15.426 14.0467C15.5243 13.7684 15.551 13.4342 15.6043 12.7667C15.6251 12.5009 15.636 12.3675 15.661 12.24C15.7193 11.9467 15.8351 11.6675 16.0009 11.4192C16.0734 11.3109 16.1601 11.2092 16.3334 11.0067C16.7676 10.4967 16.9851 10.2417 17.1126 9.97505C17.4068 9.35838 17.4068 8.64171 17.1126 8.02505C16.9851 7.75838 16.7676 7.50338 16.3334 6.99338C16.2149 6.86232 16.1038 6.7246 16.0009 6.58088C15.8344 6.33245 15.7189 6.05345 15.661 5.76005C15.6323 5.58568 15.6134 5.40985 15.6043 5.23338C15.551 4.56588 15.5243 4.23171 15.426 3.95338C15.3136 3.63513 15.1314 3.34607 14.8927 3.10742C14.6541 2.86877 14.365 2.68658 14.0468 2.57421C13.7684 2.47588 13.4343 2.44921 12.7668 2.39588C12.5903 2.38679 12.4145 2.36787 12.2401 2.33921C11.9467 2.28129 11.6677 2.16572 11.4193 1.99921C11.2757 1.8961 11.138 1.7851 11.0068 1.66671C10.4968 1.23255 10.2418 1.01505 9.97512 0.887548C9.67068 0.742032 9.33754 0.666504 9.00012 0.666504C8.66269 0.666504 8.32955 0.742032 8.02512 0.887548C7.75845 1.01505 7.50345 1.23255 6.99345 1.66671ZM12.6443 7.21921C12.7621 7.0903 12.8256 6.92094 12.8217 6.74638C12.8177 6.57181 12.7466 6.40548 12.6232 6.28201C12.4997 6.15854 12.3334 6.08744 12.1588 6.0835C11.9842 6.07957 11.8149 6.1431 11.686 6.26088L7.64428 10.3025L6.31428 8.97338C6.18537 8.8556 6.01601 8.79207 5.84144 8.79601C5.66688 8.79994 5.50055 8.87104 5.37708 8.99451C5.25361 9.11798 5.18251 9.28431 5.17857 9.45888C5.17464 9.63344 5.23817 9.8028 5.35595 9.93171L7.16428 11.74C7.29146 11.867 7.46378 11.9382 7.64345 11.9382C7.82312 11.9382 7.99544 11.867 8.12262 11.74L12.6443 7.21921Z" fill="#979797"/>
</svg>
