<svg width="18" height="17" viewBox="0 0 18 17" fill="none" xmlns="http://www.w3.org/2000/svg">
<path d="M15.875 0.4375H2.12501C1.71061 0.4375 1.31318 0.60212 1.02016 0.895146C0.727134 1.18817 0.562514 1.5856 0.562514 2V14.5C0.561266 14.7976 0.645781 15.0892 0.805948 15.34C0.966114 15.5907 1.19515 15.7901 1.46564 15.9141C1.67328 16.0113 1.89965 16.0619 2.12892 16.0625C2.49582 16.0616 2.85057 15.9309 3.13048 15.6938L3.14533 15.6812L5.56251 13.5625H15.875C16.2894 13.5625 16.6868 13.3979 16.9799 13.1049C17.2729 12.8118 17.4375 12.4144 17.4375 12V2C17.4375 1.5856 17.2729 1.18817 16.9799 0.895146C16.6868 0.60212 16.2894 0.4375 15.875 0.4375ZM15.5625 11.6875H5.44533C5.07749 11.6875 4.72144 11.8172 4.43986 12.0539L4.42501 12.0664L2.43751 13.8078V2.3125H15.5625V11.6875ZM5.56251 5.4375C5.56251 5.18886 5.66129 4.9504 5.8371 4.77459C6.01292 4.59877 6.25137 4.5 6.50001 4.5H11.5C11.7487 4.5 11.9871 4.59877 12.1629 4.77459C12.3387 4.9504 12.4375 5.18886 12.4375 5.4375C12.4375 5.68614 12.3387 5.9246 12.1629 6.10041C11.9871 6.27623 11.7487 6.375 11.5 6.375H6.50001C6.25137 6.375 6.01292 6.27623 5.8371 6.10041C5.66129 5.9246 5.56251 5.68614 5.56251 5.4375ZM5.56251 8.5625C5.56251 8.31386 5.66129 8.0754 5.8371 7.89959C6.01292 7.72377 6.25137 7.625 6.50001 7.625H11.5C11.7487 7.625 11.9871 7.72377 12.1629 7.89959C12.3387 8.0754 12.4375 8.31386 12.4375 8.5625C12.4375 8.81114 12.3387 9.0496 12.1629 9.22541C11.9871 9.40123 11.7487 9.5 11.5 9.5H6.50001C6.25137 9.5 6.01292 9.40123 5.8371 9.22541C5.66129 9.0496 5.56251 8.81114 5.56251 8.5625Z" fill="#3BB18D"/>
</svg>
