<?xml version="1.0" encoding="UTF-8"?>
<svg version="1.1" viewBox="0 0 2048 1546" width="1280" height="1280" xmlns="http://www.w3.org/2000/svg">
<path transform="translate(969,357)" d="m0 0h17l12 3 14 7 11 9 16 15 106 106 4 3 7-1 15-6 16-4 7-1h22l19 3 21 6 19 9 14 11 9 11 8 14 5 14 4 18 2 20 3 57 3 22 4 15 6 15 8 11 8 9 10 7 9 4 4 1h18l53-8 29-3 16 1 13 4 10 7 8 11 3 9v27l-4 23-11 43-15 56-15 46-8 18-12 23-12 17-9 10-4 5-14 11-15 8-15 6-1 1 24 10 11 7 5 7v7l-5 10-11 14-12 13-10 7-9 4-13 3-8 1h-33l-37-4-70-11-30-3-21-1-154-1h-136l-48 2-39 3-47 6-50 7-32 3-19 1h-31l-4-2 1-4 5-4 21-9 27-10 27-12 21-11 21-13 16-11 10-8 1-3h-63l-12-3-11-6-9-7-6-1-44 12-24 6-32 6-27 4-22 2h-16l-18-2-16-4-14-7-8-9-5-10v-15l5-15 10-18 8-11 10-13 24-26 33-33 8-7 13-12 11-9 14-11 12-8 20-12 12-6 18-5 13-3 1-156 3-12 7-11 11-13 8-8 8-7 19-19 10-8 14-9 10-6 12-11 25-25h2l2-4 13-12 7-7 2-3h2v-2l7-6 6-7 5-5 9-8 7-8h2l2-4 16-15 29-29 7-8 45-45 14-11 14-7z" fill="#0754FE"/>
<path transform="translate(1194,488)" d="m0 0h22l19 3 21 6 19 9 14 11 9 11 8 14 5 14 4 18 2 20 3 57 3 22 4 15 6 15 8 11 8 9 10 7 9 4 4 1h18l53-8 29-3 16 1 13 4 10 7 8 11 3 9v27l-4 23-11 43-15 56-15 46-8 18-12 23-12 17-9 10-4 5-14 11-15 8-15 6-1 1 24 10 11 7 5 7v7l-5 10-11 14-12 13-10 7-9 4-13 3-8 1h-33l-37-4-70-11-30-3-21-1-154-1h-136l-48 2-39 3-47 6-50 7-32 3-19 1h-31l-4-2 1-4 5-4 21-9 27-10 27-12 21-11 21-13 16-11 10-8 1-4 9-5 14-11 12-9 12-11 24-16 23-12 17-6 9-2h22l22 5 13 5 19 10 10 9 8 13 8 16 7 8 5 3 6-2 22-10 17-9 14-10 18-13 13-10 11-9 18-14 18-13 18-11 19-11 15-7 19-7 18-5 16-3 11-1 26-1 3-1-1-49-1-222-2-17-4-9-7-9-9-9-10-7-15-10-13-12-40-40-7-8-9-11-2-4 14-6 19-5z" fill="#FBC4E9"/>
<path transform="translate(1194,488)" d="m0 0h22l19 3 21 6 19 9 14 11 9 11 8 14 5 14 4 18 2 20 3 57 3 22 4 15 6 15 8 11 8 9 10 7 9 4 4 1h18l53-8 29-3 16 1 13 4 10 7 8 11 3 9v27l-4 23-11 43-15 56-15 46-8 18-12 23-12 17-9 10-4 5-14 11-15 8-15 6-1 1 7 3v1l-13-1-30-4-20-4-12-4-5-3-1-6 9-10 7-7 8-7 10-8 13-12 9-14 2-6v-11l-4-8-11-12-10-7-17-8-21-7-22-5-15-1 3-2-1-49-1-222-2-17-4-9-7-9-9-9-10-7-15-10-13-12-40-40-7-8-9-11-2-4 14-6 19-5z" fill="#7DC7BC"/>
<path transform="translate(923,577)" d="m0 0h177l26 1 12 3 10 5 10 8 7 8 8 14 3 9 2 13-1 13-4 10-7 12-10 11-7 8-14 14-5 4-9 11-9 9-8 7-29 29-8 7-49 49-14 9-17 7h-14l-25-9-6-4-5-4-12-6-5-10-9-10-14-15-37-37v-2l-4-2-8-7-5-2-4-6-9-10-5-5-11-12-5-4v-2l-4-2-11-12-7-11-5-12-1-4v-20l3-12 7-14 13-13 13-8 14-4 8-1z" fill="#FCFCFC"/>
<path transform="translate(639,826)" d="m0 0h3l1 4v156l2 16 3 10 8 13 1 6-44 12-24 6-32 6-27 4-22 2h-16l-18-2-16-4-14-7-8-9-5-10v-15l5-15 10-18 8-11 10-13 24-26 33-33 8-7 13-12 11-9 14-11 12-8 20-12 12-6 18-5z" fill="#7DC7BC"/>
<path transform="translate(684,614)" d="m0 0h1v21l-1 81v213l1 26 4 16 7 11 11 13 9 4 17 5 11 2 19 1 30 1 14 1v2l-11 9-9 8-11 8-12 9-3 2-12 1h-54l-12-3-11-6-9-7-7-3-3-8-6-9-4-16-1-10v-161l1-156 3-12 7-11 11-13 8-8 8-7z" fill="#262D80"/>
<path transform="translate(923,577)" d="m0 0h177l26 1 12 3 10 5 10 8 7 8 8 14 3 9 2 13-1 13-4 10-7 12-4 2-6-2-6-20-4-10-7-11-7-8v-2h-2l-5-5-10-7-8-3-12-1-41-1h-87l-111-1-26-1-10-2h-14l-12 2 2-4 8-8 13-8 14-4 8-1z" fill="#F6E4D0"/>
<path transform="translate(721,583)" d="m0 0h9v7l-5 6-6-3 1 5-5 2v2l-6 3-4 8-2 3v29l1 8 5 5 2 6 3 3h4l6 11 2 5 1 10-2 6 3 1 1 6-4 3-1 3 1 4-1 4v8l-5 3h-3l-1-5 7-2-2-5-5 1-1 2h-2v6l-4 10v17l-4 3h-12l2 2-4 1-2 3-1 47v131l2 20 3 10 16 20 7 1 10-5 13-11 12-11 13-12 3-1v-2l8-7 9-8 17-17v-5l-2-1 1-10h-3v-2h3l1-4h-3v-2h4l2-5 7-8 8-7 7-6 14-8 9-4h3l-1-2-4 1-1-2 3-1 3-4 5 1 6-7-3-2 3-2 8-2 8-4 2-4 2-1h11v2h10l-3 6-5 2-1 4-3 1-2 5-4 5-4 4-7 8-7 7-5 9v2h2l-2 5v4l-5 5-3 4-8 3-4 5-5 4-2 4-7 2h-7l-10 4-8 5-3 1v2l-5 3-3 1-1 3h-2l-2 4-12 12-1 2h-2l-2 4-4 5h-2l-2 4-3 1-2 4-9 10-4 5h-2l-1 3h-2l-1 6 3 3 23 2 16 1h25l6 1-4 5-14-1-33-1-16-1-18-4-15-5-6-4-11-13-6-10-4-16-1-26v-213l1-81 1-22 14-14 10-8z" fill="#0145FE"/>
<path transform="translate(575,931)" d="m0 0 6 1 4 4-5 9-5 4h-2v2 1h5l3 6 3 10 2 4 2 11-1 13-4 16-8 11-4 5-13 8-10 5-14 3h-9l-13-4-13-8-3-3v-2l-4-2-8-10-6-15v-15l2-10 6-12 8-12 13-9 8-5 17-4 9 1 6 3 4 5 8 3 5-6 5-5z" fill="#A2C8C7"/>
<path transform="translate(969,357)" d="m0 0h17l12 3 14 7 11 9 16 15 71 71-1 2-11-6-12-10-6-3-6 1 2 5 3 7v4l2 1-1 4-3 4-7-1-10-7-7-6-8-4-15-14-6-5-3-5-5-4v-2h-2l-5-7-6-3-1-4-6-2-9-5-7-3-15-3-11-6-12-1-16 9-14 10-8 6-5-1 2-4 32-32 14-11 14-7z" fill="#0145FE"/>
<path transform="translate(1582,816)" d="m0 0 11 1 12 6 11 10 1 2v8l-9 10-7 7-16 11-14 10-10 9-5 4-9 11-11 13-11 16-12 16-8 10-9 6h-2l-1-5 4-19 11-33 13-28 12-21 11-16 12-14 14-10 7-3z" fill="#7DC7BC"/>
<path transform="translate(1135,925)" d="m0 0h11l5 4-1 9 1 2-4 4-18 11-15 11-13 10-25 20-36 26-10 6-16 8-20 9-5-2-8-7-4-6-8-17 1-2 4 6 4-4 7-1h10v2l5 1 5 4 7-1 14-8 10-9 13-12 11-9 14-10 5-1v-2l-2-1 5-4 9-4 19-10 2-1 5-5 7-6 3-7 7-1z" fill="#0654FF"/>
<path transform="translate(544,812)" d="m0 0h16l10 4 4 4 1 3-5 7-10 8-14 11-12 9-13 11-15 14-10 9-7 7-8 7-11 9-6 3-1-1v-8l8-17 12-22 8-12 14-19 9-10 15-11 11-5z" fill="#7DC7BC"/>
<path transform="translate(547,947)" d="m0 0 8 2 2 1-11 6-4 5-7 6h-2l-6 15 1 7 3 1-1-4 2-3 9-1v-2h2l2-4 5-3h4l-2 9-4 4-6 3-1 2h-2l-1 3-5 1v2h-2v9l4 4 7-1 5-4 7-8 6-5 5-7v-8l-5-3-1-6 1-6 5-6v3l-1 6 5 10 1 3v19l-5 13-3 6-8 8-4 2-9 1h-12l-9-3-10-6-10-9-6-12v-13l2-10 6-10 5-4 10-6 22-4z" fill="#7DC7BC"/>
<path transform="translate(1203,794)" d="m0 0h7l1 4 5-2 5 1 4 3 3 7 1 2 5 2 1 3v3l2 1 1 6 8-1 7 2-1 2-5-1-1 3 3 3 4 1-2 4-4 1-1 7h2l1 3-4 2-1 8-2 1-1 3h-2l-1 7-2 2h-4v4h-5v-3l3-1 2-4v-6l-2-1-3 3h-2l-1-12h-5l-1 2-6 2-7-1v-4h2l1-5 4-1 3-6 3-5-2-1-2-8h-2v-2h-4l-1-3 4-4-6-8-1-3-8 1-9 4h-2l-2 4h-2l-2 6-1 8-6 8h-2l-2 5-2 3v-19l4-10 1-5v-4l7-2 8-5 4-2z" fill="#0145FF"/>
<path transform="translate(1410,780)" d="m0 0 5 1 1 5-5 11 1 24-3 10-8 9-8 5-9 1-4-3-1-6 2-6 2-2-3 1-1 3-5 2-4 3h-2v2l-8 6-8 3h-4l1-6 8-10 6-7h2l2-4 30-30 5-6z" fill="#A1C7C6"/>
<path transform="translate(575,931)" d="m0 0 6 1 4 4-5 9-5 4h-2v2l-10 8-3 5v8l3 3 3 2v8l-8 10-9 8-5 5-5 3-6-1-3-4v-7l1-2h2v-2l5-2 1-2h2l2-4 6-3h2l2-8 1-3-7 3-4 4h-2v2l-9 2-1 6-3 1-2-10 4-9 3-5 7-6h2l2-4 5-4 7-3 2-4h2l2-4 3-5 7-5z" fill="#A1C7C6"/>
<path transform="translate(1477,759)" d="m0 0 9 1 8 4 4 6v13l-7 35-3 11-3 7-7 20-8 26-3 10-3 5-5-1-2-5 8-31 6-18 10-36 2-10v-17l-7-8v-10z" fill="#A2C8C7"/>
<path transform="translate(1343,598)" d="m0 0 5 1 3 42 4 28 4 15 5 10 1 3 4 1h9l34-4 32-5 9-1h26l10 3 10 6 3 5-4 1-17-7-4-1h-28l-27 4-32 5-10 1h-12l-6-3-6-7-7-14-4-17-2-14-1-14v-36z" fill="#7EC7BC"/>
<path transform="translate(1042,811)" d="m0 0 5 2 11 7 11 11 8 7 9 8 5 5h4l7 2 3 3 5 3-1 3-2-1 3 5 4 5 3 6 11 11-4 1-12-2-1-3-11-2-14-7-6-8 2-1v-3l-4-2-8-14-7-9-5-6 1 8 4 9v6h-4-3l-1 2h-4l1-4 4-2v-9l-3-9 2-5-1-3-2-1v-2l-4-2z" fill="#0145FF"/>
<path transform="translate(1081,967)" d="m0 0 7 1-1 4-13 10-16 13-13 11-15 12-13 9-9 6-11 1-9-10-5-7v-2l6-2 9 1 7 5 7-1 14-8 10-9 13-12 11-9 14-10z" fill="#E6F0F0"/>
<path transform="translate(1344,911)" d="m0 0 8 1 12 6 11 9 7 9 6 10 4 16v10l-6 11-6 7-4 1-1-1 1-8 4-10 1-2v-11l-4-6-4-5-5-9-11-9-16-10-2-3 1-4z" fill="#A2C8C7"/>
<path transform="translate(835,731)" d="m0 0 3 1 1 6-2 26 3 17 3 14 6 7 10 6 2 4 12 7 6 2h4l-3-2v-2l16 2h21l-3 3h-2v2l3 1-2 2-10 2h-10l-12-3-21-9-10-8-7-7-9-14-3-9-1-5v-34l3-7z" fill="#A2C8C7"/>
<path transform="translate(1133,901)" d="m0 0 9 1 7 4 5 6 5 3v2h2l6 8 2 2v3l-4 2-3 3-6 1-3-3-1-7-4-3-8-3-5-6-2-4-1-6-1 5 1 9-4 4h-2v2l-3 2h-8v-2l3-1h-13l-4-2 3-5h6v3h4l-3-2 11-2 4-3 2-7 2-3z" fill="#0144FC"/>
<path transform="translate(1250,747)" d="m0 0 2 1 2 9 4 24v16l-2 16-3 3v-2h-2v-2h-2l1 3h-4v-11l-1-4h-2l2-10v-8l1-7 1-1-1-22 2-3h2z" fill="#0145FF"/>
<path transform="translate(639,826)" d="m0 0h3l1 4v156l2 16 3 10 8 13 1 6h-6l-4-14-4-11-3-14-1-11z" fill="#A1C7C6"/>
<path transform="translate(597,770)" d="m0 0h10l6 3 5 5 3 5v10l-4 6-6 5-5 2h-7l-6-3-7-8-1-2v-11l4-6zm2 6-5 3-2 5v7l6 9 4 1 5-3 6-10-1-7-5-4z" fill="#82C8BE"/>
<path transform="translate(969,1011)" d="m0 0 4 4 1 2 4-4 7-1h10v1l-8 2h-4l8 11 6 7 11-1 14-9h4v2h3l-1 2-5 2-5 5-24 11-5-2-8-7-4-6-8-17z" fill="#23308A"/>
<path transform="translate(975 1e3)" d="m0 0h35l14 1 5 2v2l-17 10-7 1-7-5-3-1v-2l-17 2-2 1-2 4-4-7h-2l-2-3v-4z" fill="#0244FB"/>
<path transform="translate(1268,611)" d="m0 0 2 1 3 10 1 8 1 23 1 226 2 21 1 9h-8l3-2-1-49-1-222-2-17z" fill="#A2C8C7"/>
<path transform="translate(1437,1081)" d="m0 0 4 1 1 1-1 8-9 15-11 12-8 7-7 3-3-4v-3l8-4 7-7 13-18z" fill="#83C8BE"/>
<path transform="translate(1135,925)" d="m0 0h11l5 4-1 9 1 2-3 1-2-1v-9l-8 2-12 10-12 7-8 5-13 5-9 4-5 3-2-1 5-4 9-4 19-10 2-1 5-5 7-6 3-7 7-1z" fill="#0145FF"/>
<path transform="translate(691,463)" d="m0 0 3 1 1 7-5 5-13 8 1 5 5 4 7 3 4 5 1 5-2 3-4-2-10-9-6-6v-6l5-10 12-12z" fill="#F7E5CF"/>
<path transform="translate(865,815)" d="m0 0 4 2 10 4h4l-3-2v-2l16 2h21l-3 3h-2v2l3 1-2 2-10 2h-10l-12-3-19-8 3-1z" fill="#A0C7C6"/>
<path transform="translate(849,873)" d="m0 0 2 1-100 100-2-1 1-2h2v-2l8-7 18-18 12-13 45-45 8-7z" fill="#262D80"/>
<path transform="translate(1053 1e3)" d="m0 0h3v2l3-1 3 1-1 3-14 10-13 9-11 5-2-1 5-4 4-2 6-5h-3l2-4 3-2h3v-2h4l2-5z" fill="#0146FD"/>
<path transform="translate(1081,967)" d="m0 0 7 1-1 4-13 10h-3l7-6-7 4-10 7-11 9-8 6-2-1 12-10 5-5v-1l-2-1 17-13z" fill="#9ECBC7"/>
<path transform="translate(1129,905)" d="m0 0 2 4 1 9-4 4h-2v2l-3 2h-8v-2l3-1h-13l-4-2 3-5h6v3h4l-3-2 11-2 4-3 2-6z" fill="#0145FF"/>
<path transform="translate(1033,956)" d="m0 0h1v13l3 5 7-1 11-6 9-2 1 4 5 2-2 2-6 3-5-1-1-1h-6l-10 5h-6l-2-3-1-13z" fill="#0145FF"/>
<path transform="translate(1478,760)" d="m0 0 7 1 8 5v7l-2 7-4 2-4-8-4-4-1-3z" fill="#FDFDFD"/>
<path transform="translate(1411,782)" d="m0 0h2l-1 6-8 10-6 6-5 3-2 3-5-1 4-6 8-8 7-8z" fill="#0755FF"/>
<path transform="translate(1326,1016)" d="m0 0 2 1-12 12-2 3v6l5 2 15 5 30 5 33 4v1h-13l-31-4-24-5-13-4-4-4-1-5 4-6z" fill="#FDFDFD"/>
<path transform="translate(1136,942)" d="m0 0h5l1 5-14 9-7 2-1-5 8-7z" fill="#0147FF"/>
<path transform="translate(989,1013)" d="m0 0 9 1 7 5 5 1-3 2-6 1v-2l-6-1-2 3h-2l1 4-5-5-4-5v-2z" fill="#F4C4E6"/>
<path transform="translate(1051,818)" d="m0 0 8 5 7 8 10 9 10 10 8 7 17 17-1 2-7-7-8-7-11-11-8-7-19-19-6-5z" fill="#262D80"/>
<path transform="translate(664,491)" d="m0 0h4l-1 5-6 9-6 4-4-2v-4l9-10z" fill="#F7E6D2"/>
<path transform="translate(1209,559)" d="m0 0 4 2 9 7 5 5 18 12 10 9 5 5 7 8 1 4-5-5-7-8-11-10-16-10-13-11-7-7z" fill="#A2C8C7"/>
<path transform="translate(944,881)" d="m0 0 3 1 1 4v3 3l5-2 4 2-1 4-4 1-2 4-6-1v-6l-2-1 2-5-1-1-2 2-1-4z" fill="#0145FF"/>
<path transform="translate(653,466)" d="m0 0 6 1 6 5 4 6v2h-8l-6-4-3-5z" fill="#F7E6D1"/>
<path transform="translate(1167,848)" d="m0 0 5 1 3 4h2v2h2l2 3 3 2-4 2h-4v2l-7-2-1-1v-8z" fill="#0145FF"/>
<path transform="translate(1364,940)" d="m0 0 4 4 9 14 3 6-1 7-3 1-2-12-1 8h-1l-1-11-4-8-4-6z" fill="#9FC7C6"/>
<path transform="translate(708,625)" d="m0 0h6l1 5-2 3h-4l2 5v7l2 2-5 1-3-10 1-10z" fill="#0145FF"/>
<path transform="translate(573,935)" d="m0 0h8l1 3-10 8-2 2h-4v-6z" fill="#0754FD"/>
<path transform="translate(1071,870)" d="m0 0 11 2v1l-7 1-3-1-5 4-11 1-13-1-3-2 7-1h12l9-3z" fill="#0145FF"/>
<path transform="translate(832,734)" d="m0 0 5 1v9l-2 8h-3l-1-2v-14z" fill="#7EC7BC"/>
<path transform="translate(995,1019)" d="m0 0 4 1 2 1v2l6-1-4 6h-7v3l-4-2-1-6z" fill="#F9FAFA"/>
<path transform="translate(930,881)" d="m0 0 6 1 1 2h-4l-1 3-7 2h-7l-2-1 1-4 7-1 1 1z" fill="#0145FF"/>
<path transform="translate(1071,976)" d="m0 0 1 2-4 4-8 6-10 8-8 6-2-1 12-10 5-5 7-6z" fill="#96C7C3"/>
<path transform="translate(1139,721)" d="m0 0 5 2 3 9-4 2-3-5-5-1 1-5z" fill="#A4CBC9"/>
<path transform="translate(880,823)" d="m0 0h8l10 2 6 1v2l-3 1h-8l-12-3z" fill="#84C7BE"/>
<path transform="translate(832,771)" d="m0 0 2 2 6 21-4-2-4-9-1-4v-7z" fill="#82C7BD"/>
<path transform="translate(802,795)" d="m0 0 6 1-2 8-5 4-7 1-3-4 10 1v-10z" fill="#0145FF"/>
<path transform="translate(865,918)" d="m0 0 5 1 4 2-2 2-8 1-2 2h-3v-2l-4-1v-3h8z" fill="#0145FF"/>
<path transform="translate(1329,1015)" d="m0 0 2 1-12 12-2 4v6l5 2 2 2-5-1-5-3-1-6 9-10z" fill="#9EC7C6"/>
<path transform="translate(1050,954)" d="m0 0h7l1 4-6 4h-4l-1-4 1-3z" fill="#0145FF"/>
<path transform="translate(1007,1022)" d="m0 0 1 2-3 5h-2v5h-6l-2-4 1-3h7z" fill="#F9C7E9"/>
<path transform="translate(1468,861)" d="m0 0h3v6l-4 8-2 6-2-1 1-6 2-7z" fill="#FDFDFD"/>
<path transform="translate(614,1125)" d="m0 0h3l-1 9-4 1-4-2 1-4z" fill="#FDFDFD"/>
<path transform="translate(989,1013)" d="m0 0 9 1 7 5 5 1-3 2-6 1-1-6-10-2-7 2v-2z" fill="#A2C8C7"/>
<path transform="translate(1114,481)" d="m0 0 3 1v15l-4 2-1-11z" fill="#0145FF"/>
<path transform="translate(865,815)" d="m0 0 4 2 13 5-2 1-1 2-17-7 3-1z" fill="#A2C8C7"/>
<path transform="translate(883,916)" d="m0 0 7 1-5 5-4 2-5-2v-3l7-1z" fill="#0146FF"/>
<path transform="translate(1368,825)" d="m0 0 2 1-9 11-4 4h-2l2-5z" fill="#0755FF"/>
<path transform="translate(1035,1020)" d="m0 0 3 1-2 4-13 6-2-1 5-4 4-2z" fill="#1443C5"/>
<path transform="translate(1058,983)" d="m0 0 2 1-5 5h-2l-2 4-6 5-2-1 6-7 5-5z" fill="#EFF5F5"/>
<path transform="translate(967,835)" d="m0 0h25l-2 2-3 1h-14l-6-2z" fill="#95C7C3"/>
<path transform="translate(1038,801)" d="m0 0h2l1 8h-7v-4z" fill="#0147FF"/>
<path transform="translate(1115,832)" d="m0 0h6l1 3 2 2v6l-4-1-2-8h-3z" fill="#0145FF"/>
<path transform="translate(697,760)" d="m0 0 9 2 6 3-3 2-6-2-5-2z" fill="#0145FF"/>
<path transform="translate(939,895)" d="m0 0 4 3v5l-1 1h-5v-6z" fill="#0145FF"/>
<path transform="translate(1244,534)" d="m0 0 4 2-3 6-5 1 1-5 1-2h2z" fill="#A0C7C6"/>
<path transform="translate(1188,883)" d="m0 0h7l1 3h-2l-1 3h-4v-2h-2z" fill="#0145FF"/>
<path transform="translate(835,731)" d="m0 0 3 1 1 6-1 10-2 2v-15l-3-2z" fill="#A2C8C7"/>
<path transform="translate(1055,988)" d="m0 0 2 2-12 10-5 2 5-5 7-6z" fill="#A2C8C7"/>
<path transform="translate(854,810)" d="m0 0 9 3 2 1v3h-5l-5-4z" fill="#88C7BF"/>
<path transform="translate(1081,967)" d="m0 0 7 1-1 4-4 2-1-3h-2l-1-3z" fill="#A2C8C7"/>
<path transform="translate(770,845)" d="m0 0h2l-1 4-3 7-2-1v-6z" fill="#0145FF"/>
<path transform="translate(1165,919)" d="m0 0 4 2 7 3v3l-5-2-4-2z" fill="#0145FF"/>
<path transform="translate(1101,942)" d="m0 0h1v5l-5 1-1-4z" fill="#0145FF"/>
<path transform="translate(928,814)" d="m0 0h5l2 4 3 1-1 2-10-5z" fill="#98C7C4"/>
<path transform="translate(1407,1119)" d="m0 0 3 1-4 7-3-3v-3z" fill="#FCD7EF"/>
<path transform="translate(1346,928)" d="m0 0 6 1 3 4-3 1-6-4z" fill="#9CC7C5"/>
<path transform="translate(717,654)" d="m0 0 5 4 1 6-5-5z" fill="#0145FF"/>
</svg>
