<svg width="18" height="14" viewBox="0 0 18 14" fill="none" xmlns="http://www.w3.org/2000/svg">
<path fill-rule="evenodd" clip-rule="evenodd" d="M7.32853 0.333252H10.6702C13.8207 0.333252 15.396 0.333252 16.3747 1.30956C17.0486 1.98178 17.2585 2.93608 17.3239 4.49114C17.3368 4.79954 17.3433 4.95373 17.2857 5.05661C17.2281 5.15948 16.9982 5.28787 16.5384 5.54463C16.0278 5.8298 15.6826 6.37465 15.6826 6.99992C15.6826 7.62519 16.0278 8.17004 16.5384 8.4552C16.9982 8.71197 17.2281 8.84036 17.2857 8.94323C17.3433 9.04611 17.3368 9.2003 17.3239 9.50869C17.2585 11.0638 17.0486 12.0181 16.3747 12.6903C15.396 13.6666 13.8207 13.6666 10.6702 13.6666H7.32853C4.178 13.6666 2.60274 13.6666 1.624 12.6903C0.950108 12.0181 0.740208 11.0638 0.67483 9.50869C0.661865 9.2003 0.655382 9.04611 0.712969 8.94323C0.770556 8.84036 1.00046 8.71197 1.46025 8.4552C1.97089 8.17004 2.31607 7.62519 2.31607 6.99992C2.31607 6.37465 1.97089 5.8298 1.46025 5.54463C1.00045 5.28787 0.770556 5.15948 0.712969 5.05661C0.655382 4.95373 0.661865 4.79954 0.67483 4.49114C0.740208 2.93608 0.950108 1.98178 1.624 1.30956C2.60274 0.333252 4.178 0.333252 7.32853 0.333252ZM11.9559 4.05798C12.2006 4.30205 12.2006 4.69778 11.9559 4.94186L6.94342 9.94186C6.69874 10.1859 6.30202 10.1859 6.05734 9.94186C5.81265 9.69778 5.81265 9.30206 6.05734 9.05798L11.0698 4.05798C11.3145 3.8139 11.7112 3.8139 11.9559 4.05798ZM11.0951 9.91659C11.5565 9.91659 11.9305 9.54349 11.9305 9.08325C11.9305 8.62302 11.5565 8.24992 11.0951 8.24992C10.6337 8.24992 10.2597 8.62302 10.2597 9.08325C10.2597 9.54349 10.6337 9.91659 11.0951 9.91659ZM6.91808 5.74992C7.37947 5.74992 7.75349 5.37682 7.75349 4.91659C7.75349 4.45635 7.37947 4.08325 6.91808 4.08325C6.4567 4.08325 6.08267 4.45635 6.08267 4.91659C6.08267 5.37682 6.4567 5.74992 6.91808 5.74992Z" fill="#0D9463"/>
</svg>
