<svg width="16" height="16" viewBox="0 0 16 16" fill="none" xmlns="http://www.w3.org/2000/svg">
<path d="M14.4323 3.22574C14.608 3.05006 14.8553 2.85902 15.1078 2.62862L15.3411 2.4331L14.7052 1.7195L14.4976 1.91374C13.6188 2.71214 13.0902 3.1947 12.832 4.18382C12.5756 5.16718 12.5654 6.1627 12.5923 7.09326C12.6204 8.05262 12.6566 8.68558 12.9248 9.3915L13.0259 9.65166C13.2832 10.299 13.6726 11.2769 13.6726 12.5349C13.6726 14.0545 13.0569 14.8254 11.8428 14.8254C10.7382 14.8254 10.1424 14.0881 10.0726 12.6315C10.0409 11.9861 10.222 11.1893 10.4124 10.3473C10.5734 9.63662 10.7392 8.90126 10.8208 8.12078C10.911 7.2603 10.798 6.64526 10.4675 6.27598C10.0432 5.80206 9.39005 5.76014 8.81469 5.76014H8.63965V1.32462C8.63965 0.940617 8.36093 0.640137 7.97917 0.640137H1.37405C0.992928 0.640137 0.639648 0.940617 0.639648 1.32462V15.3601H8.63965V6.72014H8.81501C9.20861 6.72014 9.61629 6.7643 9.75485 6.91886C9.82909 7.00206 9.94301 7.2715 9.86781 7.99822C9.79197 8.7227 9.63133 9.43918 9.47645 10.1217C9.27133 11.0302 9.07677 11.8942 9.11517 12.6731C9.20957 14.6504 10.2044 15.7867 11.8428 15.7867C13.5891 15.7867 14.6316 14.5713 14.6316 12.5329C14.6316 11.0901 14.1852 9.9659 13.9174 9.2923L13.8208 9.04686C13.6281 8.53838 13.5849 8.06702 13.5584 7.24462C13.8665 7.23758 14.2396 7.23022 14.4073 7.23022C14.791 7.23022 14.984 7.00526 15.0662 6.6155C15.1142 6.3883 15.04 6.09038 15.04 5.54958V5.40622C15.0396 3.97678 14.8211 3.56846 14.4323 3.22574ZM7.67965 6.08014H1.59965V1.92014H7.67965V6.08014ZM14.0796 5.55086C14.0796 5.83022 14.1532 6.09742 14.144 6.26734C13.9526 6.27022 13.7324 6.27534 13.5084 6.28046C13.5168 5.66318 13.5852 5.0347 13.743 4.42958C13.7859 4.2683 13.7731 4.12622 13.8377 3.99374C14.0083 4.1579 14.0796 4.40398 14.0796 5.40686V5.55086Z" fill="#0D9563"/>
</svg>
