<svg width="273" height="239" viewBox="0 0 273 239" fill="none" xmlns="http://www.w3.org/2000/svg">
<g clip-path="url(#clip0_11100_25406)">
<rect width="200" height="200" transform="translate(36 10)" fill="white"/>
<path fill-rule="evenodd" clip-rule="evenodd" d="M91.9783 29H36V84.9793H91.9783V29ZM123.966 44.9945H131.963V29H99.976V44.9945H107.973V52.9913H115.97V44.9945H107.973V36.9978H123.966V44.9945ZM75.9848 100.973H67.988V108.971H83.9815V116.967H75.9848V124.964H67.988V116.967H59.9913V92.976H36V100.973H51.9935V124.964H43.9967V116.967H36V124.964H43.9967V140.958H36V148.955H51.9935V156.952H36V164.949H51.9935V156.952H59.9913V164.949H67.988V156.952H59.9913V148.955H67.988V140.958H51.9935V132.961H75.9848V156.952H83.9815V164.949H91.9783V156.952H83.9815V148.955H99.976V172.946H107.973V180.943H99.976V188.94H107.973V196.937H115.97V204.934H99.976V228.925H115.97V212.93H131.963V204.934H123.966V188.94H139.961V204.934H155.954V196.937H171.949V204.934H163.951V212.93H155.954V220.928H163.951V228.925H171.949V220.928H179.946V228.925H187.942V220.928H203.936V228.925H211.934V220.928H203.936V204.934H219.93V212.93H235.924V204.934H227.927V196.937H235.924V164.949H227.927V156.952H219.93V164.949H211.934V172.946H203.936V156.952H187.942V148.955H179.946V156.952H171.949V148.955H163.951V140.958H171.949V124.964H163.951V132.961H155.954V116.967H163.951V108.971H171.949V100.973H179.946V108.971H187.942V116.967H179.946V140.958H195.939V148.955H219.93V140.958H227.927V148.955H235.924V124.964H227.927V132.961H219.93V140.958H195.939V132.961H187.942V116.967H195.939V108.971H187.942V100.973H203.936V124.964H211.934V116.967H219.93V108.971H227.927V116.967H235.924V92.976H219.93V108.971H211.934V100.973H203.936V92.976H171.949V44.9945H163.951V92.976H155.954V108.971H139.961V100.973H147.958V84.9793H155.954V60.988H147.958V68.9858H139.961V52.9913H147.958V44.9945H155.954V29H139.961V52.9913H123.966V68.9858H107.973V60.988H99.976V108.971H107.973V116.967H91.9783V108.971H83.9815V100.973H91.9783V92.976H75.9848V100.973ZM235.924 29H179.946V84.9793H235.924V29ZM83.9815 36.9978H43.9967V76.9825H83.9815V36.9978ZM227.927 36.9978H187.942V76.9825H227.927V36.9978ZM75.9848 44.9945H51.9935V68.9858H75.9848V44.9945ZM219.93 44.9945H195.939V68.9858H219.93V44.9945ZM123.966 68.9858H131.963V84.9793H139.961V92.976H123.966V100.973H131.963V116.967H123.966V108.971H107.973V100.973H115.97V84.9793H123.966V68.9858ZM107.973 76.9825H115.97V84.9793H107.973V76.9825ZM139.961 84.9793V76.9825H147.958V84.9793H139.961ZM163.951 100.973V92.976H171.949V100.973H163.951ZM83.9815 124.964V116.967H91.9783V124.964H83.9815ZM107.973 116.967H115.97V124.964H107.973V116.967ZM139.961 124.964V116.967H147.958V124.964H139.961ZM139.961 164.949H147.958V148.955H139.961V156.952H123.966V148.955H131.963V140.958H123.966V124.964H139.961V140.958H155.954V156.952H163.951V188.94H155.954V172.946H139.961V164.949ZM91.9783 132.961H83.9815V140.958H91.9783V132.961ZM115.97 140.958V148.955H99.976V132.961H107.973V140.958H115.97ZM131.963 164.949H123.966V180.943H131.963V164.949ZM195.939 164.949H171.949V188.94H195.939V164.949ZM219.93 164.949H227.927V188.94H219.93V196.937H211.934V188.94H203.936V180.943H211.934V172.946H219.93V164.949ZM91.9783 228.925V172.946H36V228.925H91.9783ZM187.942 172.946H179.946V180.943H187.942V172.946ZM83.9815 180.943H43.9967V220.928H83.9815V180.943ZM139.961 188.94V180.943H147.958V188.94H139.961ZM75.9848 188.94H51.9935V212.93H75.9848V188.94ZM187.942 220.928H179.946V196.937H187.942V204.934H195.939V212.93H187.942V220.928ZM139.961 220.928H123.966V228.925H147.958V212.93H139.961V220.928ZM235.924 220.928H227.927V228.925H235.924V220.928Z" fill="black"/>
<path fill-rule="evenodd" clip-rule="evenodd" d="M91.9783 29H36V84.9793H91.9783V29ZM123.966 44.9945H131.963V29H99.976V44.9945H107.973V52.9913H115.97V44.9945H107.973V36.9978H123.966V44.9945ZM75.9848 100.973H67.988V108.971H83.9815V116.967H75.9848V124.964H67.988V116.967H59.9913V92.976H36V100.973H51.9935V124.964H43.9967V116.967H36V124.964H43.9967V140.958H36V148.955H51.9935V156.952H36V164.949H51.9935V156.952H59.9913V164.949H67.988V156.952H59.9913V148.955H67.988V140.958H51.9935V132.961H75.9848V156.952H83.9815V164.949H91.9783V156.952H83.9815V148.955H99.976V172.946H107.973V180.943H99.976V188.94H107.973V196.937H115.97V204.934H99.976V228.925H115.97V212.93H131.963V204.934H123.966V188.94H139.961V204.934H155.954V196.937H171.949V204.934H163.951V212.93H155.954V220.928H163.951V228.925H171.949V220.928H179.946V228.925H187.942V220.928H203.936V228.925H211.934V220.928H203.936V204.934H219.93V212.93H235.924V204.934H227.927V196.937H235.924V164.949H227.927V156.952H219.93V164.949H211.934V172.946H203.936V156.952H187.942V148.955H179.946V156.952H171.949V148.955H163.951V140.958H171.949V124.964H163.951V132.961H155.954V116.967H163.951V108.971H171.949V100.973H179.946V108.971H187.942V116.967H179.946V140.958H195.939V148.955H219.93V140.958H227.927V148.955H235.924V124.964H227.927V132.961H219.93V140.958H195.939V132.961H187.942V116.967H195.939V108.971H187.942V100.973H203.936V124.964H211.934V116.967H219.93V108.971H227.927V116.967H235.924V92.976H219.93V108.971H211.934V100.973H203.936V92.976H171.949V44.9945H163.951V92.976H155.954V108.971H139.961V100.973H147.958V84.9793H155.954V60.988H147.958V68.9858H139.961V52.9913H147.958V44.9945H155.954V29H139.961V52.9913H123.966V68.9858H107.973V60.988H99.976V108.971H107.973V116.967H91.9783V108.971H83.9815V100.973H91.9783V92.976H75.9848V100.973ZM235.924 29H179.946V84.9793H235.924V29ZM83.9815 36.9978H43.9967V76.9825H83.9815V36.9978ZM227.927 36.9978H187.942V76.9825H227.927V36.9978ZM75.9848 44.9945H51.9935V68.9858H75.9848V44.9945ZM219.93 44.9945H195.939V68.9858H219.93V44.9945ZM123.966 68.9858H131.963V84.9793H139.961V92.976H123.966V100.973H131.963V116.967H123.966V108.971H107.973V100.973H115.97V84.9793H123.966V68.9858ZM107.973 76.9825H115.97V84.9793H107.973V76.9825ZM139.961 84.9793V76.9825H147.958V84.9793H139.961ZM163.951 100.973V92.976H171.949V100.973H163.951ZM83.9815 124.964V116.967H91.9783V124.964H83.9815ZM107.973 116.967H115.97V124.964H107.973V116.967ZM139.961 124.964V116.967H147.958V124.964H139.961ZM139.961 164.949H147.958V148.955H139.961V156.952H123.966V148.955H131.963V140.958H123.966V124.964H139.961V140.958H155.954V156.952H163.951V188.94H155.954V172.946H139.961V164.949ZM91.9783 132.961H83.9815V140.958H91.9783V132.961ZM115.97 140.958V148.955H99.976V132.961H107.973V140.958H115.97ZM131.963 164.949H123.966V180.943H131.963V164.949ZM195.939 164.949H171.949V188.94H195.939V164.949ZM219.93 164.949H227.927V188.94H219.93V196.937H211.934V188.94H203.936V180.943H211.934V172.946H219.93V164.949ZM91.9783 228.925V172.946H36V228.925H91.9783ZM187.942 172.946H179.946V180.943H187.942V172.946ZM83.9815 180.943H43.9967V220.928H83.9815V180.943ZM139.961 188.94V180.943H147.958V188.94H139.961ZM75.9848 188.94H51.9935V212.93H75.9848V188.94ZM187.942 220.928H179.946V196.937H187.942V204.934H195.939V212.93H187.942V220.928ZM139.961 220.928H123.966V228.925H147.958V212.93H139.961V220.928ZM235.924 220.928H227.927V228.925H235.924V220.928Z" fill="black" fill-opacity="0.2"/>
<rect x="108" y="92" width="55" height="55" rx="9" fill="white"/>
<rect x="114" y="98" width="44" height="44" rx="9" fill="url(#paint0_linear_11100_25406)"/>
<path d="M148.308 111.572V111.569L147.562 111.14L146.819 110.71H146.816L145.33 109.852H145.327L144.581 109.419L143.838 108.99H143.834L143.092 108.561L142.346 108.132L141.603 107.703H141.599L140.853 108.136L140.841 108.145L140.111 108.561L139.364 108.994L138.618 109.423L137.875 109.852H137.872L137.129 110.281L136.383 110.71V110.714L135.637 111.143L134.894 111.572L134.148 112.001L134.894 112.431L135.637 112.86H135.64L136.383 113.289L137.129 112.86L137.872 112.431L139.364 111.572V111.569L140.111 111.14L140.853 110.71L141.599 111.14L142.346 111.572L143.092 112.001L142.349 112.431H142.346L141.603 112.86H141.599V112.863L140.857 113.292H140.853L140.111 113.721L139.364 114.151L138.622 114.58L138.618 114.583L137.875 115.009L137.872 115.012L137.129 115.442L136.383 115.871L135.637 115.442L134.894 115.012L134.891 115.009L134.148 114.583V114.58H134.144L133.402 114.151L132.656 113.721L131.913 113.292H131.909L131.167 112.863L131.163 112.86L130.42 112.431H130.417L129.674 112.001L131.167 111.143L131.913 110.71L132.656 110.281L134.894 108.994V108.99L135.637 108.565V108.561H135.64L137.126 107.703H137.129L137.872 107.274H137.875L138.618 106.845V106.841L139.364 106.412L138.622 105.983H138.618L137.875 105.554H137.872V105.55L137.129 105.125V105.121L136.383 104.692L135.637 105.121L134.894 105.55V105.554H134.891L134.148 105.983H134.144L133.402 106.412L132.656 106.841L131.913 107.27V107.274H131.909L131.167 107.699V107.703H131.163L130.42 108.132H130.417L128.932 108.99L128.185 109.419V109.423H128.182L127.439 109.852L126.693 110.281L125.95 110.71H125.947L125.204 111.14L124.458 111.569V111.572L123.712 112.001L125.204 112.86V112.863L125.95 113.292L126.693 113.721L128.932 115.009V115.012L129.674 115.438V115.442L130.42 115.871L131.163 116.3H131.167L131.909 116.729H131.913V116.733L132.656 117.158V117.162L133.402 117.591L134.144 118.02H134.148L134.891 118.449H134.894L135.637 118.878L136.383 119.307L137.129 118.878L137.872 118.449H137.875L138.618 118.02L140.111 117.162V117.158L140.853 116.733V116.729H140.857L141.599 116.3H141.603L142.346 115.871L143.092 115.442V115.438L143.834 115.012V115.009H143.838L144.581 114.58L146.073 113.721L146.816 113.292L147.562 112.863V112.86L149.054 112.001L148.308 111.572ZM137.874 110.714V110.71H137.877L137.874 110.714ZM140.855 115.871V115.867H140.859L140.855 115.871ZM143.836 110.714V110.71H143.84L143.836 110.714ZM146.075 112.863L146.071 112.86H146.075V112.863Z" fill="white"/>
<path d="M143.09 123.278L142.353 123.704H143.09V123.278ZM140.522 124.754L140.855 124.566V124.562H140.851L140.522 124.754ZM148.313 114.249H148.31L147.564 114.678L146.821 115.107H146.817V115.111L146.075 115.536L145.329 115.965V115.969L144.586 116.398H144.582L143.84 116.827H143.836L142.351 117.686H142.347L141.605 118.118H141.601L140.859 118.547H140.855L140.112 118.976L139.366 119.406L138.623 119.835H138.62V119.838L137.877 120.264L137.874 120.267L137.131 120.697V135.308L137.874 134.879L138.62 134.45L139.366 134.017L140.112 133.588L140.855 133.159L141.601 132.73L142.344 132.301H142.347V132.297L143.09 131.872L143.094 131.868L143.836 131.439L144.582 131.01L145.325 130.581H145.329L146.071 130.152H146.075V130.148L146.817 129.723V129.719L147.564 129.29L148.306 128.861H148.31L149.047 128.435L149.051 128.432H149.054V123.271H149.051L148.308 122.846L148.312 122.842H148.303L147.573 122.422L147.585 122.413L148.319 121.993L148.322 121.989L149.053 121.569V113.822L148.31 114.251L148.313 114.249ZM144.582 123.271H144.586L144.582 123.275V123.271ZM137.879 124.562L137.875 124.566V124.562H137.879ZM137.875 131.443V131.439H137.879L137.875 131.443ZM138.622 133.592V133.588H138.625L138.622 133.592ZM146.071 127.573L145.329 128.002L143.836 128.861V128.864L143.094 129.29V129.293H143.09L141.605 130.152H141.601L140.859 130.581H140.855L140.112 131.01V127.57L140.855 127.144V127.141H140.859L141.601 126.712H141.605L141.667 126.674H141.671L142.338 126.286H142.342L142.351 126.277H142.355L142.872 125.977L143.088 125.851H143.092V125.848H143.095L143.616 125.548L143.829 125.426L143.833 125.422H143.836L144.57 124.993H144.573L144.577 124.99H144.581L145.323 124.561H145.327L146.064 124.135V124.131H146.068V127.572H146.064L146.071 127.573ZM146.071 121.555L145.329 121.984H145.325L145.321 121.988L144.584 122.413L144.575 122.417H144.572L143.842 122.842H143.838V122.846H143.834L143.101 123.271H143.097V123.275H143.094V123.278L142.356 123.704H142.347L141.605 124.133L141.596 124.137L140.862 124.562H140.853L140.524 124.754L140.116 124.991V121.555L140.125 121.551L140.859 121.126V121.122H140.862L141.605 120.697L142.347 120.264H142.351L143.097 119.835L143.84 119.406L144.586 118.976V118.973H144.59L145.332 118.547V118.544L146.075 118.115H146.078V121.555H146.071Z" fill="white"/>
<path d="M134.898 120.266V120.262H134.894L134.152 119.833L132.659 118.975L131.916 118.546L131.17 118.116V118.113H131.167L130.424 117.684L129.678 117.255L128.935 116.825L128.189 116.396L127.443 115.964L126.697 115.535L125.954 115.105L124.462 114.247L123.715 113.814L122.973 113.389V128.001L125.954 129.717V124.561L126.697 124.99L127.443 125.419V125.422L128.935 126.281L129.678 126.71L131.17 127.568V127.572L131.916 128.001L132.659 128.43V133.587L135.64 135.303V120.691L134.898 120.266ZM128.937 124.564L128.933 124.561H128.937V124.564ZM132.659 124.99L131.916 124.561L129.678 123.273V123.27L128.935 122.844V122.84L127.443 121.982L126.7 121.553H126.697V121.549L125.954 121.124V118.546L126.697 118.975L127.443 119.404L128.185 119.833H128.189L128.935 120.266L129.678 120.695L130.424 121.124L131.167 121.553H131.17L131.913 121.982H131.916V121.986L132.659 122.411V124.99Z" fill="white"/>
</g>
<rect width="3" height="20" fill="#0A9A74"/>
<rect x="1" y="3" width="3" height="20" transform="rotate(-90 1 3)" fill="#0A9A74"/>
<rect x="273" width="3" height="20" transform="rotate(90 273 0)" fill="#0A9A74"/>
<rect x="270" y="1" width="3" height="20" fill="#0A9A74"/>
<rect y="239" width="3" height="20" transform="rotate(-90 0 239)" fill="#0A9A74"/>
<rect x="3" y="238" width="3" height="20" transform="rotate(180 3 238)" fill="#0A9A74"/>
<rect x="273" y="238" width="3" height="20" transform="rotate(-180 273 238)" fill="#0A9A74"/>
<rect x="272" y="235" width="3" height="20" transform="rotate(90 272 235)" fill="#0A9A74"/>
<defs>
<linearGradient id="paint0_linear_11100_25406" x1="136" y1="98" x2="136" y2="142" gradientUnits="userSpaceOnUse">
<stop stop-color="#0D9563"/>
<stop offset="1" stop-color="#00A9AB"/>
</linearGradient>
<clipPath id="clip0_11100_25406">
<rect width="200" height="200" fill="white" transform="translate(36 10)"/>
</clipPath>
</defs>
</svg>
