<svg width="64" height="64" viewBox="0 0 64 64" fill="none" xmlns="http://www.w3.org/2000/svg">
<path d="M56.6162 15.1442V15.1371L55.1238 14.2788L53.6385 13.4206H53.6314L50.6608 11.7041H50.6537L49.1613 10.8387L47.676 9.98041H47.6688L46.1836 9.12215L44.6911 8.2639L43.2059 7.40564H43.1987L41.7063 8.27105L41.6812 8.28893L40.221 9.12215L38.7286 9.98756L37.2362 10.8458L35.7509 11.7041H35.7437L34.2585 12.5623L32.766 13.4206V13.4277L31.2736 14.286L29.7883 15.1442L28.2959 16.0025L29.7883 16.8608L31.2736 17.719H31.2808L32.766 18.5773L34.2585 17.719L35.7437 16.8608L38.7286 15.1442V15.1371L40.221 14.2788L41.7063 13.4206L43.1987 14.2788L44.6911 15.1442L46.1836 16.0025L44.6983 16.8608H44.6911L43.2059 17.719H43.1987V17.7262L41.7134 18.5844H41.7063L40.221 19.4427L38.7286 20.3009L37.2433 21.1592L37.2362 21.1663L35.7509 22.0174L35.7437 22.0246L34.2585 22.8829L32.766 23.7411L31.2736 22.8829L29.7883 22.0246L29.7812 22.0174L28.2959 21.1663V21.1592H28.2888L26.8035 20.3009L25.3111 19.4427L23.8258 18.5844H23.8186L22.3334 17.7262L22.3262 17.719L20.8409 16.8608H20.8338L19.3485 16.0025L22.3334 14.286L23.8258 13.4206L25.3111 12.5623L29.7883 9.98756V9.98041L31.2736 9.1293V9.12215H31.2808L34.2513 7.40564H34.2585L35.7437 6.54738H35.7509L37.2362 5.68913V5.68198L38.7286 4.82372L37.2433 3.96546H37.2362L35.7509 3.10721H35.7437V3.10006L34.2585 2.24895V2.2418L32.766 1.38354L31.2736 2.2418L29.7883 3.10006V3.10721H29.7812L28.2959 3.96546H28.2888L26.8035 4.82372L25.3111 5.68198L23.8258 6.54023V6.54738H23.8186L22.3334 7.39849V7.40564H22.3262L20.8409 8.2639H20.8338L17.8632 9.98041L16.3708 10.8387V10.8458H16.3637L14.8784 11.7041L13.386 12.5623L11.9007 13.4206H11.8935L10.4083 14.2788L8.91585 15.1371V15.1442L7.42342 16.0025L10.4083 17.719V17.7262L11.9007 18.5844L13.386 19.4427L17.8632 22.0174V22.0246L19.3485 22.8757V22.8829L20.8409 23.7411L22.3262 24.5994H22.3334L23.8186 25.4576H23.8258V25.4648L25.3111 26.3159V26.323L26.8035 27.1813L28.2888 28.0395H28.2959L29.7812 28.8978H29.7883L31.2736 29.7561L32.766 30.6143L34.2585 29.7561L35.7437 28.8978H35.7509L37.2362 28.0395L40.221 26.323V26.3159L41.7063 25.4648V25.4576H41.7134L43.1987 24.5994H43.2059L44.6911 23.7411L46.1836 22.8829V22.8757L47.6688 22.0246V22.0174H47.676L49.1613 21.1592L52.1461 19.4427L53.6314 18.5844L55.1238 17.7262V17.719L58.1086 16.0025L56.6162 15.1442ZM35.7473 13.4277V13.4206H35.7545L35.7473 13.4277ZM41.7099 23.7411V23.734H41.717L41.7099 23.7411ZM47.6724 13.4277V13.4206H47.6796L47.6724 13.4277ZM52.1497 17.7262L52.1425 17.719H52.1497V17.7262Z" fill="#D9D9D9"/>
<path d="M46.18 38.5568L44.7054 39.4079H46.18V38.5568ZM41.0442 41.507L41.7099 41.1315V41.1244H41.7027L41.0442 41.507ZM56.6269 20.4976H56.6198L55.1274 21.3559L53.6421 22.2141H53.6349V22.2213L52.1497 23.0724L50.6572 23.9306V23.9378L49.172 24.7961H49.1648L47.6796 25.6543H47.6724L44.7019 27.3708H44.6947L43.2094 28.2362H43.2023L41.717 29.0945H41.7099L40.2246 29.9527L38.7322 30.811L37.2469 31.6693H37.2397V31.6764L35.7545 32.5275L35.7473 32.5347L34.262 33.3929V62.6165L35.7473 61.7583L37.2397 60.9L38.7322 60.0346L40.2246 59.1764L41.7099 58.3181L43.2023 57.4598L44.6875 56.6016H44.6947V56.5944L46.18 55.7433L46.1871 55.7362L47.6724 54.8779L49.1648 54.0197L50.6501 53.1614H50.6572L52.1425 52.3032H52.1497V52.296L53.6349 51.4449V51.4377L55.1274 50.5795L56.6126 49.7212H56.6198L58.0943 48.8701L58.1015 48.863H58.1086V38.5425H58.1015L56.6162 37.6913L56.6234 37.6842H56.6055L55.1453 36.8438L55.1703 36.8259L56.6377 35.9856L56.6449 35.9784L58.1051 35.138V19.6429L56.6198 20.5012L56.6269 20.4976ZM49.1648 38.5425H49.172L49.1648 38.5496V38.5425ZM35.758 41.1244L35.7509 41.1315V41.1244H35.758ZM35.7509 54.8851V54.8779H35.758L35.7509 54.8851ZM37.2433 59.1835V59.1764H37.2505L37.2433 59.1835ZM52.1425 47.1465L50.6572 48.0047L47.6724 49.7212V49.7284L46.1871 50.5795V50.5866H46.18L43.2094 52.3032H43.2023L41.717 53.1614H41.7099L40.2246 54.0197V47.1393L41.7099 46.2882V46.2811H41.717L43.2023 45.4228H43.2094L43.3347 45.3477H43.3419L44.6768 44.5717H44.684L44.7019 44.5538H44.709L45.7433 43.953L46.1764 43.7027H46.1836V43.6956H46.1907L47.2322 43.0948L47.6581 42.8516L47.6652 42.8445H47.6724L49.1398 41.9862H49.1469L49.1541 41.979H49.1612L50.6465 41.1208H50.6537L52.1282 40.2697V40.2625H52.1354V47.1429H52.1282L52.1425 47.1465ZM52.1425 35.1094L50.6572 35.9677H50.6501L50.6429 35.9748L49.1684 36.8259L49.1505 36.8331H49.1434L47.6831 37.6842H47.676V37.6913H47.6688L46.2014 38.5425H46.1943V38.5496H46.1871V38.5568L44.7126 39.4079H44.6947L43.2094 40.2661L43.1915 40.2733L41.7242 41.1244H41.7063L41.0477 41.507L40.2317 41.9826V35.1094L40.2496 35.1023L41.717 34.2512V34.244H41.7242L43.2094 33.3929L44.6947 32.5275H44.7019L46.1943 31.6693L47.6796 30.811L49.172 29.9527V29.9456H49.1791L50.6644 29.0945V29.0873L52.1497 28.2291H52.1568V35.1094H52.1425Z" fill="#D9D9D9"/>
<path d="M29.7955 32.5311V32.5239H29.7883L28.3031 31.6657L25.3182 29.9492L23.833 29.0909L22.3405 28.2327V28.2255H22.3334L20.8481 27.3672L19.3557 26.509L17.8704 25.6507L16.378 24.7925L14.8856 23.9271L13.3931 23.0688L11.9079 22.2106L8.92301 20.494L7.43058 19.6286L5.94531 18.7775V48.0011L11.9079 51.4342V41.1208L13.3931 41.979L14.8856 42.8373V42.8445L17.8704 44.561L19.3557 45.4192L22.3405 47.1357V47.1429L23.833 48.0011L25.3182 48.8594V59.1728L31.2808 62.6058V33.3822L29.7955 32.5311ZM17.874 41.1279L17.8668 41.1208H17.874V41.1279ZM25.3182 41.979L23.833 41.1208L19.3557 38.546V38.5389L17.8704 37.6878V37.6806L14.8856 35.9641L13.4003 35.1059H13.3931V35.0987L11.9079 34.2476V29.0909L13.3931 29.9492L14.8856 30.8074L16.3708 31.6657H16.378L17.8704 32.5311L19.3557 33.3893L20.8481 34.2476L22.3334 35.1059H22.3405L23.8258 35.9641H23.833V35.9713L25.3182 36.8224V41.979Z" fill="#D9D9D9"/>
</svg>
