<svg width="296" height="296" viewBox="0 0 296 296" fill="none" xmlns="http://www.w3.org/2000/svg">
<path d="M261.845 70.0422V70.0091L254.943 66.0397L248.073 62.0702H248.04L234.301 54.1314H234.268L227.366 50.1289L220.497 46.1594H220.463L213.594 42.19L206.692 38.2206L199.822 34.2511H199.789L192.887 38.2536L192.771 38.3363L186.017 42.19L179.115 46.1925L172.212 50.1619L165.343 54.1314H165.31L158.44 58.1008L151.538 62.0702V62.1033L144.636 66.0728L137.766 70.0422L130.864 74.0116L137.766 77.981L144.636 81.9505H144.669L151.538 85.9199L158.44 81.9505L165.31 77.981L179.115 70.0422V70.0091L186.017 66.0397L192.887 62.0702L199.789 66.0397L206.692 70.0422L213.594 74.0116L206.725 77.981H206.692L199.822 81.9505H199.789V81.9836L192.92 85.953H192.887L186.017 89.9224L179.115 93.8919L172.245 97.8613L172.212 97.8944L165.343 101.831L165.31 101.864L158.44 105.833L151.538 109.803L144.636 105.833L137.766 101.864L137.733 101.831L130.864 97.8944V97.8613H130.831L123.961 93.8919L117.059 89.9224L110.189 85.953H110.156L103.287 81.9836L103.254 81.9505L96.3845 77.981H96.3514L89.482 74.0116L103.287 66.0728L110.189 62.0702L117.059 58.1008L137.766 46.1925V46.1594L144.636 42.2231V42.19H144.669L158.407 34.2511H158.44L165.31 30.2817H165.343L172.212 26.3123V26.2792L179.115 22.3097L172.245 18.3403H172.212L165.343 14.3709H165.31V14.3378L158.44 10.4014V10.3684L151.538 6.39893L144.636 10.3684L137.766 14.3378V14.3709H137.733L130.864 18.3403H130.831L123.961 22.3097L117.059 26.2792L110.189 30.2486V30.2817H110.156L103.287 34.218V34.2511H103.254L96.3845 38.2206H96.3514L82.6126 46.1594L75.7102 50.1289V50.1619H75.6771L68.8077 54.1314L61.9052 58.1008L55.0359 62.0702H55.0028L48.1334 66.0397L41.2309 70.0091V70.0422L34.3285 74.0116L48.1334 81.9505V81.9836L55.0359 85.953L61.9052 89.9224L82.6126 101.831V101.864L89.482 105.8V105.833L96.3845 109.803L103.254 113.772H103.287L110.156 117.742H110.189V117.775L117.059 121.711V121.744L123.961 125.713L130.831 129.683H130.864L137.733 133.652H137.766L144.636 137.622L151.538 141.591L158.44 137.622L165.31 133.652H165.343L172.212 129.683L186.017 121.744V121.711L192.887 117.775V117.742H192.92L199.789 113.772H199.822L206.692 109.803L213.594 105.833V105.8L220.463 101.864V101.831H220.497L227.366 97.8613L241.171 89.9224L248.04 85.953L254.943 81.9836V81.9505L268.748 74.0116L261.845 70.0422ZM165.326 62.1033V62.0702H165.36L165.326 62.1033ZM192.903 109.803V109.77H192.936L192.903 109.803ZM220.48 62.1033V62.0702H220.513L220.48 62.1033ZM241.187 81.9836L241.154 81.9505H241.187V81.9836Z" fill="#D9D9D9" fill-opacity="0.2"/>
<path d="M213.577 178.325L206.758 182.261H213.577V178.325ZM189.824 191.97L192.903 190.233V190.2H192.87L189.824 191.97ZM261.895 94.8015H261.862L254.959 98.771L248.09 102.74H248.057V102.773L241.187 106.71L234.285 110.679V110.712L227.416 114.682H227.382L220.513 118.651H220.48L206.741 126.59H206.708L199.839 130.593H199.806L192.936 134.562H192.903L186.034 138.531L179.131 142.501L172.262 146.47H172.229V146.503L165.359 150.44L165.326 150.473L158.457 154.442V289.601L165.326 285.632L172.229 281.663L179.131 277.66L186.034 273.691L192.903 269.721L199.806 265.752L206.675 261.782H206.708V261.749L213.577 257.813L213.611 257.78L220.48 253.81L227.382 249.841L234.252 245.872H234.285L241.154 241.902H241.187V241.869L248.057 237.933V237.9L254.959 233.93L261.829 229.961H261.862L268.681 226.024L268.715 225.991H268.748V178.259H268.715L261.845 174.323L261.878 174.289H261.795L255.042 170.403L255.158 170.32L261.944 166.433L261.978 166.4L268.731 162.513V90.8486L261.862 94.8181L261.895 94.8015ZM227.382 178.259H227.416L227.382 178.292V178.259ZM165.376 190.2L165.343 190.233V190.2H165.376ZM165.343 253.843V253.81H165.376L165.343 253.843ZM172.245 273.724V273.691H172.279L172.245 273.724ZM241.154 218.052L234.285 222.022L220.48 229.961V229.994L213.611 233.93V233.963H213.577L199.839 241.902H199.806L192.936 245.872H192.903L186.034 249.841V218.019L192.903 214.083V214.05H192.936L199.806 210.08H199.839L200.418 209.733H200.451L206.625 206.144H206.658L206.741 206.061H206.774L211.558 203.283L213.561 202.125H213.594V202.092H213.627L218.444 199.313L220.414 198.189L220.447 198.156H220.48L227.267 194.186H227.3L227.333 194.153H227.366L234.235 190.184H234.268L241.088 186.247V186.214H241.121V218.036H241.088L241.154 218.052ZM241.154 162.381L234.285 166.351H234.252L234.219 166.384L227.399 170.32L227.316 170.353H227.283L220.53 174.289H220.497V174.323H220.463L213.677 178.259H213.644V178.292H213.611V178.325L206.791 182.261H206.708L199.839 186.231L199.756 186.264L192.969 190.2H192.887L189.841 191.97L186.067 194.17V162.381L186.15 162.348L192.936 158.412V158.379H192.969L199.839 154.442L206.708 150.44H206.741L213.644 146.47L220.513 142.501L227.416 138.531V138.498H227.449L234.318 134.562V134.529L241.187 130.56H241.22V162.381H241.154Z" fill="#D9D9D9" fill-opacity="0.2"/>
<path d="M137.799 150.456V150.423H137.766L130.897 146.454L117.092 138.515L110.223 134.545L103.32 130.576V130.543H103.287L96.4176 126.574L89.5151 122.604L82.6457 118.635L75.7433 114.665L68.8408 110.663L61.9383 106.693L55.069 102.724L41.264 94.785L34.3616 90.7825L27.4922 86.8461V222.005L55.069 237.883V190.184L61.9383 194.153L68.8408 198.123V198.156L82.6457 206.095L89.5151 210.064L103.32 218.003V218.036L110.223 222.005L117.092 225.975V273.674L144.669 289.552V154.393L137.799 150.456ZM82.6623 190.217L82.6292 190.184H82.6623V190.217ZM117.092 194.153L110.223 190.184L89.5151 178.275V178.242L82.6457 174.306V174.273L68.8408 166.334L61.9714 162.365H61.9383V162.332L55.069 158.395V134.545L61.9383 138.515L68.8408 142.484L75.7102 146.454H75.7433L82.6457 150.456L89.5151 154.426L96.4176 158.395L103.287 162.365H103.32L110.189 166.334H110.223V166.367L117.092 170.303V194.153Z" fill="#D9D9D9" fill-opacity="0.2"/>
</svg>
