<svg width="45" height="44" viewBox="0 0 45 44" fill="none" xmlns="http://www.w3.org/2000/svg">
<rect x="0.5" width="44" height="44" rx="9" fill="url(#paint0_linear_10061_12972)"/>
<path d="M34.8081 13.5722V13.5687L34.0619 13.1395L33.3193 12.7104H33.3157L31.8304 11.8522H31.8268L31.0806 11.4195L30.338 10.9903H30.3344L29.5918 10.5612L28.8456 10.1321L28.1029 9.70294H28.0993L27.3531 10.1356L27.3406 10.1446L26.6105 10.5612L25.8643 10.9939L25.1181 11.423L24.3754 11.8522H24.3719L23.6292 12.2813L22.883 12.7104V12.714L22.1368 13.1431L21.3942 13.5722L20.648 14.0014L21.3942 14.4305L22.1368 14.8596H22.1404L22.883 15.2888L23.6292 14.8596L24.3719 14.4305L25.8643 13.5722V13.5687L26.6105 13.1395L27.3531 12.7104L28.0993 13.1395L28.8456 13.5722L29.5918 14.0014L28.8491 14.4305H28.8456L28.1029 14.8596H28.0993V14.8632L27.3567 15.2923H27.3531L26.6105 15.7215L25.8643 16.1506L25.1217 16.5797L25.1181 16.5833L24.3754 17.0088L24.3719 17.0124L23.6292 17.4415L22.883 17.8707L22.1368 17.4415L21.3942 17.0124L21.3906 17.0088L20.648 16.5833V16.5797H20.6444L19.9017 16.1506L19.1555 15.7215L18.4129 15.2923H18.4093L17.6667 14.8632L17.6631 14.8596L16.9205 14.4305H16.9169L16.1743 14.0014L17.6667 13.1431L18.4129 12.7104L19.1555 12.2813L21.3942 10.9939V10.9903L22.1368 10.5648V10.5612H22.1404L23.6257 9.70294H23.6292L24.3719 9.27381H24.3754L25.1181 8.84469V8.84111L25.8643 8.41198L25.1217 7.98285H25.1181L24.3754 7.55373H24.3719V7.55015L23.6292 7.1246V7.12102L22.883 6.69189L22.1368 7.12102L21.3942 7.55015V7.55373H21.3906L20.648 7.98285H20.6444L19.9017 8.41198L19.1555 8.84111L18.4129 9.27024V9.27381H18.4093L17.6667 9.69937V9.70294H17.6631L16.9205 10.1321H16.9169L15.4316 10.9903L14.6854 11.4195V11.423H14.6818L13.9392 11.8522L13.193 12.2813L12.4504 12.7104H12.4468L11.7041 13.1395L10.9579 13.5687V13.5722L10.2117 14.0014L11.7041 14.8596V14.8632L12.4504 15.2923L13.193 15.7215L15.4316 17.0088V17.0124L16.1743 17.438V17.4415L16.9205 17.8707L17.6631 18.2998H17.6667L18.4093 18.7289H18.4129V18.7325L19.1555 19.1581V19.1616L19.9017 19.5908L20.6444 20.0199H20.648L21.3906 20.449H21.3942L22.1368 20.8781L22.883 21.3073L23.6292 20.8781L24.3719 20.449H24.3754L25.1181 20.0199L26.6105 19.1616V19.1581L27.3531 18.7325V18.7289H27.3567L28.0993 18.2998H28.1029L28.8456 17.8707L29.5918 17.4415V17.438L30.3344 17.0124V17.0088H30.338L31.0806 16.5797L32.5731 15.7215L33.3157 15.2923L34.0619 14.8632V14.8596L35.5543 14.0014L34.8081 13.5722ZM24.3737 12.714V12.7104H24.3772L24.3737 12.714ZM27.3549 17.8707V17.8671H27.3585L27.3549 17.8707ZM30.3362 12.714V12.7104H30.3398L30.3362 12.714ZM32.5748 14.8632L32.5713 14.8596H32.5748V14.8632Z" fill="white"/>
<path d="M29.59 25.2785L28.8527 25.7041H29.59V25.2785ZM27.0221 26.7536L27.3549 26.5659V26.5623H27.3513L27.0221 26.7536ZM34.8135 16.2489H34.8099L34.0637 16.6781L33.3211 17.1072H33.3175V17.1108L32.5748 17.5363L31.8286 17.9654V17.969L31.086 18.3981H31.0824L30.3398 18.8273H30.3362L28.8509 19.6855H28.8474L28.1047 20.1182H28.1011L27.3585 20.5474H27.3549L26.6123 20.9765L25.8661 21.4056L25.1234 21.8347H25.1199V21.8383L24.3772 22.2639L24.3737 22.2675L23.631 22.6966V37.3084L24.3737 36.8793L25.1199 36.4501L25.8661 36.0174L26.6123 35.5883L27.3549 35.1592L28.1011 34.73L28.8438 34.3009H28.8474V34.2973L29.59 33.8718L29.5936 33.8682L30.3362 33.4391L31.0824 33.01L31.825 32.5808H31.8286L32.5713 32.1517H32.5748V32.1481L33.3175 31.7226V31.719L34.0637 31.2899L34.8063 30.8607H34.8099L35.5472 30.4352L35.5507 30.4316H35.5543V25.2713H35.5507L34.8081 24.8458L34.8117 24.8422H34.8027L34.0726 24.422L34.0852 24.4131L34.8188 23.9929L34.8224 23.9893L35.5525 23.5691V15.8216L34.8099 16.2507L34.8135 16.2489ZM31.0824 25.2713H31.086L31.0824 25.2749V25.2713ZM24.379 26.5623L24.3754 26.5659V26.5623H24.379ZM24.3754 33.4427V33.4391H24.379L24.3754 33.4427ZM25.1217 35.5919V35.5883H25.1252L25.1217 35.5919ZM32.5713 29.5734L31.8286 30.0025L30.3362 30.8607V30.8643L29.5936 31.2899V31.2934H29.59L28.1047 32.1517H28.1011L27.3585 32.5808H27.3549L26.6123 33.01V29.5698L27.3549 29.1442V29.1407H27.3585L28.1011 28.7115H28.1047L28.1673 28.674H28.1709L28.8384 28.286H28.842L28.8509 28.277H28.8545L29.3717 27.9766L29.5882 27.8515H29.5918V27.8479H29.5954L30.1161 27.5475L30.329 27.4259L30.3326 27.4224H30.3362L31.0699 26.9932H31.0735L31.077 26.9896H31.0806L31.8233 26.5605H31.8268L32.5641 26.135V26.1314H32.5677V29.5716H32.5641L32.5713 29.5734ZM32.5713 23.5548L31.8286 23.984H31.825L31.8215 23.9875L31.0842 24.4131L31.0753 24.4167H31.0717L30.3416 24.8422H30.338V24.8458H30.3344L29.6007 25.2713H29.5971V25.2749H29.5936V25.2785L28.8563 25.7041H28.8474L28.1047 26.1332L28.0958 26.1368L27.3621 26.5623H27.3531L27.0239 26.7536L26.6159 26.9914V23.5548L26.6248 23.5513L27.3585 23.1257V23.1221H27.3621L28.1047 22.6966L28.8474 22.2639H28.8509L29.5971 21.8347L30.3398 21.4056L31.086 20.9765V20.9729H31.0896L31.8322 20.5474V20.5438L32.5748 20.1147H32.5784V23.5548H32.5713Z" fill="white"/>
<path d="M21.3977 22.2657V22.2621H21.3942L20.6515 21.833L19.1591 20.9747L18.4165 20.5456L17.6703 20.1164V20.1129H17.6667L16.924 19.6837L16.1778 19.2546L15.4352 18.8255L14.689 18.3964L13.9428 17.9637L13.1966 17.5345L12.4539 17.1054L10.9615 16.2471L10.2153 15.8144L9.47266 15.3889V30.0007L12.4539 31.7172V26.5605L13.1966 26.9896L13.9428 27.4188V27.4224L15.4352 28.2806L16.1778 28.7097L17.6703 29.568V29.5716L18.4165 30.0007L19.1591 30.4298V35.5865L22.1404 37.303V22.6912L21.3977 22.2657ZM15.437 26.5641L15.4334 26.5605H15.437V26.5641ZM19.1591 26.9896L18.4165 26.5605L16.1778 25.2731V25.2696L15.4352 24.844V24.8404L13.9428 23.9822L13.2001 23.553H13.1966V23.5495L12.4539 23.1239V20.5456L13.1966 20.9747L13.9428 21.4038L14.6854 21.833H14.689L15.4352 22.2657L16.1778 22.6948L16.924 23.1239L17.6667 23.553H17.6703L18.4129 23.9822H18.4165V23.9858L19.1591 24.4113V26.9896Z" fill="white"/>
<defs>
<linearGradient id="paint0_linear_10061_12972" x1="22.5" y1="0" x2="22.5" y2="44" gradientUnits="userSpaceOnUse">
<stop stop-color="#0D9563"/>
<stop offset="1" stop-color="#00A9AB"/>
</linearGradient>
</defs>
</svg>
