<svg width="100" height="100" viewBox="0 0 100 100" fill="none" xmlns="http://www.w3.org/2000/svg">
<path d="M88.4604 23.6627V23.6515L86.1285 22.3105L83.8078 20.9695H83.7966L79.1551 18.2874H79.1439L76.812 16.9352L74.4913 15.5942H74.4801L72.1594 14.2532L69.8274 12.9122L67.5067 11.5711H67.4955L65.1636 12.9233L65.1245 12.9513L62.8429 14.2532L60.511 15.6054L58.1791 16.9464L55.8583 18.2874H55.8471L53.5264 19.6285L51.1945 20.9695V20.9807L48.8626 22.3217L46.5418 23.6627L44.2099 25.0037L46.5418 26.3448L48.8626 27.6858H48.8738L51.1945 29.0268L53.5264 27.6858L55.8471 26.3448L60.511 23.6627V23.6515L62.8429 22.3105L65.1636 20.9695L67.4955 22.3105L69.8274 23.6627L72.1594 25.0037L69.8386 26.3448H69.8274L67.5067 27.6858H67.4955V27.697L65.1748 29.038H65.1636L62.8429 30.379L60.511 31.72L58.1902 33.0611L58.1791 33.0722L55.8583 34.4021L55.8471 34.4133L53.5264 35.7543L51.1945 37.0953L48.8626 35.7543L46.5418 34.4133L46.5307 34.4021L44.2099 33.0722V33.0611H44.1987L41.878 31.72L39.5461 30.379L37.2254 29.038H37.2142L34.8934 27.697L34.8823 27.6858L32.5615 26.3448H32.5503L30.2296 25.0037L34.8934 22.3217L37.2254 20.9695L39.5461 19.6285L46.5418 15.6054V15.5942L48.8626 14.2644V14.2532H48.8738L53.5152 11.5711H53.5264L55.8471 10.2301H55.8583L58.1791 8.8891V8.87792L60.511 7.5369L58.1902 6.19587H58.1791L55.8583 4.85485H55.8471V4.84367L53.5264 3.51382V3.50265L51.1945 2.16162L48.8626 3.50265L46.5418 4.84367V4.85485H46.5307L44.2099 6.19587H44.1987L41.878 7.5369L39.5461 8.87792L37.2254 10.2189V10.2301H37.2142L34.8934 11.56V11.5711H34.8823L32.5615 12.9122H32.5503L27.9089 15.5942L25.577 16.9352V16.9464H25.5658L23.2451 18.2874L20.9131 19.6285L18.5924 20.9695H18.5812L16.2605 22.3105L13.9286 23.6515V23.6627L11.5967 25.0037L16.2605 27.6858V27.697L18.5924 29.038L20.9131 30.379L27.9089 34.4021V34.4133L30.2296 35.7431V35.7543L32.5615 37.0953L34.8823 38.4363H34.8934L37.2142 39.7774H37.2254V39.7885L39.5461 41.1184V41.1296L41.878 42.4706L44.1987 43.8116H44.2099L46.5307 45.1526H46.5418L48.8626 46.4937L51.1945 47.8347L53.5264 46.4937L55.8471 45.1526H55.8583L58.1791 43.8116L62.8429 41.1296V41.1184L65.1636 39.7885V39.7774H65.1748L67.4955 38.4363H67.5067L69.8274 37.0953L72.1594 35.7543V35.7431L74.4801 34.4133V34.4021H74.4913L76.812 33.0611L81.4758 30.379L83.7966 29.038L86.1285 27.697V27.6858L90.7923 25.0037L88.4604 23.6627ZM55.8527 20.9807V20.9695H55.8639L55.8527 20.9807ZM65.1692 37.0953V37.0841H65.1804L65.1692 37.0953ZM74.4857 20.9807V20.9695H74.4969L74.4857 20.9807ZM81.4814 27.697L81.4702 27.6858H81.4814V27.697Z" fill="#0D9563"/>
<path d="M72.1538 60.2448L69.8498 61.5746H72.1538V60.2448ZM64.1291 64.8545L65.1692 64.2678V64.2567H65.158L64.1291 64.8545ZM88.4772 32.0274H88.466L86.1341 33.3684L83.8133 34.7094H83.8022V34.7206L81.4814 36.0504L79.1495 37.3915V37.4026L76.8288 38.7437H76.8176L74.4969 40.0847H74.4857L69.8442 42.7667H69.833L67.5123 44.1189H67.5011L65.1804 45.46H65.1692L62.8485 46.801L60.5166 48.142L58.1958 49.483H58.1846V49.4942L55.8639 50.8241L55.8527 50.8352L53.532 52.1763V97.8382L55.8527 96.4971L58.1846 95.1561L60.5166 93.8039L62.8485 92.4629L65.1692 91.1219L67.5011 89.7808L69.8218 88.4398H69.833V88.4286L72.1538 87.0988L72.165 87.0876L74.4857 85.7466L76.8176 84.4056L79.1383 83.0645H79.1495L81.4702 81.7235H81.4814V81.7123L83.8022 80.3825V80.3713L86.1341 79.0303L88.4548 77.6893H88.466L90.7699 76.3594L90.7811 76.3482H90.7923V60.2224H90.7811L88.4604 58.8926L88.4716 58.8814H88.4436L86.162 57.5683L86.2012 57.5404L88.4939 56.2273L88.5051 56.2161L90.7867 54.903V30.6919L88.466 32.033L88.4772 32.0274ZM76.8176 60.2224H76.8288L76.8176 60.2336V60.2224ZM55.8695 64.2567L55.8583 64.2678V64.2567H55.8695ZM55.8583 85.7578V85.7466H55.8695L55.8583 85.7578ZM58.1902 92.4741V92.4629H58.2014L58.1902 92.4741ZM81.4702 73.6662L79.1495 75.0072L74.4857 77.6893V77.7004L72.165 79.0303V79.0415H72.1538L67.5123 81.7235H67.5011L65.1804 83.0645H65.1692L62.8485 84.4056V73.655L65.1692 72.3252V72.314H65.1804L67.5011 70.973H67.5123L67.708 70.8556H67.7192L69.8051 69.6431H69.8163L69.8442 69.6152H69.8554L71.4715 68.6765L72.1482 68.2853H72.1594V68.2741H72.1705L73.7979 67.3354L74.4633 66.9555L74.4745 66.9443H74.4857L76.7785 65.6033H76.7896L76.8008 65.5921H76.812L79.1327 64.2511H79.1439L81.4479 62.9212V62.9101H81.4591V73.6606H81.4479L81.4702 73.6662ZM81.4702 54.8583L79.1495 56.1993H79.1383L79.1272 56.2105L76.8232 57.5404L76.7952 57.5515H76.784L74.5025 58.8814H74.4913V58.8926H74.4801L72.1873 60.2224H72.1761V60.2336H72.165V60.2448L69.861 61.5746H69.833L67.5123 62.9156L67.4843 62.9268L65.1916 64.2567H65.1636L64.1347 64.8545L62.8597 65.5977V54.8583L62.8876 54.8471L65.1804 53.5173V53.5061H65.1916L67.5123 52.1763L69.833 50.8241H69.8442L72.1761 49.483L74.4969 48.142L76.8288 46.801V46.7898H76.84L79.1607 45.46V45.4488L81.4814 44.1078H81.4926V54.8583H81.4702Z" fill="#0D9563"/>
<path d="M46.553 50.8297V50.8185H46.5418L44.2211 49.4775L39.5573 46.7954L37.2365 45.4544L34.9046 44.1134V44.1022H34.8934L32.5727 42.7612L30.2408 41.4201L27.9201 40.0791L25.5882 38.7381L23.2562 37.3859L20.9243 36.0449L18.6036 34.7038L13.9398 32.0218L11.6078 30.6696L9.28711 29.3397V75.0016L18.6036 80.3657V64.2511L20.9243 65.5921L23.2562 66.9331V66.9443L27.9201 69.6264L30.2408 70.9674L34.9046 73.6494V73.6606L37.2365 75.0016L39.5573 76.3427V92.4573L48.8738 97.8214V52.1595L46.553 50.8297ZM27.9257 64.2623L27.9145 64.2511H27.9257V64.2623ZM39.5573 65.5921L37.2365 64.2511L30.2408 60.228V60.2168L27.9201 58.887V58.8758L23.2562 56.1938L20.9355 54.8527H20.9243V54.8416L18.6036 53.5117V45.4544L20.9243 46.7954L23.2562 48.1364L25.577 49.4775H25.5882L27.9201 50.8297L30.2408 52.1707L32.5727 53.5117L34.8934 54.8527H34.9046L37.2254 56.1938H37.2365V56.2049L39.5573 57.5348V65.5921Z" fill="#0D9563"/>
</svg>
