<svg width="64" height="64" viewBox="0 0 64 64" fill="none" xmlns="http://www.w3.org/2000/svg">
<path d="M56.6149 15.1442V15.137L55.1224 14.2788L53.6372 13.4205H53.63L50.6595 11.704H50.6523L49.1599 10.8386L47.6746 9.98035H47.6675L46.1822 9.12209L44.6898 8.26383L43.2045 7.40558H43.1974L41.7049 8.27099L41.6799 8.28887L40.2197 9.12209L38.7272 9.9875L37.2348 10.8458L35.7495 11.704H35.7424L34.2571 12.5623L32.7647 13.4205V13.4277L31.2723 14.2859L29.787 15.1442L28.2946 16.0024L29.787 16.8607L31.2723 17.719H31.2794L32.7647 18.5772L34.2571 17.719L35.7424 16.8607L38.7272 15.1442V15.137L40.2197 14.2788L41.7049 13.4205L43.1974 14.2788L44.6898 15.1442L46.1822 16.0024L44.6969 16.8607H44.6898L43.2045 17.719H43.1974V17.7261L41.7121 18.5844H41.7049L40.2197 19.4426L38.7272 20.3009L37.242 21.1591L37.2348 21.1663L35.7495 22.0174L35.7424 22.0245L34.2571 22.8828L32.7647 23.7411L31.2723 22.8828L29.787 22.0245L29.7798 22.0174L28.2946 21.1663V21.1591H28.2874L26.8021 20.3009L25.3097 19.4426L23.8245 18.5844H23.8173L22.332 17.7261L22.3249 17.719L20.8396 16.8607H20.8324L19.3472 16.0024L22.332 14.2859L23.8245 13.4205L25.3097 12.5623L29.787 9.9875V9.98035L31.2723 9.12924V9.12209H31.2794L34.25 7.40558H34.2571L35.7424 6.54732H35.7495L37.2348 5.68907V5.68192L38.7272 4.82366L37.242 3.9654H37.2348L35.7495 3.10715H35.7424V3.1L34.2571 2.24889V2.24174L32.7647 1.38348L31.2723 2.24174L29.787 3.1V3.10715H29.7798L28.2946 3.9654H28.2874L26.8021 4.82366L25.3097 5.68192L23.8245 6.54017V6.54732H23.8173L22.332 7.39843V7.40558H22.3249L20.8396 8.26383H20.8324L17.8619 9.98035L16.3695 10.8386V10.8458H16.3623L14.8771 11.704L13.3846 12.5623L11.8994 13.4205H11.8922L10.4069 14.2788L8.91451 15.137V15.1442L7.42208 16.0024L10.4069 17.719V17.7261L11.8994 18.5844L13.3846 19.4426L17.8619 22.0174V22.0245L19.3472 22.8756V22.8828L20.8396 23.7411L22.3249 24.5993H22.332L23.8173 25.4576H23.8245V25.4647L25.3097 26.3158V26.323L26.8021 27.1812L28.2874 28.0395H28.2946L29.7798 28.8977H29.787L31.2723 29.756L32.7647 30.6143L34.2571 29.756L35.7424 28.8977H35.7495L37.2348 28.0395L40.2197 26.323V26.3158L41.7049 25.4647V25.4576H41.7121L43.1974 24.5993H43.2045L44.6898 23.7411L46.1822 22.8828V22.8756L47.6675 22.0245V22.0174H47.6746L49.1599 21.1591L52.1448 19.4426L53.63 18.5844L55.1224 17.7261V17.719L58.1073 16.0024L56.6149 15.1442ZM35.746 13.4277V13.4205H35.7531L35.746 13.4277ZM41.7085 23.7411V23.7339H41.7157L41.7085 23.7411ZM47.6711 13.4277V13.4205H47.6782L47.6711 13.4277ZM52.1483 17.7261L52.1412 17.719H52.1483V17.7261Z" fill="white"/>
<path d="M46.1786 38.5567L44.7041 39.4078H46.1786V38.5567ZM41.0428 41.5069L41.7085 41.1315V41.1243H41.7014L41.0428 41.5069ZM56.6256 20.4976H56.6185L55.126 21.3558L53.6408 22.2141H53.6336V22.2212L52.1483 23.0723L50.6559 23.9306V23.9377L49.1706 24.796H49.1635L47.6782 25.6542H47.6711L44.7005 27.3708H44.6934L43.2081 28.2362H43.2009L41.7157 29.0944H41.7085L40.2232 29.9527L38.7308 30.8109L37.2455 31.6692H37.2384V31.6763L35.7531 32.5274L35.746 32.5346L34.2607 33.3929V62.6165L35.746 61.7582L37.2384 60.9L38.7308 60.0345L40.2232 59.1763L41.7085 58.318L43.2009 57.4598L44.6862 56.6015H44.6934V56.5944L46.1786 55.7433L46.1858 55.7361L47.6711 54.8779L49.1635 54.0196L50.6488 53.1613H50.6559L52.1412 52.3031H52.1483V52.2959L53.6336 51.4448V51.4377L55.126 50.5794L56.6113 49.7212H56.6185L58.093 48.8701L58.1001 48.8629H58.1073V38.5424H58.1001L56.6149 37.6913L56.622 37.6841H56.6041L55.1439 36.8438L55.169 36.8259L56.6363 35.9855L56.6435 35.9784L58.1037 35.138V19.6429L56.6185 20.5011L56.6256 20.4976ZM49.1635 38.5424H49.1706L49.1635 38.5495V38.5424ZM35.7567 41.1243L35.7495 41.1315V41.1243H35.7567ZM35.7495 54.885V54.8779H35.7567L35.7495 54.885ZM37.242 59.1834V59.1763H37.2491L37.242 59.1834ZM52.1412 47.1464L50.6559 48.0047L47.6711 49.7212V49.7283L46.1858 50.5794V50.5866H46.1786L43.2081 52.3031H43.2009L41.7157 53.1613H41.7085L40.2232 54.0196V47.1393L41.7085 46.2881V46.281H41.7157L43.2009 45.4227H43.2081L43.3334 45.3476H43.3405L44.6755 44.5716H44.6826L44.7005 44.5538H44.7077L45.742 43.953L46.175 43.7027H46.1822V43.6955H46.1894L47.2308 43.0947L47.6567 42.8515L47.6639 42.8444H47.6711L49.1384 41.9861H49.1456L49.1527 41.979H49.1599L50.6452 41.1207H50.6523L52.1269 40.2696V40.2625H52.134V47.1428H52.1269L52.1412 47.1464ZM52.1412 35.1094L50.6559 35.9676H50.6488L50.6416 35.9748L49.1671 36.8259L49.1492 36.833H49.142L47.6818 37.6841H47.6746V37.6913H47.6675L46.2001 38.5424H46.1929V38.5495H46.1858V38.5567L44.7113 39.4078H44.6934L43.2081 40.2661L43.1902 40.2732L41.7228 41.1243H41.7049L41.0464 41.5069L40.2304 41.9826V35.1094L40.2483 35.1022L41.7157 34.2511V34.244H41.7228L43.2081 33.3929L44.6934 32.5274H44.7005L46.1929 31.6692L47.6782 30.8109L49.1706 29.9527V29.9455H49.1778L50.6631 29.0944V29.0873L52.1483 28.229H52.1555V35.1094H52.1412Z" fill="white"/>
<path d="M29.7942 32.531V32.5239H29.787L28.3017 31.6656L25.3169 29.9491L23.8316 29.0908L22.3392 28.2326V28.2254H22.332L20.8468 27.3672L19.3543 26.5089L17.8691 25.6507L16.3766 24.7924L14.8842 23.927L13.3918 23.0688L11.9065 22.2105L8.92166 20.494L7.42924 19.6286L5.94397 18.7775V48.0011L11.9065 51.4341V41.1207L13.3918 41.979L14.8842 42.8372V42.8444L17.8691 44.5609L19.3543 45.4192L22.3392 47.1357V47.1428L23.8316 48.0011L25.3169 48.8593V59.1727L31.2794 62.6057V33.3821L29.7942 32.531ZM17.8726 41.1279L17.8655 41.1207H17.8726V41.1279ZM25.3169 41.979L23.8316 41.1207L19.3543 38.546V38.5388L17.8691 37.6877V37.6806L14.8842 35.964L13.3989 35.1058H13.3918V35.0986L11.9065 34.2475V29.0908L13.3918 29.9491L14.8842 30.8074L16.3695 31.6656H16.3766L17.8691 32.531L19.3543 33.3893L20.8468 34.2475L22.332 35.1058H22.3392L23.8244 35.964H23.8316V35.9712L25.3169 36.8223V41.979Z" fill="white"/>
</svg>
