<svg width="24" height="24" viewBox="0 0 24 24" fill="none" xmlns="http://www.w3.org/2000/svg">
<path d="M21.6846 18.7033C21.3216 19.5418 20.892 20.3136 20.3942 21.0232C19.7158 21.9906 19.1602 22.6603 18.7321 23.0321C18.0684 23.6424 17.3573 23.955 16.5959 23.9728C16.0492 23.9728 15.39 23.8172 14.6226 23.5017C13.8527 23.1876 13.1452 23.032 12.4982 23.032C11.8197 23.032 11.092 23.1876 10.3137 23.5017C9.53419 23.8172 8.9062 23.9817 8.42606 23.9979C7.69584 24.0291 6.96802 23.7075 6.24155 23.032C5.77786 22.6276 5.19788 21.9343 4.50305 20.9521C3.75759 19.9033 3.14475 18.687 2.66456 17.3003C2.15039 15.8026 1.89258 14.3523 1.89258 12.9482C1.89258 11.3398 2.24011 9.95259 2.93625 8.79009C3.48337 7.85634 4.2112 7.1198 5.12208 6.57905C6.03295 6.0383 7.01728 5.76276 8.07722 5.74514C8.6572 5.74514 9.4178 5.92453 10.3629 6.27712C11.3055 6.63089 11.9106 6.81033 12.1759 6.81033C12.3743 6.81033 13.0466 6.60056 14.1863 6.18234C15.264 5.7945 16.1736 5.63391 16.9187 5.69719C18.9379 5.86017 20.4549 6.65611 21.4638 8.09016C19.6579 9.18436 18.7646 10.7169 18.7824 12.6829C18.7987 14.2143 19.3542 15.4886 20.446 16.5004C20.9408 16.9701 21.4934 17.333 22.1082 17.5907C21.9749 17.9774 21.8341 18.3477 21.6845 18.7033H21.6846ZM17.0536 0.480141C17.0536 1.68042 16.6151 2.80111 15.741 3.83841C14.6863 5.07155 13.4105 5.78409 12.027 5.67169C12.0084 5.52078 11.9991 5.36889 11.9991 5.21686C11.9991 4.06458 12.5007 2.83144 13.3915 1.8232C13.8362 1.31273 14.4018 0.888234 15.0878 0.549609C15.7722 0.216047 16.4196 0.0315469 17.0284 0C17.0462 0.160453 17.0536 0.320906 17.0536 0.480094L17.0536 0.480141Z" fill="#424242"/>
</svg>
