<svg width="13" height="8" viewBox="0 0 13 8" fill="none" xmlns="http://www.w3.org/2000/svg">
<path d="M6.89922 7.04894L12.3828 1.29378C12.4743 1.19775 12.5254 1.07018 12.5254 0.937506C12.5254 0.804836 12.4743 0.677258 12.3828 0.58123L12.3766 0.575033C12.3322 0.52832 12.2788 0.491123 12.2196 0.465704C12.1604 0.440286 12.0966 0.427178 12.0322 0.427178C11.9678 0.427178 11.904 0.440286 11.8448 0.465705C11.7856 0.491123 11.7322 0.52832 11.6878 0.575033L6.52436 5.99457L1.363 0.575034C1.31862 0.528321 1.2652 0.491124 1.206 0.465705C1.14679 0.440287 1.08303 0.427179 1.0186 0.427179C0.954165 0.427179 0.890406 0.440287 0.831199 0.465705C0.771992 0.491124 0.718575 0.528321 0.674197 0.575034L0.668001 0.581231C0.576458 0.677259 0.525391 0.804837 0.525391 0.937507C0.525391 1.07018 0.576458 1.19776 0.668001 1.29378L6.15156 7.04894C6.19978 7.09955 6.25778 7.13985 6.32204 7.16738C6.3863 7.19491 6.45548 7.20911 6.52539 7.20911C6.5953 7.20911 6.66448 7.19491 6.72874 7.16738C6.793 7.13985 6.851 7.09955 6.89922 7.04894Z" fill="#1D1B20"/>
</svg>
