<svg width="24" height="24" viewBox="0 0 24 24" fill="none" xmlns="http://www.w3.org/2000/svg">
<path fill-rule="evenodd" clip-rule="evenodd" d="M7.94011 13.0598C7.65921 12.7786 7.50143 12.3973 7.50143 11.9998C7.50143 11.6023 7.65921 11.2211 7.94011 10.9398L13.5961 5.28184C13.8775 5.00058 14.2591 4.84262 14.657 4.84272C15.0548 4.84281 15.4363 5.00095 15.7176 5.28234C15.9989 5.56374 16.1568 5.94534 16.1567 6.3432C16.1566 6.74106 15.9985 7.12258 15.7171 7.40384L11.1211 11.9998L15.7171 16.5958C15.9905 16.8786 16.1419 17.2575 16.1386 17.6507C16.1354 18.044 15.9778 18.4203 15.6998 18.6986C15.4219 18.9768 15.0457 19.1348 14.6524 19.1384C14.2591 19.142 13.8801 18.991 13.5971 18.7178L7.93911 13.0608L7.94011 13.0598Z" fill="#777777"/>
</svg>
