<svg width="40" height="40" viewBox="0 0 40 40" fill="none" xmlns="http://www.w3.org/2000/svg">
<g clip-path="url(#clip0_11015_14787)">
<rect width="40" height="40" rx="20" fill="white"/>
<path fill-rule="evenodd" clip-rule="evenodd" d="M12.39 12.3989C12.6398 12.1539 12.9785 12.0163 13.3317 12.0163C13.6849 12.0163 14.0236 12.1539 14.2734 12.3989L19.9917 18.0076L25.7099 12.3989C25.8328 12.2741 25.9798 12.1745 26.1423 12.1061C26.3048 12.0376 26.4796 12.0016 26.6564 12C26.8333 11.9985 27.0087 12.0316 27.1724 12.0973C27.3361 12.163 27.4848 12.26 27.6099 12.3827C27.7349 12.5053 27.8338 12.6512 27.9008 12.8118C27.9678 12.9723 28.0015 13.1444 27.9999 13.3178C27.9984 13.4913 27.9617 13.6627 27.8919 13.8221C27.8221 13.9815 27.7206 14.1257 27.5934 14.2462L20.9334 20.7786C20.6836 21.0235 20.3449 21.1611 19.9917 21.1611C19.6385 21.1611 19.2997 21.0235 19.05 20.7786L12.39 14.2462C12.1403 14.0012 12 13.669 12 13.3225C12 12.9761 12.1403 12.6439 12.39 12.3989ZM12.39 20.2377C12.6398 19.9928 12.9785 19.8552 13.3317 19.8552C13.6849 19.8552 14.0236 19.9928 14.2734 20.2377L19.9917 25.8464L25.7099 20.2377C25.9611 19.9997 26.2976 19.8681 26.6468 19.871C26.9961 19.874 27.3302 20.0114 27.5771 20.2536C27.8241 20.4959 27.9642 20.8236 27.9672 21.1661C27.9702 21.5087 27.836 21.8387 27.5934 22.0851L20.9334 28.6175C20.6836 28.8624 20.3449 29 19.9917 29C19.6385 29 19.2997 28.8624 19.05 28.6175L12.39 22.0851C12.1403 21.8401 12 21.5078 12 21.1614C12 20.815 12.1403 20.4827 12.39 20.2377Z" fill="#0D9563"/>
</g>
<defs>
<clipPath id="clip0_11015_14787">
<rect width="40" height="40" rx="20" fill="white"/>
</clipPath>
</defs>
</svg>
