<svg width="24" height="24" viewBox="0 0 24 24" fill="none" xmlns="http://www.w3.org/2000/svg">
<path fill-rule="evenodd" clip-rule="evenodd" d="M16.0604 10.9404C16.3413 11.2217 16.4991 11.6029 16.4991 12.0004C16.4991 12.3979 16.3413 12.7792 16.0604 13.0604L10.4044 18.7184C10.123 18.9997 9.74138 19.1576 9.34352 19.1575C8.94566 19.1574 8.56414 18.9993 8.28288 18.7179C8.00161 18.4365 7.84365 18.0549 7.84375 17.657C7.84384 17.2592 8.00198 16.8777 8.28338 16.5964L12.8794 12.0004L8.28338 7.4044C8.01 7.12163 7.85863 6.74279 7.86186 6.34949C7.86509 5.9562 8.02267 5.5799 8.30065 5.30166C8.57863 5.02341 8.95478 4.86548 9.34807 4.86188C9.74137 4.85828 10.1203 5.00929 10.4034 5.2824L16.0614 10.9394L16.0604 10.9404Z" fill="#777777"/>
</svg>
