<svg width="16" height="16" viewBox="0 0 16 16" fill="none" xmlns="http://www.w3.org/2000/svg">
<path d="M14.3635 5.29279C14.1759 5.10532 13.9216 5 13.6565 5C13.3913 5 13.137 5.10532 12.9495 5.29279L7.99946 10.2428L3.04946 5.29279C2.86086 5.11063 2.60826 5.00983 2.34606 5.01211C2.08387 5.01439 1.83305 5.11956 1.64764 5.30497C1.46224 5.49038 1.35707 5.74119 1.35479 6.00338C1.35251 6.26558 1.45331 6.51818 1.63546 6.70679L7.29246 12.3638C7.47999 12.5513 7.7343 12.6566 7.99946 12.6566C8.26463 12.6566 8.51894 12.5513 8.70646 12.3638L14.3635 6.70679C14.5509 6.51926 14.6562 6.26495 14.6562 5.99979C14.6562 5.73462 14.5509 5.48031 14.3635 5.29279Z" fill="#777777"/>
</svg>
