<svg width="154" height="154" viewBox="0 0 154 154" fill="none" xmlns="http://www.w3.org/2000/svg">
<path d="M136.23 36.4408V36.4236L132.638 34.3584L129.065 32.2932H129.047L121.899 28.1629H121.882L118.291 26.0805L114.717 24.0153H114.7L111.126 21.9501L107.535 19.8849L103.961 17.8198H103.944L100.353 19.9022L100.292 19.9452L96.7786 21.9501L93.1875 24.0325L89.5963 26.0977L86.0224 28.1629H86.0052L82.4312 30.228L78.8401 32.2932V32.3104L75.2489 34.3756L71.675 36.4408L68.0839 38.506L71.675 40.5711L75.2489 42.6363H75.2662L78.8401 44.7015L82.4312 42.6363L86.0052 40.5711L93.1875 36.4408V36.4236L96.7786 34.3584L100.353 32.2932L103.944 34.3584L107.535 36.4408L111.126 38.506L107.552 40.5711H107.535L103.961 42.6363H103.944V42.6535L100.37 44.7187H100.353L96.7786 46.7839L93.1875 48.8491L89.6135 50.9142L89.5963 50.9315L86.0224 52.9794L86.0052 52.9966L82.4312 55.0618L78.8401 57.127L75.2489 55.0618L71.675 52.9966L71.6578 52.9794L68.0839 50.9315V50.9142H68.0666L64.4927 48.8491L60.9016 46.7839L57.3276 44.7187H57.3104L53.7365 42.6535L53.7193 42.6363L50.1453 40.5711H50.1281L46.5542 38.506L53.7365 34.3756L57.3276 32.2932L60.9016 30.228L71.675 24.0325V24.0153L75.2489 21.9673V21.9501H75.2662L82.414 17.8198H82.4312L86.0052 15.7546H86.0224L89.5963 13.6894V13.6722L93.1875 11.607L89.6135 9.54185H89.5963L86.0224 7.47667H86.0052V7.45946L82.4312 5.41149V5.39428L78.8401 3.3291L75.2489 5.39428L71.675 7.45946V7.47667H71.6578L68.0839 9.54185H68.0666L64.4927 11.607L60.9016 13.6722L57.3276 15.7374V15.7546H57.3104L53.7365 17.8026V17.8198H53.7193L50.1453 19.8849H50.1281L42.9803 24.0153L39.3891 26.0805V26.0977H39.3719L35.798 28.1629L32.2068 30.228L28.6329 32.2932H28.6157L25.0417 34.3584L21.4506 36.4236V36.4408L17.8594 38.506L25.0417 42.6363V42.6535L28.6329 44.7187L32.2068 46.7839L42.9803 52.9794V52.9966L46.5542 55.0446V55.0618L50.1453 57.127L53.7193 59.1922H53.7365L57.3104 61.2574H57.3276V61.2746L60.9016 63.3225V63.3397L64.4927 65.4049L68.0666 67.4701H68.0839L71.6578 69.5353H71.675L75.2489 71.6004L78.8401 73.6656L82.4312 71.6004L86.0052 69.5353H86.0224L89.5963 67.4701L96.7786 63.3397V63.3225L100.353 61.2746V61.2574H100.37L103.944 59.1922H103.961L107.535 57.127L111.126 55.0618V55.0446L114.7 52.9966V52.9794H114.717L118.291 50.9142L125.473 46.7839L129.047 44.7187L132.638 42.6535V42.6363L139.821 38.506L136.23 36.4408ZM86.0138 32.3104V32.2932H86.031L86.0138 32.3104ZM100.361 57.127V57.1098H100.378L100.361 57.127ZM114.709 32.3104V32.2932H114.726L114.709 32.3104ZM125.482 42.6535L125.465 42.6363H125.482V42.6535Z" fill="#D9D9D9" fill-opacity="0.2"/>
<path d="M111.117 92.7771L107.569 94.8251H111.117V92.7771ZM98.7593 99.8762L100.361 98.9727V98.9555H100.344L98.7593 99.8762ZM136.255 49.3223H136.238L132.647 51.3875L129.073 53.4527H129.056V53.4699L125.482 55.5179L121.891 57.5831V57.6003L118.317 59.6654H118.3L114.726 61.7306H114.709L107.561 65.861H107.543L103.97 67.9434H103.952L100.378 70.0085H100.361L96.7872 72.0737L93.1961 74.1389L89.6222 76.2041H89.6049V76.2213L86.031 78.2692L86.0138 78.2865L82.4398 80.3516V150.671L86.0138 148.606L89.6049 146.541L93.1961 144.458L96.7872 142.393L100.361 140.328L103.952 138.263L107.526 136.198H107.543V136.18L111.117 134.132L111.135 134.115L114.709 132.05L118.3 129.985L121.874 127.92H121.891L125.465 125.854H125.482V125.837L129.056 123.789V123.772L132.647 121.707L136.221 119.642H136.238L139.786 117.594L139.804 117.576H139.821V92.7427H139.804L136.23 90.6947L136.247 90.6775H136.204L132.69 88.6554L132.75 88.6124L136.281 86.5902L136.298 86.573L139.812 84.5508V47.2658L136.238 49.3309L136.255 49.3223ZM118.3 92.7427H118.317L118.3 92.7599V92.7427ZM86.0396 98.9555L86.0224 98.9727V98.9555H86.0396ZM86.0224 132.067V132.05H86.0396L86.0224 132.067ZM89.6135 142.41V142.393H89.6308L89.6135 142.41ZM125.465 113.446L121.891 115.511L114.709 119.642V119.659L111.135 121.707V121.724H111.117L103.97 125.854H103.952L100.378 127.92H100.361L96.7872 129.985V113.429L100.361 111.381V111.364H100.378L103.952 109.299H103.97L104.271 109.118H104.288L107.5 107.251H107.518L107.561 107.208H107.578L110.067 105.762L111.109 105.16H111.126V105.142H111.143L113.649 103.697L114.674 103.112L114.691 103.094H114.709L118.239 101.029H118.257L118.274 101.012H118.291L121.865 98.9469H121.882L125.43 96.8989V96.8817H125.448V113.438H125.43L125.465 113.446ZM125.465 84.482L121.891 86.5472H121.874L121.856 86.5644L118.308 88.6124L118.265 88.6296H118.248L114.734 90.6775H114.717V90.6947H114.7L111.169 92.7427H111.152V92.7599H111.135V92.7771L107.587 94.8251H107.543L103.97 96.8903L103.926 96.9075L100.396 98.9555H100.353L98.768 99.8762L96.8045 101.021V84.482L96.8475 84.4648L100.378 82.4168V82.3996H100.396L103.97 80.3516L107.543 78.2692H107.561L111.152 76.2041L114.726 74.1389L118.317 72.0737V72.0565H118.334L121.908 70.0085V69.9913L125.482 67.9262H125.499V84.482H125.465Z" fill="#D9D9D9" fill-opacity="0.2"/>
<path d="M71.6922 78.2779V78.2607H71.675L68.1011 76.1955L60.9188 72.0651L57.3449 69.9999L53.7537 67.9348V67.9175H53.7365L50.1626 65.8524L46.5714 63.7872L42.9975 61.722L39.4063 59.6568L35.8152 57.5744L32.224 55.5093L28.6501 53.4441L21.4678 49.3137L17.8767 47.2313L14.3027 45.1834V115.503L28.6501 123.763V98.9469L32.224 101.012L35.8152 103.077V103.094L42.9975 107.225L46.5714 109.29L53.7537 113.42V113.438L57.3449 115.503L60.9188 117.568V142.384L75.2662 150.645V80.3258L71.6922 78.2779ZM43.0061 98.9641L42.9889 98.9469H43.0061V98.9641ZM60.9188 101.012L57.3449 98.9469L46.5714 92.7513V92.7341L42.9975 90.6861V90.6689L35.8152 86.5386L32.2413 84.4734H32.224V84.4562L28.6501 82.4082V69.9999L32.224 72.0651L35.8152 74.1303L39.3891 76.1955H39.4063L42.9975 78.2779L46.5714 80.343L50.1626 82.4082L53.7365 84.4734H53.7537L57.3276 86.5386H57.3449V86.5558L60.9188 88.6038V101.012Z" fill="#D9D9D9" fill-opacity="0.2"/>
</svg>
