<svg width="20" height="20" viewBox="0 0 20 20" fill="none" xmlns="http://www.w3.org/2000/svg">
<path d="M18.452 9.13602L16.7987 7.60002L15.332 4.66669C15.2061 4.46187 15.0295 4.29295 14.8194 4.17618C14.6092 4.05941 14.3725 3.99875 14.132 4.00002H5.86537C5.62493 3.99875 5.38823 4.05941 5.17805 4.17618C4.96787 4.29295 4.7913 4.46187 4.66536 4.66669L3.1987 7.60002L1.54536 9.13602C1.47801 9.19849 1.42429 9.2742 1.38758 9.3584C1.35087 9.44261 1.33196 9.53349 1.33203 9.62535V15.3334C1.33203 15.5102 1.40227 15.6797 1.52729 15.8048C1.65232 15.9298 1.82189 16 1.9987 16H4.66536C4.93203 16 5.33203 15.7334 5.33203 15.4667V14.6667H14.6654V15.3334C14.6654 15.6 14.932 16 15.1987 16H17.9987C18.1755 16 18.3451 15.9298 18.4701 15.8048C18.5951 15.6797 18.6654 15.5102 18.6654 15.3334V9.62535C18.6654 9.53349 18.6465 9.44261 18.6098 9.3584C18.5731 9.2742 18.5194 9.19849 18.452 9.13602ZM5.9987 5.33335H13.9987L15.332 8.00002H4.66536L5.9987 5.33335ZM6.66536 11.4667C6.66536 11.7334 6.26537 12 5.9987 12H3.1987C2.93203 12 2.66536 11.6 2.66536 11.3334V9.86669C2.7987 9.46669 3.06536 9.20002 3.46536 9.33335L6.13203 9.86669C6.3987 9.86669 6.66536 10.2667 6.66536 10.5334V11.4667ZM17.332 11.3334C17.332 11.6 17.0654 12 16.7987 12H13.9987C13.732 12 13.332 11.7334 13.332 11.4667V10.5334C13.332 10.2667 13.5987 9.86669 13.8654 9.86669L16.532 9.33335C16.932 9.20002 17.1987 9.46669 17.332 9.86669V11.3334Z" fill="#1D1B20" fill-opacity="0.8"/>
</svg>
