<svg width="20" height="20" viewBox="0 0 20 20" fill="none" xmlns="http://www.w3.org/2000/svg">
<path d="M18.454 9.13602L16.8007 7.60002L15.334 4.66669C15.208 4.46187 15.0315 4.29295 14.8213 4.17618C14.6111 4.05941 14.3744 3.99875 14.134 4.00002H5.86732C5.62689 3.99875 5.39018 4.05941 5.18 4.17618C4.96982 4.29295 4.79326 4.46187 4.66732 4.66669L3.20065 7.60002L1.54732 9.13602C1.47996 9.19849 1.42625 9.2742 1.38954 9.3584C1.35282 9.44261 1.33391 9.53349 1.33398 9.62535V15.3334C1.33398 15.5102 1.40422 15.6797 1.52925 15.8048C1.65427 15.9298 1.82384 16 2.00065 16H4.66732C4.93398 16 5.33398 15.7334 5.33398 15.4667V14.6667H14.6673V15.3334C14.6673 15.6 14.934 16 15.2007 16H18.0007C18.1775 16 18.347 15.9298 18.4721 15.8048C18.5971 15.6797 18.6673 15.5102 18.6673 15.3334V9.62535C18.6674 9.53349 18.6485 9.44261 18.6118 9.3584C18.5751 9.2742 18.5213 9.19849 18.454 9.13602ZM6.00065 5.33335H14.0007L15.334 8.00002H4.66732L6.00065 5.33335ZM6.66732 11.4667C6.66732 11.7334 6.26732 12 6.00065 12H3.20065C2.93398 12 2.66732 11.6 2.66732 11.3334V9.86669C2.80065 9.46669 3.06732 9.20002 3.46732 9.33335L6.13398 9.86669C6.40065 9.86669 6.66732 10.2667 6.66732 10.5334V11.4667ZM17.334 11.3334C17.334 11.6 17.0673 12 16.8007 12H14.0007C13.734 12 13.334 11.7334 13.334 11.4667V10.5334C13.334 10.2667 13.6007 9.86669 13.8673 9.86669L16.534 9.33335C16.934 9.20002 17.2007 9.46669 17.334 9.86669V11.3334Z" fill="#244C66"/>
</svg>
