<svg width="49" height="56" viewBox="0 0 49 56" fill="none" xmlns="http://www.w3.org/2000/svg">
<path opacity="0.5" d="M3.83214 3.83274L3.83274 3.83214C5.17725 2.48649 6.96887 1.75749 9.76263 1.38174C12.5851 1.00213 16.2771 1 21.3333 1H26.6667C31.7229 1 35.4149 1.00213 38.2374 1.38174C41.0311 1.75749 42.8228 2.48649 44.1673 3.83214L44.1679 3.83274C45.5135 5.17725 46.2425 6.96887 46.6183 9.76263C46.9979 12.5851 47 16.2771 47 21.3333V32C47 37.0563 46.9979 40.7482 46.6183 43.5707C46.2425 46.3645 45.5135 48.1561 44.1679 49.5006L44.1673 49.5012C42.8228 50.8469 41.0311 51.5758 38.2374 51.9516C35.4149 52.3312 31.7229 52.3333 26.6667 52.3333H21.3333C16.2771 52.3333 12.5851 52.3312 9.76263 51.9516C6.96887 51.5758 5.17725 50.8469 3.83274 49.5012L3.83214 49.5006C2.48649 48.1561 1.75749 46.3645 1.38174 43.5707C1.00213 40.7482 1 37.0563 1 32V21.3333C1 16.2771 1.00213 12.5851 1.38174 9.76263C1.75749 6.96887 2.48649 5.17725 3.83214 3.83274Z" fill="#EEFFFB" stroke="#1F9F80" stroke-width="2"/>
<path fill-rule="evenodd" clip-rule="evenodd" d="M8 13.6665C8 13.1361 8.21071 12.6274 8.58579 12.2523C8.96086 11.8772 9.46957 11.6665 10 11.6665H31.3333C31.8638 11.6665 32.3725 11.8772 32.7475 12.2523C33.1226 12.6274 33.3333 13.1361 33.3333 13.6665C33.3333 14.1969 33.1226 14.7056 32.7475 15.0807C32.3725 15.4558 31.8638 15.6665 31.3333 15.6665H10C9.46957 15.6665 8.96086 15.4558 8.58579 15.0807C8.21071 14.7056 8 14.1969 8 13.6665ZM8 24.3332C8 23.8027 8.21071 23.294 8.58579 22.919C8.96086 22.5439 9.46957 22.3332 10 22.3332H23.3333C23.8638 22.3332 24.3725 22.5439 24.7475 22.919C25.1226 23.294 25.3333 23.8027 25.3333 24.3332C25.3333 24.8636 25.1226 25.3723 24.7475 25.7474C24.3725 26.1225 23.8638 26.3332 23.3333 26.3332H10C9.46957 26.3332 8.96086 26.1225 8.58579 25.7474C8.21071 25.3723 8 24.8636 8 24.3332Z" fill="#1F9F80"/>
<path fill-rule="evenodd" clip-rule="evenodd" d="M49 47.6665C49 52.0848 45.4183 55.6665 41 55.6665C36.5817 55.6665 33 52.0848 33 47.6665C33 43.2482 36.5817 39.6665 41 39.6665C45.4183 39.6665 49 43.2482 49 47.6665ZM44.2243 45.2422C44.4586 45.4766 44.4586 45.8565 44.2243 46.0908L40.2243 50.0908C39.9899 50.3251 39.6101 50.3251 39.3757 50.0908L37.7757 48.4908C37.5414 48.2565 37.5414 47.8766 37.7757 47.6422C38.0101 47.4079 38.3899 47.4079 38.6243 47.6422L39.8 48.818L41.5879 47.0301L43.3757 45.2422C43.6101 45.0079 43.9899 45.0079 44.2243 45.2422Z" fill="url(#paint0_linear_13608_33250)"/>
<defs>
<linearGradient id="paint0_linear_13608_33250" x1="41" y1="39.6665" x2="41" y2="55.6665" gradientUnits="userSpaceOnUse">
<stop stop-color="#0D9563"/>
<stop offset="1" stop-color="#00A9AB"/>
</linearGradient>
</defs>
</svg>
