<svg width="20" height="20" viewBox="0 0 20 20" fill="none" xmlns="http://www.w3.org/2000/svg">
<path d="M14.417 4.16667C15.8337 5.41667 16.667 7.16667 16.667 9.16667C16.667 12.8333 13.667 15.8333 10.0003 15.8333C6.33366 15.8333 3.33366 12.8333 3.33366 9.16667C3.33366 7.16667 4.25033 5.41667 5.58366 4.16667H14.417ZM15.0003 2.5H5.00033L4.50033 2.91667C2.66699 4.5 1.66699 6.75 1.66699 9.16667C1.66699 13.75 5.41699 17.5 10.0003 17.5C14.5837 17.5 18.3337 13.75 18.3337 9.16667C18.3337 6.75 17.3337 4.5 15.5003 2.91667L15.0003 2.5ZM10.8337 6.25C10.8337 6.91667 11.417 7.5 12.0837 7.5C12.7503 7.5 13.3337 6.91667 13.3337 6.25C13.3337 5.58333 12.7503 5 12.0837 5C11.417 5 10.8337 5.58333 10.8337 6.25ZM6.66699 6.25C6.66699 6.91667 7.25033 7.5 7.91699 7.5C8.58366 7.5 9.16699 6.91667 9.16699 6.25C9.16699 5.58333 8.58366 5 7.91699 5C7.25033 5 6.66699 5.58333 6.66699 6.25ZM5.83366 10.8333C6.75033 10.8333 7.50033 10.0833 7.50033 9.16667C7.50033 8.25 6.75033 7.5 5.83366 7.5C4.91699 7.5 4.16699 8.25 4.16699 9.16667C4.16699 10.0833 4.91699 10.8333 5.83366 10.8333ZM9.58366 12.5C9.58366 11.5833 8.83366 10.8333 7.91699 10.8333C7.00033 10.8333 6.25033 11.5833 6.25033 12.5C6.25033 13.4167 7.00033 14.1667 7.91699 14.1667C8.83366 14.1667 9.58366 13.4167 9.58366 12.5ZM10.0003 10.8333C10.917 10.8333 11.667 10.0833 11.667 9.16667C11.667 8.25 10.917 7.5 10.0003 7.5C9.08366 7.5 8.33366 8.25 8.33366 9.16667C8.33366 10.0833 9.08366 10.8333 10.0003 10.8333ZM13.7503 12.5C13.7503 11.5833 13.0003 10.8333 12.0837 10.8333C11.167 10.8333 10.417 11.5833 10.417 12.5C10.417 13.4167 11.167 14.1667 12.0837 14.1667C13.0003 14.1667 13.7503 13.4167 13.7503 12.5ZM15.8337 9.16667C15.8337 8.25 15.0837 7.5 14.167 7.5C13.2503 7.5 12.5003 8.25 12.5003 9.16667C12.5003 10.0833 13.2503 10.8333 14.167 10.8333C15.0837 10.8333 15.8337 10.0833 15.8337 9.16667Z" fill="#1D1B20"/>
</svg>
