<svg width="32" height="32" viewBox="0 0 32 32" fill="none" xmlns="http://www.w3.org/2000/svg">
<circle cx="16" cy="16" r="16" fill="#00A9AB"/>
<path d="M16 8C14.4178 8 12.871 8.46919 11.5554 9.34824C10.2398 10.2273 9.21447 11.4767 8.60897 12.9385C8.00347 14.4003 7.84504 16.0089 8.15372 17.5607C8.4624 19.1126 9.22433 20.538 10.3431 21.6569C11.462 22.7757 12.8874 23.5376 14.4393 23.8463C15.9911 24.155 17.5997 23.9965 19.0615 23.391C20.5233 22.7855 21.7727 21.7602 22.6518 20.4446C23.5308 19.129 24 17.5822 24 16C23.9979 13.8789 23.1544 11.8453 21.6546 10.3454C20.1547 8.84558 18.1211 8.00207 16 8ZM16.5854 20.4878V21.1044C16.5854 21.2596 16.5237 21.4085 16.4139 21.5183C16.3041 21.6281 16.1553 21.6898 16 21.6898C15.8448 21.6898 15.6959 21.6281 15.5861 21.5183C15.4763 21.4085 15.4146 21.2596 15.4146 21.1044V20.4878C14.906 20.4118 14.4296 20.1925 14.041 19.8556C13.7639 19.6228 13.5358 19.3374 13.3697 19.0159C13.2035 18.6943 13.1028 18.3431 13.0732 17.9824C13.0633 17.8671 13.0878 17.7515 13.1437 17.6501C13.1995 17.5487 13.2841 17.4661 13.3869 17.4129C13.4896 17.3596 13.6058 17.3379 13.7209 17.3507C13.8359 17.3634 13.9446 17.41 14.0332 17.4845C14.1527 17.5839 14.2283 17.7263 14.2439 17.881C14.2588 18.0897 14.3156 18.2933 14.4108 18.4797C14.506 18.6661 14.6377 18.8314 14.7981 18.9659C15.1202 19.2423 15.5373 19.3823 15.961 19.3561C17.1785 19.3561 17.7561 18.8878 17.7561 17.9356C17.7561 17.3034 17.202 16.6244 16 16.6244C13.4556 16.6244 13.0732 15.0634 13.0732 14.1659C13.094 13.6061 13.2863 13.0663 13.6242 12.6196C13.962 12.1728 14.429 11.8407 14.962 11.6683C15.1102 11.6222 15.2609 11.5887 15.4146 11.5668V10.958C15.4146 10.8028 15.4763 10.6539 15.5861 10.5441C15.6959 10.4344 15.8448 10.3727 16 10.3727C16.1553 10.3727 16.3041 10.4344 16.4139 10.5441C16.5237 10.6539 16.5854 10.8028 16.5854 10.958V11.5902C17.1981 11.6924 17.7599 11.9943 18.1833 12.4488C18.6068 12.9033 18.8682 13.485 18.9268 14.1034C18.9332 14.2527 18.8823 14.3988 18.7845 14.5118C18.6867 14.6247 18.5493 14.696 18.4006 14.711C18.252 14.7259 18.1032 14.6835 17.9848 14.5923C17.8664 14.5011 17.7874 14.3681 17.7639 14.2205C17.7205 13.7969 17.517 13.4059 17.1949 13.1274C16.8729 12.8488 16.4566 12.7038 16.0312 12.722H15.8907C15.7006 12.7204 15.5113 12.7467 15.3288 12.8C15.1291 12.8651 14.9446 12.9699 14.7863 13.108C14.6281 13.2462 14.4993 13.4148 14.4078 13.6039C14.3133 13.7907 14.26 13.9957 14.2517 14.2049C14.2517 14.8449 14.4624 15.4693 16.0078 15.4693C17.9278 15.4693 18.9346 16.718 18.9346 17.9512C18.945 18.2726 18.8915 18.5928 18.7771 18.8933C18.6627 19.1938 18.4897 19.4686 18.2683 19.7017C18.0468 19.9347 17.7812 20.1215 17.4869 20.2511C17.1927 20.3807 16.8756 20.4505 16.5541 20.4566L16.5854 20.4878Z" fill="#E7F0ED"/>
</svg>
