<svg width="19" height="19" viewBox="0 0 19 19" fill="none" xmlns="http://www.w3.org/2000/svg">
<path d="M18.3103 4.87866L14.1216 0.688973C13.9823 0.549649 13.8169 0.439129 13.6349 0.363725C13.4529 0.288322 13.2578 0.249512 13.0608 0.249512C12.8638 0.249512 12.6687 0.288322 12.4867 0.363725C12.3047 0.439129 12.1393 0.549649 12 0.688973L0.439695 12.2502C0.299801 12.389 0.188889 12.5542 0.113407 12.7362C0.0379245 12.9183 -0.000621974 13.1135 7.58902e-06 13.3105V17.5002C7.58902e-06 17.898 0.158043 18.2796 0.439347 18.5609C0.720652 18.8422 1.10218 19.0002 1.50001 19.0002H5.6897C5.88675 19.0009 6.08197 18.9623 6.26399 18.8868C6.44602 18.8113 6.61122 18.7004 6.75001 18.5605L18.3103 7.00022C18.4496 6.86093 18.5602 6.69556 18.6356 6.51355C18.711 6.33153 18.7498 6.13645 18.7498 5.93944C18.7498 5.74243 18.711 5.54735 18.6356 5.36534C18.5602 5.18333 18.4496 5.01795 18.3103 4.87866ZM15 8.18897L10.8103 4.00022L13.0603 1.75022L17.25 5.93897L15 8.18897Z" fill="#0D9463"/>
</svg>
