<svg width="128" height="128" viewBox="0 0 128 128" fill="none" xmlns="http://www.w3.org/2000/svg">
<path d="M112 64C112 57.6965 110.758 51.4548 108.346 45.6312C105.934 39.8076 102.398 34.5161 97.9411 30.0589C93.4839 25.6017 88.1924 22.066 82.3688 19.6538C76.5452 17.2416 70.3035 16 64 16C57.6965 16 51.4548 17.2416 45.6312 19.6538C39.8076 22.066 34.5161 25.6017 30.0589 30.0589C25.6017 34.5161 22.066 39.8076 19.6538 45.6312C17.2416 51.4548 16 57.6965 16 64C16 76.7304 21.0571 88.9394 30.0589 97.9411C39.0606 106.943 51.2696 112 64 112C76.7304 112 88.9394 106.943 97.9411 97.9411C106.943 88.9394 112 76.7304 112 64ZM24 64C24 53.3913 28.2143 43.2172 35.7157 35.7157C43.2172 28.2143 53.3913 24 64 24C74.6087 24 84.7828 28.2143 92.2843 35.7157C99.7857 43.2172 104 53.3913 104 64C104 74.6087 99.7857 84.7828 92.2843 92.2843C84.7828 99.7857 74.6087 104 64 104C53.3913 104 43.2172 99.7857 35.7157 92.2843C28.2143 84.7828 24 74.6087 24 64ZM56 54C56 54.7879 55.8448 55.5681 55.5433 56.2961C55.2417 57.0241 54.7998 57.6855 54.2426 58.2426C53.6855 58.7998 53.0241 59.2417 52.2961 59.5433C51.5681 59.8448 50.7879 60 50 60C49.2121 60 48.4319 59.8448 47.7039 59.5433C46.9759 59.2417 46.3145 58.7998 45.7574 58.2426C45.2002 57.6855 44.7583 57.0241 44.4567 56.2961C44.1552 55.5681 44 54.7879 44 54C44 52.4087 44.6321 50.8826 45.7574 49.7574C46.8826 48.6321 48.4087 48 50 48C51.5913 48 53.1174 48.6321 54.2426 49.7574C55.3679 50.8826 56 52.4087 56 54ZM84 54C84 55.5913 83.3679 57.1174 82.2426 58.2426C81.1174 59.3679 79.5913 60 78 60C76.4087 60 74.8826 59.3679 73.7574 58.2426C72.6321 57.1174 72 55.5913 72 54C72 52.4087 72.6321 50.8826 73.7574 49.7574C74.8826 48.6321 76.4087 48 78 48C79.5913 48 81.1174 48.6321 82.2426 49.7574C83.3679 50.8826 84 52.4087 84 54ZM49.056 86.576C56.456 77.808 71.536 77.808 78.944 86.576C79.2746 87.0013 79.6876 87.3554 80.1584 87.6171C80.6291 87.8788 81.1479 88.0428 81.6835 88.0992C82.2192 88.1555 82.7607 88.1031 83.2757 87.9451C83.7906 87.787 84.2683 87.5266 84.6801 87.1795C85.0919 86.8324 85.4294 86.4056 85.6723 85.9249C85.9152 85.4441 86.0585 84.9193 86.0936 84.3818C86.1287 83.8443 86.0549 83.3053 85.8766 82.797C85.6983 82.2888 85.4192 81.8218 85.056 81.424C74.456 68.864 53.536 68.864 42.944 81.424C42.5808 81.8218 42.3017 82.2888 42.1234 82.797C41.9451 83.3053 41.8713 83.8443 41.9064 84.3818C41.9415 84.9193 42.0848 85.4441 42.3277 85.9249C42.5706 86.4056 42.9081 86.8324 43.3199 87.1795C43.7317 87.5266 44.2094 87.787 44.7243 87.9451C45.2393 88.1031 45.7808 88.1555 46.3165 88.0992C46.8521 88.0428 47.3709 87.8788 47.8416 87.6171C48.3124 87.3554 48.7254 87.0013 49.056 86.576Z" fill="#D9D9D9"/>
</svg>
