<svg width="32" height="32" viewBox="0 0 32 32" fill="none" xmlns="http://www.w3.org/2000/svg">
<path d="M26.154 8.64L26.1727 8.61733L20.8393 4.29733L19.1593 6.36933L21.9153 8.60133C21.2317 9.01679 20.6888 9.62833 20.3573 10.3564C20.0258 11.0846 19.9211 11.8956 20.0567 12.684C20.2567 13.8827 21.082 14.9187 22.15 15.4987C23.3434 16.148 24.39 16.088 25.3207 15.7573L25.3007 24C25.3023 24.2208 25.2488 24.4385 25.1451 24.6334C25.0414 24.8283 24.8908 24.9943 24.7068 25.1163C24.5228 25.2384 24.3113 25.3126 24.0914 25.3324C23.8715 25.3521 23.6501 25.3167 23.4473 25.2293C23.2885 25.1614 23.1445 25.0631 23.0233 24.94C22.9001 24.8165 22.8024 24.6699 22.7358 24.5086C22.6692 24.3473 22.6351 24.1745 22.6353 24L22.666 21.3333C22.6674 20.8085 22.5647 20.2886 22.364 19.8037C22.1633 19.3187 21.8685 18.8784 21.4967 18.508C21.1252 18.1357 20.684 17.8404 20.1983 17.6388C19.7126 17.4373 19.1919 17.3334 18.666 17.3333H17.3327V6.66667C17.3327 5.95942 17.0517 5.28115 16.5516 4.78105C16.0515 4.28095 15.3733 4 14.666 4H5.33268C4.62544 4 3.94716 4.28095 3.44706 4.78105C2.94697 5.28115 2.66602 5.95942 2.66602 6.66667V25.3333C2.66602 26.0406 2.94697 26.7189 3.44706 27.219C3.94716 27.719 4.62544 28 5.33268 28H14.666C15.3733 28 16.0515 27.719 16.5516 27.219C17.0517 26.7189 17.3327 26.0406 17.3327 25.3333V20H18.666C18.8473 20 19.022 20.036 19.1873 20.104C19.5047 20.2429 19.7576 20.4968 19.8953 20.8147C19.9645 20.9788 19.9999 21.1552 19.9993 21.3333L19.9674 24C19.9674 24.5413 20.0727 25.0653 20.282 25.5573C20.4833 26.036 20.7727 26.464 21.1367 26.8253C21.5068 27.1994 21.9477 27.4959 22.4338 27.6976C22.9198 27.8993 23.4411 28.0021 23.9674 28C24.5087 28 25.0313 27.896 25.5247 27.6853C26.002 27.4853 26.4313 27.196 26.7927 26.8307C27.166 26.46 27.462 26.0189 27.6636 25.533C27.8652 25.0471 27.9685 24.5261 27.9674 24L27.9993 12C27.998 11.3302 27.8283 10.6714 27.5059 10.0843C27.1834 9.49715 26.7186 9.00051 26.154 8.64ZM7.99935 24L9.33268 17.3333H5.33268L11.9993 8L10.666 14.6667H14.666L7.99935 24ZM23.9993 13.3333C23.6457 13.3333 23.3066 13.1929 23.0565 12.9428C22.8065 12.6928 22.666 12.3536 22.666 12C22.666 11.6464 22.8065 11.3072 23.0565 11.0572C23.3066 10.8071 23.6457 10.6667 23.9993 10.6667C24.353 10.6667 24.6921 10.8071 24.9422 11.0572C25.1922 11.3072 25.3327 11.6464 25.3327 12C25.3327 12.3536 25.1922 12.6928 24.9422 12.9428C24.6921 13.1929 24.353 13.3333 23.9993 13.3333Z" fill="white"/>
</svg>
