<svg width="136" height="136" viewBox="0 0 136 136" fill="none" xmlns="http://www.w3.org/2000/svg">
<path d="M40.3748 25.5C34.7648 25.5 29.7668 29.155 28.1561 34.5313L22.3123 54.0558L14.0758 51.2678L11.4238 59.2323L19.7878 62.0245L17.1316 71.0558C17.0297 71.4453 16.9853 71.8477 16.9998 72.25V106.25C16.9998 108.588 18.9123 110.5 21.2498 110.5H33.9998L35.4618 106.25H100.538L102 110.5H114.75C117.087 110.5 119 108.588 119 106.25V102.663C119.017 102.451 119.017 102.217 119 102V72.25C119.014 71.8477 118.97 71.4453 118.868 71.0558L116.212 62.0245L124.576 59.2365L121.92 51.2635L113.687 54.0558L107.844 34.5313C107.047 31.9131 105.429 29.6209 103.228 27.9943C101.028 26.3676 98.3614 25.493 95.6248 25.5H40.3748ZM40.3748 34H95.6248C97.5161 34 99.1948 35.2453 99.7431 37.0558L105.187 55.25H30.8123L36.2566 37.0558C36.8091 35.2283 38.4836 34 40.3748 34ZM28.2878 63.75H107.712L110.5 73.049V97.75H25.4998V73.0448L28.2878 63.75ZM36.1248 68C34.4341 68 32.8126 68.6717 31.617 69.8672C30.4215 71.0628 29.7498 72.6843 29.7498 74.375C29.7498 76.0658 30.4215 77.6873 31.617 78.8829C32.8126 80.0784 34.4341 80.75 36.1248 80.75C37.8156 80.75 39.4371 80.0784 40.6326 78.8829C41.8282 77.6873 42.4998 76.0658 42.4998 74.375C42.4998 72.6843 41.8282 71.0628 40.6326 69.8672C39.4371 68.6717 37.8156 68 36.1248 68ZM99.8748 68C98.1841 68 96.5626 68.6717 95.367 69.8672C94.1715 71.0628 93.4998 72.6843 93.4998 74.375C93.4998 76.0658 94.1715 77.6873 95.367 78.8829C96.5626 80.0784 98.1841 80.75 99.8748 80.75C101.566 80.75 103.187 80.0784 104.383 78.8829C105.578 77.6873 106.25 76.0658 106.25 74.375C106.25 72.6843 105.578 71.0628 104.383 69.8672C103.187 68.6717 101.566 68 99.8748 68Z" fill="#D9DCDD"/>
<path d="M52.927 86.9788C53.6394 87.2168 54.4172 87.1626 55.0896 86.8282C59.0199 84.9495 63.7044 84.2921 68.0033 84.2921C70.1279 84.2924 72.2482 84.4849 74.3381 84.8673L75.5036 85.0997L76.5727 85.3547L77.5368 85.6126L78.3931 85.8732L79.1304 86.1169L79.7514 86.3436L80.4433 86.6185L81.2005 86.9443C81.8549 87.1806 82.5731 87.1703 83.2205 86.9152C83.8678 86.6601 84.3998 86.1778 84.7167 85.5587C85.0412 84.8821 85.0889 84.1057 84.8496 83.3946C84.6102 82.6834 84.1027 82.0935 83.435 81.7504C78.6937 79.4241 73.2379 78.625 68.0033 78.625C62.8707 78.625 57.222 79.4326 52.5602 81.7561C51.8922 82.0974 51.3849 82.6869 51.1474 83.398C50.9098 84.1091 50.961 84.8849 51.2898 85.5587C51.6258 86.2301 52.2146 86.7408 52.927 86.9788Z" fill="#D9DCDD"/>
</svg>
