<svg width="20" height="20" viewBox="0 0 20 20" fill="none" xmlns="http://www.w3.org/2000/svg">
<path d="M18.0407 11.4286H18.0443H18.0371H18.0407ZM17.5371 11.0571C17.6086 11.2843 17.8143 11.4271 18.0407 11.4286C18.0907 11.4286 18.1457 11.4143 18.2014 11.4C18.48 11.3143 18.6371 11.0071 18.5443 10.7286C18.5228 10.6643 16.38 4.28571 9.99998 4.28571C3.61998 4.28571 1.47641 10.6643 1.45498 10.7286C1.36212 11.0071 1.51926 11.3071 1.79784 11.4C2.08355 11.4928 2.38355 11.3357 2.47641 11.0571L2.47855 11.0536C2.57355 10.775 4.43355 5.35713 10.0071 5.35713C15.6086 5.35713 17.4586 10.8214 17.5371 11.0571ZM6.42855 11.4286C6.42855 10.4814 6.80482 9.57295 7.4746 8.90318C8.14437 8.23341 9.05278 7.85713 9.99998 7.85713C10.9472 7.85713 11.8556 8.23341 12.5254 8.90318C13.1951 9.57295 13.5714 10.4814 13.5714 11.4286C13.5714 12.3758 13.1951 13.2842 12.5254 13.9539C11.8556 14.6237 10.9472 15 9.99998 15C9.05278 15 8.14437 14.6237 7.4746 13.9539C6.80482 13.2842 6.42855 12.3758 6.42855 11.4286Z" fill="#1D1B20" fill-opacity="0.4"/>
</svg>
