<svg width="28" height="28" viewBox="0 0 28 28" fill="none" xmlns="http://www.w3.org/2000/svg">
<g clip-path="url(#clip0_2_15717)">
<path d="M9.75405 0.920933C6.95642 1.89146 4.54374 3.73355 2.87041 6.17663C1.19707 8.6197 0.351282 11.535 0.457268 14.4943C0.563254 17.4536 1.61543 20.3009 3.45925 22.618C5.30307 24.9351 7.84134 26.5999 10.7012 27.3678C13.0198 27.9661 15.449 27.9924 17.78 27.4444C19.8916 26.9701 21.8439 25.9555 23.4456 24.5C25.1127 22.9389 26.3227 20.9529 26.9456 18.7556C27.6225 16.3661 27.7429 13.8533 27.2978 11.41H14.2778V16.8109H21.8181C21.6674 17.6723 21.3445 18.4945 20.8686 19.2282C20.3928 19.9619 19.7738 20.592 19.0487 21.0809C18.1281 21.6902 17.0901 22.1001 16.0016 22.2841C14.9099 22.4871 13.7901 22.4871 12.6984 22.2841C11.5919 22.0555 10.5451 21.5988 9.62499 20.9431C8.14656 19.8966 7.03647 18.4098 6.45311 16.695C5.86006 14.948 5.86006 13.0542 6.45311 11.3072C6.86836 10.0827 7.55481 8.96773 8.46124 8.04562C9.49853 6.97101 10.8118 6.20286 12.2569 5.82548C13.702 5.44809 15.2231 5.47603 16.6534 5.90625C17.7708 6.24908 18.7926 6.84835 19.6372 7.65625C20.4874 6.81041 21.3361 5.96239 22.1834 5.11218C22.6209 4.655 23.0978 4.21968 23.5287 3.75156C22.2393 2.55175 20.7258 1.6181 19.075 1.00406C16.0687 -0.0875264 12.7793 -0.116862 9.75405 0.920933Z" fill="white"/>
<path d="M9.75407 0.920928C12.7791 -0.117572 16.0685 -0.0890089 19.075 1.00187C20.7261 1.62008 22.2389 2.55823 23.5266 3.76249C23.0891 4.23062 22.6275 4.66812 22.1813 5.12312C21.3325 5.97041 20.4845 6.81478 19.6372 7.65624C18.7926 6.84835 17.7708 6.24907 16.6534 5.90624C15.2236 5.47452 13.7025 5.44496 12.2571 5.8208C10.8116 6.19665 9.4975 6.96338 8.45907 8.03687C7.55264 8.95897 6.86619 10.0739 6.45095 11.2984L1.91626 7.78749C3.5394 4.56872 6.34977 2.10661 9.75407 0.920928Z" fill="#E33629"/>
<path d="M0.71265 11.2657C0.956205 10.0577 1.36086 8.8879 1.91578 7.7876L6.45046 11.3073C5.85741 13.0543 5.85741 14.9481 6.45046 16.6951C4.93963 17.8618 3.42807 19.0343 1.91578 20.2126C0.527042 17.4483 0.103503 14.2987 0.71265 11.2657Z" fill="#F8BD00"/>
<path d="M14.2773 11.4077H27.2973C27.7425 13.851 27.622 16.3638 26.9452 18.7533C26.3222 20.9506 25.1122 22.9366 23.4452 24.4977C21.9817 23.3558 20.5117 22.2227 19.0483 21.0808C19.7738 20.5915 20.3931 19.9606 20.869 19.2261C21.3448 18.4917 21.6675 17.6687 21.8177 16.8065H14.2773C14.2752 15.0083 14.2773 13.208 14.2773 11.4077Z" fill="#587DBD"/>
<path d="M1.91406 20.2125C3.42635 19.0458 4.93792 17.8733 6.44875 16.695C7.03327 18.4104 8.14495 19.8973 9.625 20.9431C10.548 21.5958 11.597 22.0488 12.705 22.2731C13.7967 22.4762 14.9164 22.4762 16.0081 22.2731C17.0967 22.0891 18.1347 21.6793 19.0553 21.07C20.5188 22.2119 21.9888 23.345 23.4522 24.4869C21.8507 25.9432 19.8984 26.9585 17.7866 27.4334C15.4556 27.9814 13.0264 27.9552 10.7078 27.3569C8.87404 26.8673 7.16117 26.0041 5.67656 24.8216C4.10534 23.5739 2.82195 22.0017 1.91406 20.2125Z" fill="#319F43"/>
</g>
<defs>
<clipPath id="clip0_2_15717">
<rect width="28" height="28" fill="white"/>
</clipPath>
</defs>
</svg>
