<svg width="16" height="16" viewBox="0 0 16 16" fill="none" xmlns="http://www.w3.org/2000/svg">
<path d="M7.9987 7.66683C7.55667 7.66683 7.13275 7.49123 6.82019 7.17867C6.50763 6.86611 6.33203 6.44219 6.33203 6.00016C6.33203 5.55814 6.50763 5.13421 6.82019 4.82165C7.13275 4.50909 7.55667 4.3335 7.9987 4.3335C8.44073 4.3335 8.86465 4.50909 9.17721 4.82165C9.48977 5.13421 9.66536 5.55814 9.66536 6.00016C9.66536 6.21903 9.62225 6.43576 9.5385 6.63797C9.45474 6.84018 9.33197 7.02391 9.17721 7.17867C9.02244 7.33344 8.83871 7.4562 8.6365 7.53996C8.43429 7.62372 8.21757 7.66683 7.9987 7.66683ZM7.9987 1.3335C6.76102 1.3335 5.57404 1.82516 4.69887 2.70033C3.8237 3.5755 3.33203 4.76249 3.33203 6.00016C3.33203 9.50016 7.9987 14.6668 7.9987 14.6668C7.9987 14.6668 12.6654 9.50016 12.6654 6.00016C12.6654 4.76249 12.1737 3.5755 11.2985 2.70033C10.4234 1.82516 9.23637 1.3335 7.9987 1.3335Z" fill="#0D9463"/>
</svg>
