<svg width="12" height="12" viewBox="0 0 12 12" fill="none" xmlns="http://www.w3.org/2000/svg">
<g clip-path="url(#clip0_368_4724)">
<path fill-rule="evenodd" clip-rule="evenodd" d="M3 4C3 3.20435 3.31607 2.44129 3.87868 1.87868C4.44129 1.31607 5.20435 1 6 1C6.79565 1 7.55871 1.31607 8.12132 1.87868C8.68393 2.44129 9 3.20435 9 4H9.5C9.76522 4 10.0196 4.10536 10.2071 4.29289C10.3946 4.48043 10.5 4.73478 10.5 5V10C10.5 10.2652 10.3946 10.5196 10.2071 10.7071C10.0196 10.8946 9.76522 11 9.5 11H2.5C2.23478 11 1.98043 10.8946 1.79289 10.7071C1.60536 10.5196 1.5 10.2652 1.5 10V5C1.5 4.73478 1.60536 4.48043 1.79289 4.29289C1.98043 4.10536 2.23478 4 2.5 4H3ZM6 2C6.53043 2 7.03914 2.21071 7.41421 2.58579C7.78929 2.96086 8 3.46957 8 4H4C4 3.46957 4.21071 2.96086 4.58579 2.58579C4.96086 2.21071 5.46957 2 6 2ZM7 7C7 7.17553 6.95379 7.34797 6.86602 7.49999C6.77825 7.652 6.65202 7.77823 6.5 7.866V8.5C6.5 8.63261 6.44732 8.75979 6.35355 8.85355C6.25979 8.94732 6.13261 9 6 9C5.86739 9 5.74021 8.94732 5.64645 8.85355C5.55268 8.75979 5.5 8.63261 5.5 8.5V7.866C5.30937 7.75593 5.16039 7.58603 5.07615 7.38266C4.99192 7.17929 4.97715 6.9538 5.03412 6.74118C5.09109 6.52855 5.21663 6.34067 5.39127 6.20666C5.5659 6.07265 5.77987 6.00001 6 6C6.26522 6 6.51957 6.10536 6.70711 6.29289C6.89464 6.48043 7 6.73478 7 7Z" fill="#1E1E1E"/>
</g>
<defs>
<clipPath id="clip0_368_4724">
<rect width="12" height="12" fill="white"/>
</clipPath>
</defs>
</svg>
