<svg width="16" height="16" viewBox="0 0 16 16" fill="none" xmlns="http://www.w3.org/2000/svg">
<path d="M2.66634 13.3332C2.29967 13.3332 1.9859 13.2027 1.72501 12.9418C1.46412 12.6809 1.33345 12.3669 1.33301 11.9998V3.99984C1.33301 3.63317 1.46367 3.31939 1.72501 3.0585C1.98634 2.79761 2.30012 2.66695 2.66634 2.6665H13.333C13.6997 2.6665 14.0137 2.79717 14.275 3.0585C14.5363 3.31984 14.6668 3.63362 14.6663 3.99984V11.9998C14.6663 12.3665 14.5359 12.6805 14.275 12.9418C14.0141 13.2032 13.7001 13.3336 13.333 13.3332H2.66634ZM7.99967 8.6665L13.333 5.33317V3.99984L7.99967 7.33317L2.66634 3.99984V5.33317L7.99967 8.6665Z" fill="#244C66"/>
</svg>
