<svg width="32" height="32" viewBox="0 0 32 32" fill="none" xmlns="http://www.w3.org/2000/svg">
<circle cx="16" cy="16" r="16" fill="#00A9AB"/>
<g clip-path="url(#clip0_7958_38031)">
<path d="M15.9994 8.7334C11.9859 8.7334 8.73242 11.9869 8.73242 16.0004C8.73242 20.0139 11.9859 23.2674 15.9994 23.2674C20.0129 23.2674 23.2664 20.0139 23.2664 16.0004C23.2664 11.9869 20.0129 8.7334 15.9994 8.7334ZM20.1924 15.4844C19.8482 15.8803 19.3954 16.1664 18.8902 16.3074C18.3849 16.4483 17.8493 16.4379 17.3499 16.2774L13.7564 20.4104C13.5716 20.6188 13.312 20.7458 13.034 20.7637C12.7561 20.7816 12.4823 20.6891 12.2722 20.5062C12.0622 20.3233 11.9328 20.0648 11.9123 19.787C11.8919 19.5092 11.9819 19.2346 12.1629 19.0229L15.7619 14.8859C15.542 14.4275 15.4573 13.9158 15.5179 13.4109C15.5784 12.9061 15.7816 12.429 16.1037 12.0355C16.4258 11.642 16.8534 11.3486 17.3363 11.1895C17.8193 11.0304 18.3376 11.0124 18.8304 11.1374L17.4529 12.7434L17.9029 14.0534L19.2644 14.3184L20.6444 12.7084C20.8351 13.1673 20.894 13.6703 20.8143 14.1609C20.7346 14.6514 20.5196 15.11 20.1934 15.4849L20.1924 15.4844Z" fill="#E7F0ED"/>
</g>
<defs>
<clipPath id="clip0_7958_38031">
<rect width="16" height="16" fill="white" transform="translate(8 8)"/>
</clipPath>
</defs>
</svg>
