<svg width="36" height="16" viewBox="0 0 36 16" fill="none" xmlns="http://www.w3.org/2000/svg">
<g clip-path="url(#clip0_11144_14138)">
<rect width="36" height="16" rx="8" fill="#E7F0ED"/>
<path d="M22.7998 8.30005C22.7998 7.90222 22.9578 7.52069 23.2391 7.23939C23.5204 6.95808 23.902 6.80005 24.2998 6.80005C24.6976 6.80005 25.0792 6.95808 25.3605 7.23939C25.6418 7.52069 25.7998 7.90222 25.7998 8.30005C25.7998 8.69787 25.6418 9.0794 25.3605 9.36071C25.0792 9.64201 24.6976 9.80005 24.2998 9.80005C23.902 9.80005 23.5204 9.64201 23.2391 9.36071C22.9578 9.0794 22.7998 8.69787 22.7998 8.30005ZM16.7998 8.30005C16.7998 7.90222 16.9578 7.52069 17.2391 7.23939C17.5204 6.95808 17.902 6.80005 18.2998 6.80005C18.6976 6.80005 19.0792 6.95808 19.3605 7.23939C19.6418 7.52069 19.7998 7.90222 19.7998 8.30005C19.7998 8.69787 19.6418 9.0794 19.3605 9.36071C19.0792 9.64201 18.6976 9.80005 18.2998 9.80005C17.902 9.80005 17.5204 9.64201 17.2391 9.36071C16.9578 9.0794 16.7998 8.69787 16.7998 8.30005ZM10.7998 8.30005C10.7998 7.90222 10.9578 7.52069 11.2391 7.23939C11.5204 6.95808 11.902 6.80005 12.2998 6.80005C12.6976 6.80005 13.0792 6.95808 13.3605 7.23939C13.6418 7.52069 13.7998 7.90222 13.7998 8.30005C13.7998 8.69787 13.6418 9.0794 13.3605 9.36071C13.0792 9.64201 12.6976 9.80005 12.2998 9.80005C11.902 9.80005 11.5204 9.64201 11.2391 9.36071C10.9578 9.0794 10.7998 8.69787 10.7998 8.30005Z" fill="#0C9566"/>
</g>
<defs>
<clipPath id="clip0_11144_14138">
<rect width="36" height="16" rx="8" fill="white"/>
</clipPath>
</defs>
</svg>
