<svg width="16" height="16" viewBox="0 0 16 16" fill="none" xmlns="http://www.w3.org/2000/svg">
<path d="M13.355 7.04311L8.45749 2.14511C8.26947 1.95819 8.01512 1.85327 7.74999 1.85327C7.48487 1.85327 7.23051 1.95819 7.04249 2.14511L2.14499 7.04311C1.95807 7.23114 1.85315 7.48549 1.85315 7.75061C1.85315 8.01574 1.95807 8.27009 2.14499 8.45811L7.04299 13.3556C7.43199 13.7446 8.06799 13.7446 8.45799 13.3556L13.356 8.45761C13.5424 8.26951 13.6469 8.01542 13.6469 7.75061C13.6469 7.48581 13.5424 7.23172 13.356 7.04361L13.355 7.04311ZM7.35149 4.49011C7.46149 4.37161 7.60149 4.31211 7.77349 4.31211C7.94549 4.31211 8.08549 4.37111 8.19549 4.48861C8.30549 4.60611 8.36049 4.75361 8.36049 4.93111C8.36049 5.08411 8.31049 5.59761 8.20899 6.47211C8.10899 7.34711 8.01899 8.19211 7.94399 9.00811H7.58549C7.51799 8.19161 7.43549 7.34661 7.33549 6.47211C7.23649 5.59711 7.18649 5.08411 7.18649 4.93111C7.18649 4.75611 7.24149 4.61011 7.35149 4.49111V4.49011ZM8.21649 10.9001C8.09249 11.0201 7.94499 11.0801 7.77349 11.0801C7.60199 11.0801 7.45449 11.0201 7.33099 10.9001C7.20749 10.7791 7.14599 10.6331 7.14599 10.4616C7.14599 10.2901 7.20749 10.1426 7.33099 10.0191C7.45499 9.89511 7.60249 9.83311 7.77399 9.83311C7.94549 9.83311 8.09299 9.89511 8.21649 10.0191C8.34149 10.1426 8.40299 10.2901 8.40299 10.4616C8.40299 10.6331 8.34099 10.7791 8.21699 10.8996L8.21649 10.9001Z" fill="#FF5454"/>
</svg>
