<svg width="20" height="20" viewBox="0 0 20 20" fill="none" xmlns="http://www.w3.org/2000/svg">
<path d="M3.27385 4.10754L4.45218 5.28588C3.83221 5.90427 3.34056 6.6391 3.00548 7.44811C2.67041 8.25713 2.49851 9.12438 2.49968 10C2.49968 11.8417 3.24552 13.5084 4.45218 14.7142L3.27468 15.8917C2.49976 15.119 1.88514 14.2008 1.46612 13.1899C1.0471 12.179 0.831949 11.0952 0.833016 10.0009C0.83151 8.90619 1.04637 7.82199 1.46526 6.81061C1.88414 5.79923 2.49878 4.8806 3.27385 4.10754ZM16.7255 4.10754C17.5005 4.88048 18.1151 5.79896 18.534 6.8102C18.9529 7.82143 19.1678 8.90549 19.1663 10C19.1678 11.0946 18.9529 12.1787 18.534 13.1899C18.1151 14.2011 17.5005 15.1196 16.7255 15.8925L15.5472 14.7142C16.1672 14.0958 16.6588 13.361 16.9939 12.552C17.329 11.743 17.5009 10.8757 17.4997 10C17.5009 9.12458 17.329 8.25752 16.9941 7.44866C16.6592 6.63979 16.1677 5.90508 15.548 5.28671L16.7255 4.10754ZM10.833 4.16671V9.16671H13.333L9.16635 15.8334V10.8334H6.66635L10.833 4.16671ZM5.63052 6.46421L6.80968 7.64338C6.49965 7.95248 6.25377 8.3198 6.08616 8.72424C5.91855 9.12868 5.83252 9.56225 5.83302 10C5.83302 10.9209 6.20635 11.7542 6.80968 12.3575L5.63052 13.5359C5.16554 13.072 4.79682 12.5209 4.54555 11.9141C4.29427 11.3073 4.16541 10.6568 4.16635 10C4.16635 8.61921 4.72635 7.36921 5.63052 6.46421ZM14.3697 6.46504C14.8344 6.92885 15.2029 7.4799 15.454 8.08654C15.7052 8.69319 15.834 9.34348 15.833 10C15.834 10.6568 15.7051 11.3073 15.4538 11.9141C15.2025 12.5209 14.8338 13.072 14.3688 13.5359L13.1897 12.3575C13.4998 12.0483 13.7458 11.6809 13.9134 11.2763C14.081 10.8717 14.167 10.438 14.1663 10C14.167 9.56251 14.0811 9.12916 13.9138 8.72488C13.7465 8.3206 13.501 7.95335 13.1913 7.64421L14.3697 6.46504Z" fill="#0D9563"/>
</svg>
