<svg width="14" height="12" viewBox="0 0 14 12" fill="none" xmlns="http://www.w3.org/2000/svg">
<path d="M2.33333 0.333496C1.89333 0.333496 1.52 0.613496 1.38667 1.00016L0 5.00016V10.3335C0 10.5103 0.0702379 10.6799 0.195262 10.8049C0.320286 10.9299 0.489856 11.0002 0.666667 11.0002H1.33333C1.51014 11.0002 1.67971 10.9299 1.80474 10.8049C1.92976 10.6799 2 10.5103 2 10.3335V9.66683H5.53333C5.40248 9.23441 5.33511 8.78528 5.33333 8.3335C5.33441 7.52717 5.54438 6.73489 5.9428 6.03387C6.34121 5.33285 6.91446 4.74702 7.60667 4.3335H1.33333L2.33333 1.3335H9.66667L10.4533 3.68683C10.862 3.72943 11.2632 3.82582 11.6467 3.9735L10.6133 1.00016C10.48 0.613496 10.1067 0.333496 9.66667 0.333496H2.33333ZM9.33333 5.00016C9.29259 4.9994 9.25289 5.01302 9.22119 5.03862C9.1895 5.06423 9.16783 5.10018 9.16 5.14016L9.03333 6.02016C8.83333 6.10683 8.64 6.2135 8.46667 6.3335L7.64 6.00016C7.56667 6.00016 7.48 6.00016 7.43333 6.08683L6.76667 7.24016C6.72667 7.3135 6.74 7.40016 6.80667 7.4535L7.51333 8.00016C7.48678 8.22159 7.48678 8.4454 7.51333 8.66683L6.80667 9.2135C6.77671 9.23919 6.75642 9.27434 6.74914 9.31313C6.74187 9.35192 6.74805 9.39203 6.76667 9.42683L7.43333 10.5802C7.47333 10.6668 7.56 10.6668 7.64 10.6668L8.46667 10.3335C8.64 10.4535 8.82667 10.5668 9.03333 10.6468L9.16 11.5268C9.17333 11.6068 9.24 11.6668 9.33333 11.6668H10.6667C10.74 11.6668 10.8133 11.6068 10.8267 11.5268L10.9533 10.6468C11.1533 10.5602 11.3333 10.4535 11.5133 10.3335L12.3333 10.6668C12.42 10.6668 12.5067 10.6668 12.5533 10.5802L13.22 9.42683C13.2386 9.39203 13.2448 9.35192 13.2375 9.31313C13.2303 9.27434 13.21 9.23919 13.18 9.2135L12.4667 8.66683C12.48 8.5535 12.4933 8.44683 12.4933 8.3335C12.4933 8.22016 12.4867 8.1135 12.4667 8.00016L13.1733 7.4535C13.2033 7.4278 13.2236 7.39266 13.2309 7.35386C13.2381 7.31507 13.2319 7.27496 13.2133 7.24016L12.5467 6.08683C12.5067 6.00016 12.42 6.00016 12.3333 6.00016L11.5133 6.3335C11.3333 6.2135 11.1533 6.10016 10.9467 6.02016L10.82 5.14016C10.8158 5.10219 10.7979 5.06704 10.7697 5.04128C10.7415 5.01552 10.7049 5.0009 10.6667 5.00016H9.33333ZM2.33333 5.66683C2.59855 5.66683 2.8529 5.77219 3.04044 5.95972C3.22798 6.14726 3.33333 6.40161 3.33333 6.66683C3.33333 6.93205 3.22798 7.1864 3.04044 7.37394C2.8529 7.56147 2.59855 7.66683 2.33333 7.66683C2.06812 7.66683 1.81376 7.56147 1.62623 7.37394C1.43869 7.1864 1.33333 6.93205 1.33333 6.66683C1.33333 6.40161 1.43869 6.14726 1.62623 5.95972C1.81376 5.77219 2.06812 5.66683 2.33333 5.66683ZM10 7.3335C10.5533 7.3335 11 7.78016 11 8.3335C11 8.88683 10.5533 9.3335 10 9.3335C9.44 9.3335 9 8.88683 9 8.3335C9 7.78016 9.44667 7.3335 10 7.3335Z" fill="#333333"/>
</svg>
