<svg width="14" height="14" viewBox="0 0 14 14" fill="none" xmlns="http://www.w3.org/2000/svg">
<path d="M13.6555 6.14863L10.8367 8.60863L11.6811 12.2711C11.7258 12.4626 11.713 12.663 11.6445 12.8472C11.5759 13.0315 11.4545 13.1914 11.2955 13.3071C11.1365 13.4227 10.9469 13.489 10.7505 13.4975C10.5541 13.5059 10.3595 13.4564 10.1911 13.3549L6.99673 11.4174L3.80923 13.3549C3.64084 13.4564 3.44627 13.5059 3.24984 13.4975C3.05342 13.489 2.86385 13.4227 2.70485 13.3071C2.54586 13.1914 2.42447 13.0315 2.35589 12.8472C2.2873 12.663 2.27455 12.4626 2.31923 12.2711L3.16236 8.61238L0.342983 6.14863C0.193863 6.02002 0.086034 5.85024 0.0330176 5.66059C-0.0199988 5.47094 -0.0158426 5.26986 0.0449651 5.08257C0.105773 4.89527 0.220525 4.7301 0.374832 4.60776C0.529138 4.48542 0.71613 4.41137 0.912358 4.39488L4.62861 4.073L6.07923 0.613C6.15499 0.431448 6.28276 0.276367 6.44647 0.167286C6.61018 0.0582051 6.80251 0 6.99923 0C7.19596 0 7.38828 0.0582051 7.55199 0.167286C7.7157 0.276367 7.84348 0.431448 7.91923 0.613L9.37423 4.073L13.0892 4.39488C13.2855 4.41137 13.4725 4.48542 13.6268 4.60776C13.7811 4.7301 13.8958 4.89527 13.9566 5.08257C14.0174 5.26986 14.0216 5.47094 13.9686 5.66059C13.9156 5.85024 13.8077 6.02002 13.6586 6.14863H13.6555Z" fill="url(#paint0_linear_9378_12790)"/>
<defs>
<linearGradient id="paint0_linear_9378_12790" x1="7.0008" y1="0" x2="7.0008" y2="13.4984" gradientUnits="userSpaceOnUse">
<stop stop-color="#FDD924"/>
<stop offset="1" stop-color="#FF8F43"/>
</linearGradient>
</defs>
</svg>
