<svg width="146" height="160" viewBox="0 0 146 160" fill="none" xmlns="http://www.w3.org/2000/svg">
<g clip-path="url(#clip0_1_5423)">
<path d="M145.107 30.1997L79.3985 120.982C78.6043 122.079 76.9742 122.097 76.1565 121.016L38.8703 71.8146C37.5667 70.0957 39.5077 67.8046 41.4173 68.8078L75.877 86.9245L142.127 27.5089C143.926 25.8945 146.526 28.2352 145.11 30.1944L145.107 30.1997Z" fill="#0D9563"/>
<path d="M126.525 72.3135V112.212L70.7358 144.42L14.9462 112.212V47.7912L70.7358 15.5808L113.477 40.2572L124.804 30.0977L74.3487 0.969839C72.1125 -0.32328 69.3538 -0.32328 67.1177 0.969839L4.09964 37.3522C1.86346 38.6453 0.484131 41.033 0.484131 43.6167V116.387C0.484131 118.97 1.86346 121.355 4.09964 122.648L67.1203 159.033C68.2384 159.676 69.4871 160 70.7358 160C71.9845 160 73.2332 159.676 74.3513 159.033L137.372 122.648C139.608 121.355 140.987 118.97 140.987 116.387V52.3367L126.525 72.3135Z" fill="#0D9563"/>
</g>
<defs>
<clipPath id="clip0_1_5423">
<rect width="145.032" height="160" fill="white" transform="translate(0.484131)"/>
</clipPath>
</defs>
</svg>
