<svg width="20" height="20" viewBox="0 0 20 20" fill="none" xmlns="http://www.w3.org/2000/svg">
<path d="M10.0007 3.3335V0.833496L6.66732 4.16683L10.0007 7.50016V5.00016C12.759 5.00016 15.0007 7.24183 15.0007 10.0002C15.0007 10.8418 14.7923 11.6418 14.4173 12.3335L15.634 13.5502C16.3092 12.4893 16.6677 11.2577 16.6673 10.0002C16.6673 6.31683 13.684 3.3335 10.0007 3.3335ZM10.0007 15.0002C7.24232 15.0002 5.00065 12.7585 5.00065 10.0002C5.00065 9.1585 5.20898 8.3585 5.58398 7.66683L4.36732 6.45016C3.69211 7.51107 3.33363 8.74261 3.33398 10.0002C3.33398 13.6835 6.31732 16.6668 10.0007 16.6668V19.1668L13.334 15.8335L10.0007 12.5002V15.0002Z" fill="#244C66"/>
</svg>
