<svg width="10" height="13" viewBox="0 0 10 13" fill="none" xmlns="http://www.w3.org/2000/svg">
<path d="M8.35168 6.52466C8.36888 8.38314 9.98221 9.00168 10 9.00959C9.98636 9.05309 9.74228 9.89098 9.15014 10.7563C8.63827 11.5044 8.10692 12.2498 7.27011 12.2654C6.44783 12.2804 6.18339 11.7776 5.24317 11.7776C4.30326 11.7776 4.00956 12.2498 3.23107 12.2804C2.42322 12.3111 1.80804 11.4713 1.29192 10.726C0.237329 9.20127 -0.56864 6.4174 0.513531 4.53826C1.05111 3.60506 2.01198 3.0142 3.05481 2.99898C3.84803 2.98385 4.59676 3.5326 5.08164 3.5326C5.56623 3.5326 6.4761 2.87264 7.43262 2.96952C7.83309 2.98623 8.95707 3.13125 9.67882 4.18781C9.62079 4.2239 8.33774 4.97085 8.35168 6.52466ZM6.80628 1.9609C7.23511 1.44181 7.52377 0.718976 7.44508 0C6.82684 0.0248127 6.07929 0.411931 5.63593 0.930823C5.23853 1.3902 4.89056 2.12569 4.98437 2.83043C5.67349 2.88381 6.37734 2.48028 6.80628 1.9609Z" fill="black"/>
</svg>
