<svg width="18" height="14" viewBox="0 0 18 14" fill="none" xmlns="http://www.w3.org/2000/svg">
<path fill-rule="evenodd" clip-rule="evenodd" d="M7.32951 0.333252H10.6711C13.8217 0.333252 15.3969 0.333252 16.3757 1.30956C17.0496 1.98178 17.2595 2.93608 17.3248 4.49114C17.3378 4.79954 17.3443 4.95373 17.2867 5.05661C17.2291 5.15948 16.9992 5.28787 16.5394 5.54463C16.0288 5.8298 15.6836 6.37465 15.6836 6.99992C15.6836 7.62519 16.0288 8.17004 16.5394 8.4552C16.9992 8.71197 17.2291 8.84036 17.2867 8.94323C17.3443 9.04611 17.3378 9.2003 17.3248 9.50869C17.2595 11.0638 17.0496 12.0181 16.3757 12.6903C15.3969 13.6666 13.8217 13.6666 10.6711 13.6666H7.3295C4.17898 13.6666 2.60372 13.6666 1.62497 12.6903C0.951085 12.0181 0.741185 11.0638 0.675807 9.50869C0.662841 9.2003 0.656358 9.04611 0.713946 8.94323C0.771532 8.84036 1.00144 8.71197 1.46123 8.4552C1.97187 8.17004 2.31705 7.62519 2.31705 6.99992C2.31705 6.37465 1.97187 5.8298 1.46123 5.54463C1.00143 5.28787 0.771533 5.15948 0.713946 5.05661C0.656358 4.95373 0.662841 4.79954 0.675807 4.49114C0.741185 2.93608 0.951085 1.98178 1.62497 1.30956C2.60372 0.333252 4.17898 0.333252 7.32951 0.333252ZM11.9569 4.05798C12.2015 4.30205 12.2015 4.69778 11.9569 4.94186L6.9444 9.94186C6.69971 10.1859 6.303 10.1859 6.05831 9.94186C5.81363 9.69778 5.81363 9.30206 6.05831 9.05798L11.0708 4.05798C11.3155 3.8139 11.7122 3.8139 11.9569 4.05798ZM11.0961 9.91659C11.5575 9.91659 11.9315 9.54349 11.9315 9.08325C11.9315 8.62302 11.5575 8.24992 11.0961 8.24992C10.6347 8.24992 10.2607 8.62302 10.2607 9.08325C10.2607 9.54349 10.6347 9.91659 11.0961 9.91659ZM6.91906 5.74992C7.38044 5.74992 7.75447 5.37682 7.75447 4.91659C7.75447 4.45635 7.38044 4.08325 6.91906 4.08325C6.45768 4.08325 6.08365 4.45635 6.08365 4.91659C6.08365 5.37682 6.45768 5.74992 6.91906 5.74992Z" fill="#0D9463"/>
</svg>
