<svg width="18" height="14" viewBox="0 0 18 14" fill="none" xmlns="http://www.w3.org/2000/svg">
<path fill-rule="evenodd" clip-rule="evenodd" d="M7.32853 0.333374H10.6702C13.8207 0.333374 15.396 0.333374 16.3747 1.30968C17.0486 1.9819 17.2585 2.9362 17.3239 4.49127C17.3368 4.79966 17.3433 4.95385 17.2857 5.05673C17.2281 5.1596 16.9982 5.28799 16.5384 5.54476C16.0278 5.82992 15.6826 6.37477 15.6826 7.00004C15.6826 7.62531 16.0278 8.17016 16.5384 8.45533C16.9982 8.7121 17.2281 8.84048 17.2857 8.94335C17.3433 9.04623 17.3368 9.20042 17.3239 9.50882C17.2585 11.0639 17.0486 12.0182 16.3747 12.6904C15.396 13.6667 13.8207 13.6667 10.6702 13.6667H7.32853C4.178 13.6667 2.60274 13.6667 1.624 12.6904C0.950108 12.0182 0.740208 11.0639 0.67483 9.50882C0.661865 9.20042 0.655382 9.04623 0.712969 8.94335C0.770556 8.84048 1.00046 8.71209 1.46025 8.45533C1.97089 8.17016 2.31607 7.62531 2.31607 7.00004C2.31607 6.37477 1.97089 5.82992 1.46025 5.54476C1.00045 5.28799 0.770556 5.1596 0.712969 5.05673C0.655382 4.95385 0.661865 4.79966 0.67483 4.49127C0.740208 2.9362 0.950108 1.9819 1.624 1.30968C2.60274 0.333374 4.178 0.333374 7.32853 0.333374ZM11.9559 4.0581C12.2006 4.30218 12.2006 4.69791 11.9559 4.94198L6.94342 9.94198C6.69874 10.1861 6.30202 10.1861 6.05734 9.94198C5.81265 9.69791 5.81265 9.30218 6.05734 9.0581L11.0698 4.0581C11.3145 3.81402 11.7112 3.81402 11.9559 4.0581ZM11.0951 9.91671C11.5565 9.91671 11.9305 9.54361 11.9305 9.08337C11.9305 8.62314 11.5565 8.25004 11.0951 8.25004C10.6337 8.25004 10.2597 8.62314 10.2597 9.08337C10.2597 9.54361 10.6337 9.91671 11.0951 9.91671ZM6.91808 5.75004C7.37947 5.75004 7.75349 5.37695 7.75349 4.91671C7.75349 4.45647 7.37947 4.08337 6.91808 4.08337C6.4567 4.08337 6.08267 4.45647 6.08267 4.91671C6.08267 5.37695 6.4567 5.75004 6.91808 5.75004Z" fill="#0D9463"/>
</svg>
